<?xml version="1.0" encoding="UTF-8" standalone="no"?>
<svg
   xmlns:dc="http://purl.org/dc/elements/1.1/"
   xmlns:cc="http://creativecommons.org/ns#"
   xmlns:rdf="http://www.w3.org/1999/02/22-rdf-syntax-ns#"
   xmlns:svg="http://www.w3.org/2000/svg"
   xmlns="http://www.w3.org/2000/svg"
   xmlns:sodipodi="http://sodipodi.sourceforge.net/DTD/sodipodi-0.dtd"
   xmlns:inkscape="http://www.inkscape.org/namespaces/inkscape"
   inkscape:version="1.0 (4035a4f, 2020-05-01)"
   height="107.2"
   width="342.39999"
   sodipodi:docname="white-tied-in.svg"
   xml:space="preserve"
   viewBox="0 0 342.4 107.19999"
   y="0px"
   x="0px"
   id="svg4032"
   version="1.1"><metadata
   id="metadata268"><rdf:RDF><cc:Work
       rdf:about=""><dc:format>image/svg+xml</dc:format><dc:type
         rdf:resource="http://purl.org/dc/dcmitype/StillImage" /><dc:title></dc:title></cc:Work></rdf:RDF></metadata><defs
   id="defs266" />
<style
   id="style158"
   type="text/css">
	.st0{clip-path:url(#SVGID_2_);}
	.st1{fill:none;stroke:#FFFFFF;stroke-width:3;stroke-miterlimit:1;}
	.st2{fill:#FFFFFF;}
	.st3{fill:none;stroke:#FFFFFF;stroke-miterlimit:1;}
</style>
<sodipodi:namedview
   fit-margin-bottom="20"
   fit-margin-right="10"
   fit-margin-left="10"
   fit-margin-top="10"
   lock-margins="false"
   showgrid="false"
   pagecolor="#ffffff"
   objecttolerance="10"
   inkscape:zoom="1.51"
   inkscape:window-y="23"
   inkscape:window-x="42"
   inkscape:window-width="1158"
   inkscape:window-maximized="1"
   inkscape:window-height="1875"
   inkscape:pageshadow="2"
   inkscape:pageopacity="0"
   inkscape:document-rotation="0"
   inkscape:cy="167.63198"
   inkscape:cx="311.58377"
   inkscape:current-layer="layer2"
   id="namedview4034"
   guidetolerance="10"
   gridtolerance="10"
   borderopacity="1"
   bordercolor="#666666">
	</sodipodi:namedview>





























































































<g
   transform="translate(10,10)"
   id="g401" />

<g
   transform="translate(10,10)"
   inkscape:label="Background"
   id="layer2"
   inkscape:groupmode="layer" /><g
   transform="translate(10,10)"
   inkscape:label="Logo"
   id="layer1"
   inkscape:groupmode="layer"><path
     id="path3843"
     class="st2"
     d="m 107.6,17.3 h -2.8 v 14 c 0,1.1 0.1,1.8 0.4,2.2 0.3,0.4 0.8,0.6 1.6,0.6 v 0.5 h -6.4 v -0.5 c 0.8,0 1.3,-0.2 1.6,-0.7 0.3,-0.4 0.4,-1.2 0.4,-2.2 V 17.3 h -2.6 c -1.3,0 -2.2,0.2 -2.8,0.6 -0.6,0.4 -0.9,1.1 -1,2 H 95.5 V 15.7 H 96 c 0.5,0.5 1.4,0.7 2.7,0.7 h 9.5 c 1.4,0 2.3,-0.2 2.9,-0.7 h 0.6 v 4.2 h -0.4 c -0.2,-1 -0.6,-1.7 -1.2,-2.1 -0.5,-0.3 -1.3,-0.5 -2.5,-0.5" /><path
     id="path3845"
     class="st2"
     d="m 128.4,31.2 v -5.3 h -9.9 v 5.3 c 0,1.1 0.2,1.8 0.5,2.2 0.3,0.4 0.9,0.6 1.7,0.6 v 0.5 H 114 V 34 c 0.8,0 1.3,-0.2 1.6,-0.6 0.3,-0.4 0.4,-1.2 0.4,-2.2 V 19.8 c 0,-1.1 -0.1,-1.9 -0.4,-2.3 -0.3,-0.4 -0.8,-0.6 -1.6,-0.6 v -0.5 h 6.6 v 0.5 c -0.8,0 -1.3,0.2 -1.7,0.7 -0.3,0.4 -0.5,1.2 -0.5,2.2 V 25 h 9.9 v -5.2 c 0,-1.1 -0.1,-1.9 -0.4,-2.3 -0.3,-0.4 -0.8,-0.6 -1.6,-0.6 v -0.5 h 6.5 v 0.5 c -0.8,0 -1.3,0.2 -1.6,0.6 -0.3,0.4 -0.4,1.2 -0.4,2.3 v 11.3 c 0,1.1 0.1,1.8 0.4,2.3 0.3,0.4 0.8,0.6 1.6,0.6 v 0.5 h -6.5 V 34 c 0.8,0 1.3,-0.2 1.6,-0.6 0.3,-0.4 0.5,-1.1 0.5,-2.2" /><path
     id="path3847"
     class="st2"
     d="m 147,23.3 h 0.5 v 4.4 H 147 c -0.2,-0.8 -0.4,-1.3 -0.7,-1.5 -0.3,-0.2 -0.9,-0.3 -1.8,-0.3 H 140 v 6.5 c 0,0.5 0.1,0.8 0.3,1 0.2,0.2 0.5,0.3 1,0.3 h 3.2 c 1.1,0 1.9,-0.1 2.4,-0.2 0.4,-0.1 0.8,-0.4 1.1,-0.7 0.3,-0.3 0.6,-0.9 1,-1.6 h 0.5 l -0.8,3.4 h -13.1 v -0.5 c 0.8,0 1.4,-0.2 1.6,-0.6 0.3,-0.4 0.4,-1.2 0.4,-2.2 V 19.8 c 0,-1.1 -0.1,-1.9 -0.4,-2.3 -0.3,-0.4 -0.8,-0.6 -1.6,-0.6 v -0.5 h 13.1 v 3 h -0.3 c -0.2,-0.9 -0.4,-1.4 -0.8,-1.7 -0.4,-0.3 -1.1,-0.4 -2.3,-0.4 H 140 v 7.8 h 5.1 c 0.7,0 1.2,-0.1 1.4,-0.4 0.2,-0.2 0.4,-0.7 0.5,-1.4" /><path
     id="path3849"
     class="st2"
     d="m 172.9,30.8 v -11 c 0,-1.1 -0.1,-1.8 -0.4,-2.2 -0.3,-0.4 -0.8,-0.6 -1.5,-0.7 v -0.5 h 6.4 v 0.5 c -0.8,0 -1.3,0.2 -1.6,0.6 -0.3,0.4 -0.4,1.2 -0.4,2.3 v 11.3 c 0,1.1 0.1,1.8 0.4,2.2 0.3,0.4 0.8,0.6 1.6,0.6 v 0.5 h -4.5 V 32 c -1.7,2 -3.7,3 -6.1,3 -1.9,0 -3.4,-0.6 -4.5,-1.7 -1.1,-1.1 -1.7,-2.7 -1.7,-4.5 v -8.9 c 0,-1.1 -0.1,-1.8 -0.4,-2.3 -0.3,-0.4 -0.8,-0.6 -1.6,-0.6 v -0.5 h 6.6 V 17 c -0.8,0 -1.4,0.2 -1.7,0.6 -0.3,0.4 -0.4,1.2 -0.4,2.2 V 29 c 0,1.5 0.4,2.7 1.2,3.5 0.8,0.9 2,1.3 3.4,1.3 2.2,0 3.9,-1 5.2,-3" /><path
     id="path3851"
     class="st2"
     d="m 193.7,16.9 v -0.5 h 5.5 v 0.5 c -0.9,0 -1.5,0.2 -1.8,0.6 -0.3,0.4 -0.5,1.2 -0.5,2.2 v 14.8 h -0.6 L 183.4,18.7 v 12.8 c 0,0.9 0.2,1.5 0.5,1.9 0.4,0.4 1,0.6 1.8,0.6 v 0.5 h -5.5 V 34 c 0.9,0 1.5,-0.2 1.8,-0.7 0.3,-0.5 0.5,-1.3 0.5,-2.4 V 20.3 c 0,-1.1 -0.2,-2 -0.6,-2.5 -0.4,-0.5 -1.1,-0.8 -2.1,-0.9 v -0.5 h 4.7 l 11.4,14.1 V 19.9 c 0,-1.1 -0.2,-1.9 -0.5,-2.3 -0.3,-0.4 -0.8,-0.7 -1.7,-0.7" /><path
     id="path3853"
     class="st2"
     d="m 208.3,16.4 v 0.5 c -0.8,0 -1.3,0.2 -1.6,0.6 -0.3,0.4 -0.4,1.2 -0.4,2.3 v 11.3 c 0,1.1 0.1,1.8 0.4,2.3 0.3,0.4 0.8,0.6 1.6,0.6 v 0.5 h -6.5 V 34 c 0.8,0 1.3,-0.2 1.6,-0.6 0.3,-0.4 0.4,-1.2 0.4,-2.3 V 19.8 c 0,-1.1 -0.1,-1.9 -0.4,-2.3 -0.3,-0.4 -0.8,-0.6 -1.6,-0.6 v -0.5 h 6.5" /><path
     id="path3855"
     class="st2"
     d="M 228.4,16.4 V 17 c -1.3,0 -2.4,1.2 -3.3,3.5 l -5.4,14.3 h -0.5 l -5.6,-14.7 c -0.5,-1.4 -1,-2.2 -1.4,-2.6 -0.4,-0.4 -0.9,-0.5 -1.6,-0.6 v -0.5 h 6.6 v 0.5 c -1.1,0 -1.6,0.4 -1.6,1.2 0,0.3 0.1,0.6 0.2,0.9 l 4.4,11.7 4.2,-11.3 c 0.2,-0.5 0.3,-0.9 0.3,-1.3 0,-0.9 -0.5,-1.3 -1.6,-1.3 v -0.5 h 5.3" /><path
     id="path3857"
     class="st2"
     d="m 241.7,23.3 h 0.5 v 4.4 h -0.5 c -0.2,-0.8 -0.4,-1.3 -0.7,-1.5 -0.3,-0.2 -0.9,-0.3 -1.8,-0.3 h -4.5 v 6.5 c 0,0.5 0.1,0.8 0.3,1 0.2,0.2 0.5,0.3 1,0.3 h 3.2 c 1.1,0 1.9,-0.1 2.4,-0.2 0.4,-0.1 0.8,-0.4 1.1,-0.7 0.3,-0.3 0.6,-0.9 1,-1.6 h 0.5 l -0.8,3.4 h -13.1 v -0.5 c 0.8,0 1.4,-0.2 1.6,-0.6 0.3,-0.4 0.4,-1.2 0.4,-2.2 V 19.8 c 0,-1.1 -0.1,-1.9 -0.4,-2.3 -0.3,-0.4 -0.8,-0.6 -1.6,-0.6 v -0.5 h 13.1 v 3 h -0.3 c -0.2,-0.9 -0.5,-1.4 -0.8,-1.7 -0.3,-0.3 -1.1,-0.4 -2.3,-0.4 h -5.2 v 7.8 h 5.1 c 0.7,0 1.2,-0.1 1.4,-0.4 0.1,-0.2 0.3,-0.7 0.4,-1.4" /><path
     id="path3859"
     class="st2"
     d="m 252.8,17.1 h -1.9 v 8.3 h 2.2 c 1.3,0 2.4,-0.4 3.1,-1.1 0.8,-0.8 1.1,-1.8 1.1,-3 0,-1.2 -0.4,-2.2 -1.3,-3 -0.7,-0.8 -1.8,-1.2 -3.2,-1.2 z m -0.4,9.1 h -1.5 v 5 c 0,1.1 0.2,1.8 0.5,2.2 0.3,0.4 0.8,0.6 1.6,0.6 v 0.5 h -6.5 V 34 c 0.8,0 1.4,-0.2 1.6,-0.6 0.3,-0.4 0.4,-1.2 0.4,-2.2 V 19.8 c 0,-1.1 -0.1,-1.8 -0.4,-2.2 -0.3,-0.4 -0.8,-0.6 -1.6,-0.6 v -0.5 h 7.4 c 1.8,0 3.3,0.4 4.4,1.3 1.1,0.9 1.7,2 1.7,3.4 0,2.2 -1.2,3.7 -3.8,4.5 0.5,0.4 1.1,0.8 1.6,1.4 0.5,0.6 1.2,1.6 2.1,3.1 0.9,1.6 1.7,2.6 2.2,3.1 0.5,0.5 1.1,0.8 1.7,0.8 v 0.5 h -3.7 c -0.8,-0.9 -1.7,-2.3 -2.8,-4.1 -1.2,-1.9 -2.1,-3.1 -2.7,-3.6 -0.7,-0.5 -1.4,-0.7 -2.2,-0.7" /><path
     id="path3861"
     class="st2"
     d="m 274.5,16.1 h 0.5 v 4.3 h -0.5 c -0.1,-1.2 -0.6,-2.1 -1.3,-2.8 -0.7,-0.7 -1.6,-1 -2.8,-1 -1,0 -1.8,0.2 -2.4,0.7 -0.6,0.5 -0.9,1.2 -0.9,2 0,0.8 0.2,1.5 0.7,2.1 0.5,0.6 1.6,1.4 3.2,2.4 1.9,1.1 3.2,2.1 3.9,3 0.7,0.9 1,1.8 1,2.9 0,1.4 -0.5,2.6 -1.5,3.7 -1,1 -2.2,1.5 -3.7,1.5 -0.8,0 -1.9,-0.2 -3.2,-0.7 -0.5,-0.2 -0.9,-0.3 -1,-0.3 -0.3,0 -0.5,0.2 -0.7,0.7 h -0.5 v -4.9 h 0.5 c 0,1.4 0.5,2.4 1.3,3.3 0.8,0.9 1.9,1.2 3.1,1.2 1.1,0 2,-0.3 2.7,-0.9 0.7,-0.6 1,-1.4 1,-2.4 0,-0.7 -0.3,-1.4 -0.8,-2.1 -0.5,-0.7 -1.7,-1.5 -3.4,-2.6 -1.4,-0.9 -2.4,-1.6 -2.8,-2.1 -0.5,-0.5 -0.8,-1.1 -1.1,-1.7 -0.3,-0.6 -0.3,-1.3 -0.3,-2 0,-1.4 0.5,-2.5 1.4,-3.4 0.9,-0.9 2.1,-1.3 3.6,-1.3 0.8,0 1.7,0.2 2.6,0.5 0.4,0.1 0.8,0.2 0.9,0.2 0.1,0 0.2,0 0.3,-0.1 0.1,0.2 0.2,0.1 0.2,-0.2" /><path
     id="path3863"
     class="st2"
     d="m 285.6,16.4 v 0.5 c -0.8,0 -1.3,0.2 -1.6,0.6 -0.3,0.4 -0.4,1.2 -0.4,2.3 v 11.3 c 0,1.1 0.2,1.8 0.4,2.3 0.3,0.4 0.8,0.6 1.6,0.6 v 0.5 h -6.5 V 34 c 0.8,0 1.3,-0.2 1.6,-0.6 0.3,-0.4 0.4,-1.2 0.4,-2.3 V 19.8 c 0,-1.1 -0.1,-1.9 -0.4,-2.3 -0.3,-0.4 -0.8,-0.6 -1.6,-0.6 v -0.5 h 6.5" /><path
     id="path3865"
     class="st2"
     d="m 300.1,17.3 h -2.8 v 14 c 0,1.1 0.1,1.8 0.4,2.2 0.3,0.4 0.8,0.6 1.6,0.6 v 0.5 h -6.4 v -0.5 c 0.8,0 1.3,-0.2 1.6,-0.7 0.3,-0.4 0.4,-1.2 0.4,-2.2 V 17.3 h -2.6 c -1.3,0 -2.2,0.2 -2.8,0.6 -0.6,0.4 -0.9,1.1 -1,2 H 288 v -4.2 h 0.5 c 0.5,0.5 1.4,0.7 2.7,0.7 h 9.5 c 1.4,0 2.3,-0.2 2.9,-0.7 h 0.6 v 4.2 h -0.4 c -0.2,-1 -0.6,-1.7 -1.2,-2.1 -0.6,-0.4 -1.4,-0.5 -2.5,-0.5" /><path
     id="path3867"
     class="st2"
     d="m 319.6,19 -4.1,6.4 v 5.7 c 0,1.1 0.1,1.9 0.4,2.3 0.3,0.4 0.8,0.6 1.6,0.6 v 0.5 h -6.6 V 34 c 0.9,0 1.5,-0.2 1.8,-0.7 0.3,-0.4 0.4,-1.2 0.4,-2.2 v -5.7 l -3.9,-6 c -0.6,-1 -1.2,-1.7 -1.6,-2 -0.4,-0.3 -1,-0.5 -1.7,-0.5 v -0.5 h 7.1 v 0.5 c -1.2,0 -1.9,0.3 -1.9,0.9 0,0.3 0.1,0.6 0.4,1 l 3.6,5.5 2.9,-4.6 c 0.4,-0.7 0.6,-1.3 0.6,-1.8 0,-0.7 -0.4,-1 -1.2,-1 v -0.5 h 5 v 0.5 c -0.7,0 -1.2,0.2 -1.6,0.4 -0.4,0.2 -0.7,0.9 -1.2,1.7" /><path
     id="path3869"
     class="st2"
     d="m 99.5,58.8 c 1,0 1.9,-0.6 2.7,-1.9 0.8,-1.3 1.2,-2.8 1.2,-4.6 0,-0.8 -0.2,-1.5 -0.6,-2 -0.4,-0.5 -0.9,-0.8 -1.6,-0.8 -1,0 -1.9,0.6 -2.7,1.9 -0.8,1.3 -1.2,2.8 -1.2,4.5 0,0.9 0.2,1.6 0.6,2.1 0.5,0.5 1,0.8 1.6,0.8 z m 2.6,-10.2 c 0.8,0 1.6,0.4 2.2,1.1 0.6,0.7 1,1.6 1,2.5 0,1.7 -0.6,3.4 -1.9,5 -1.3,1.6 -2.8,2.5 -4.5,2.5 -1,0 -1.8,-0.3 -2.4,-1 -0.6,-0.7 -0.9,-1.6 -0.9,-2.7 0,-1.9 0.7,-3.6 2,-5.1 1.3,-1.6 2.8,-2.3 4.5,-2.3" /><path
     id="path3871"
     class="st2"
     d="m 113.1,48.9 -0.1,0.9 h -2.2 L 109,59 c -0.5,2.5 -1,4.3 -1.5,5.5 -0.5,1.2 -1.4,2 -2.4,2.6 -1,0.6 -2.1,0.9 -3.3,0.9 -1.6,0 -2.8,-0.3 -3.7,-0.9 l 0.5,-2.2 h 0.5 c 0.3,1.6 1.3,2.4 2.8,2.4 1.1,0 2.1,-0.4 3,-1.2 0.9,-0.8 1.6,-2.7 2.1,-5.7 l 2,-10.7 h -2.2 l 0.1,-0.9 h 2.2 l 0.8,-3.8 c 0.4,-2 1.1,-3.5 2,-4.2 0.9,-0.8 2.1,-1.2 3.3,-1.2 0.6,0 1.3,0.1 2.2,0.4 l 0.1,-0.4 h 0.6 l -0.6,2.9 H 117 c -0.1,-1.5 -0.8,-2.3 -2,-2.3 -1.5,0 -2.6,1.3 -3.1,3.9 l -1,4.7 h 2.2" /><path
     id="path3873"
     class="st2"
     d="m 135,48.1 h 0.5 v 4.4 H 135 c -0.2,-0.8 -0.4,-1.3 -0.7,-1.5 -0.3,-0.2 -0.9,-0.3 -1.8,-0.3 H 128 v 6.5 c 0,0.5 0.1,0.8 0.3,1 0.2,0.2 0.5,0.3 1,0.3 h 3.2 c 1.1,0 1.9,-0.1 2.4,-0.2 0.4,-0.1 0.8,-0.4 1.1,-0.7 0.3,-0.3 0.6,-0.9 1,-1.6 h 0.5 l -0.8,3.4 h -13.1 v -0.5 c 0.8,0 1.4,-0.2 1.6,-0.6 0.3,-0.4 0.4,-1.2 0.4,-2.2 V 44.6 c 0,-1.1 -0.1,-1.9 -0.4,-2.3 -0.3,-0.4 -0.8,-0.6 -1.6,-0.6 v -0.5 h 13.1 v 3 h -0.3 c -0.2,-0.9 -0.5,-1.4 -0.8,-1.7 -0.3,-0.3 -1.1,-0.4 -2.3,-0.4 h -5.2 v 7.8 h 5.1 c 0.7,0 1.2,-0.1 1.4,-0.4 0.1,-0.3 0.3,-0.7 0.4,-1.4" /><path
     id="path3875"
     class="st2"
     d="m 147.8,41.9 h -3.5 v 13.4 c 0,1.3 0.2,2.2 0.5,2.6 0.3,0.4 0.9,0.7 1.9,0.7 h 1.9 c 2.2,0 4,-0.7 5.3,-2.2 1.3,-1.5 1.9,-3.4 1.9,-5.9 0,-2.6 -0.7,-4.8 -2.1,-6.3 -1.4,-1.5 -3.4,-2.3 -5.9,-2.3 z m -7.9,17.5 v -0.5 c 0.8,0 1.3,-0.2 1.6,-0.6 0.3,-0.4 0.4,-1.2 0.4,-2.2 V 44.6 c 0,-1.1 -0.1,-1.8 -0.4,-2.3 -0.3,-0.4 -0.8,-0.6 -1.6,-0.6 v -0.5 h 8.4 c 3.1,0 5.6,0.9 7.5,2.6 1.9,1.8 2.8,4 2.8,6.7 0,2.7 -0.9,4.8 -2.6,6.4 -1.7,1.6 -4.2,2.4 -7.4,2.4 h -8.7" /><path
     id="path3877"
     class="st2"
     d="m 167.5,41.2 v 0.5 c -0.8,0 -1.3,0.2 -1.6,0.6 -0.3,0.4 -0.4,1.2 -0.4,2.3 v 11.3 c 0,1.1 0.1,1.8 0.4,2.3 0.3,0.4 0.8,0.6 1.6,0.6 v 0.5 H 161 v -0.5 c 0.8,0 1.3,-0.2 1.6,-0.6 0.3,-0.4 0.4,-1.2 0.4,-2.3 V 44.6 c 0,-1.1 -0.1,-1.9 -0.4,-2.3 -0.3,-0.4 -0.8,-0.6 -1.6,-0.6 v -0.5 h 6.5" /><path
     id="path3879"
     class="st2"
     d="m 183.7,41.7 v -0.5 h 5.5 v 0.5 c -0.9,0 -1.5,0.2 -1.8,0.6 -0.3,0.4 -0.5,1.2 -0.5,2.2 v 14.8 h -0.6 L 173.4,43.5 v 12.8 c 0,0.9 0.2,1.5 0.6,1.9 0.4,0.4 1,0.6 1.8,0.6 v 0.5 h -5.5 v -0.5 c 0.9,0 1.5,-0.2 1.8,-0.7 0.3,-0.5 0.5,-1.3 0.5,-2.4 V 45.1 c 0,-1.1 -0.2,-2 -0.6,-2.5 -0.4,-0.5 -1.1,-0.8 -2.1,-0.9 v -0.5 h 4.7 L 186,55.3 V 44.7 c 0,-1.1 -0.2,-1.9 -0.5,-2.3 -0.4,-0.5 -1,-0.7 -1.8,-0.7" /><path
     id="path3881"
     class="st2"
     d="m 197.3,50.3 h -1.7 v 5.3 c 0,1.2 0.1,2 0.4,2.4 0.3,0.4 0.8,0.6 1.5,0.6 h 1.5 c 1.1,0 1.9,-0.4 2.6,-1.1 0.7,-0.7 1,-1.7 1,-2.8 0,-1.4 -0.5,-2.4 -1.4,-3.3 -1,-0.7 -2.3,-1.1 -3.9,-1.1 z m -1.7,-8.4 v 7.7 h 1.9 c 1.3,0 2.4,-0.3 3.1,-1 0.7,-0.7 1.2,-1.6 1.2,-2.8 0,-1.2 -0.4,-2.2 -1.1,-2.9 -0.8,-0.7 -1.8,-1 -3.2,-1 z m 3.9,17.5 h -8.4 v -0.5 c 0.8,0 1.3,-0.2 1.6,-0.6 0.3,-0.4 0.4,-1.2 0.4,-2.3 V 44.6 c 0,-1.1 -0.1,-1.9 -0.4,-2.3 -0.3,-0.4 -0.8,-0.6 -1.6,-0.6 v -0.5 h 6.9 c 2,0 3.5,0.4 4.6,1.2 1.1,0.8 1.7,1.9 1.7,3.2 0,2 -1.2,3.3 -3.7,4.1 v 0.1 c 1.4,0.3 2.5,0.9 3.4,1.8 0.9,0.9 1.3,2 1.3,3.3 0,1.3 -0.5,2.4 -1.6,3.2 -1,0.8 -2.4,1.3 -4.2,1.3" /><path
     id="path3883"
     class="st2"
     d="M 221.6,55.5 V 44.6 c 0,-1.1 -0.1,-1.8 -0.4,-2.2 -0.3,-0.4 -0.8,-0.6 -1.5,-0.7 v -0.5 h 6.4 v 0.5 c -0.8,0 -1.3,0.2 -1.6,0.6 -0.3,0.4 -0.4,1.2 -0.4,2.3 v 11.3 c 0,1.1 0.1,1.8 0.4,2.2 0.3,0.4 0.8,0.6 1.6,0.6 v 0.5 h -4.5 v -2.5 c -1.7,2 -3.7,3 -6.1,3 -1.9,0 -3.4,-0.6 -4.5,-1.7 -1.1,-1.1 -1.7,-2.7 -1.7,-4.5 v -8.9 c 0,-1.1 -0.1,-1.8 -0.4,-2.3 -0.3,-0.4 -0.8,-0.6 -1.6,-0.6 v -0.5 h 6.6 v 0.5 c -0.8,0 -1.4,0.2 -1.7,0.6 -0.3,0.4 -0.4,1.2 -0.4,2.2 v 9.2 c 0,1.5 0.4,2.7 1.2,3.5 0.8,0.9 2,1.3 3.4,1.3 2.1,0.1 3.9,-0.9 5.2,-3" /><path
     id="path3885"
     class="st2"
     d="m 235.1,41.9 h -1.9 v 8.3 h 2.2 c 1.3,0 2.4,-0.4 3.1,-1.1 0.8,-0.8 1.1,-1.8 1.1,-3 0,-1.2 -0.4,-2.2 -1.3,-3 -0.7,-0.8 -1.8,-1.2 -3.2,-1.2 z m -0.4,9 h -1.5 v 5 c 0,1.1 0.2,1.8 0.5,2.2 0.3,0.4 0.8,0.6 1.6,0.6 v 0.5 h -6.5 v -0.5 c 0.8,0 1.3,-0.2 1.6,-0.6 0.3,-0.4 0.4,-1.2 0.4,-2.2 V 44.5 c 0,-1.1 -0.1,-1.8 -0.4,-2.2 -0.3,-0.4 -0.8,-0.6 -1.6,-0.6 v -0.5 h 7.4 c 1.8,0 3.3,0.4 4.4,1.3 1.1,0.9 1.6,2 1.6,3.4 0,2.2 -1.2,3.7 -3.8,4.5 0.6,0.4 1.1,0.8 1.6,1.4 0.5,0.6 1.2,1.6 2.1,3.1 1,1.6 1.7,2.6 2.2,3.1 0.5,0.5 1.1,0.8 1.7,0.8 v 0.5 h -3.7 c -0.8,-0.9 -1.7,-2.3 -2.8,-4.1 -1.2,-1.9 -2.1,-3.1 -2.7,-3.6 -0.6,-0.4 -1.3,-0.7 -2.1,-0.7" /><path
     id="path3887"
     class="st2"
     d="M 264.1,51.5 V 52 c -0.8,0 -1.4,0.2 -1.7,0.6 -0.3,0.4 -0.5,1 -0.5,1.9 v 4.9 c -0.4,0.1 -1.2,0.2 -2.4,0.3 -1.2,0.1 -2.1,0.1 -2.7,0.1 -3.4,0 -6,-0.8 -7.8,-2.5 -1.9,-1.7 -2.8,-3.8 -2.8,-6.5 0,-1.9 0.4,-3.6 1.2,-5.1 0.8,-1.5 2,-2.7 3.4,-3.6 1.4,-0.9 3,-1.3 4.7,-1.3 1,0 2.1,0.2 3.2,0.5 0.7,0.2 1.3,0.3 1.7,0.3 0.5,0 0.9,-0.2 1,-0.6 h 0.6 v 5.4 h -0.5 c -0.2,-1.5 -0.9,-2.7 -2,-3.6 -1.1,-0.9 -2.5,-1.3 -4,-1.3 -1.9,0 -3.5,0.8 -4.7,2.3 -1.2,1.5 -1.8,3.5 -1.8,5.9 0,2.7 0.7,4.9 2.1,6.6 1.4,1.8 3.2,2.6 5.4,2.6 2,0 3.1,-0.6 3.1,-1.9 v -2 c 0,-1.1 -0.1,-1.9 -0.4,-2.3 -0.3,-0.4 -0.8,-0.7 -1.6,-0.7 h -0.7 v -0.5 h 7.2" /><path
     id="path3889"
     class="st2"
     d="m 280,55.9 v -5.3 h -9.9 v 5.3 c 0,1.1 0.2,1.8 0.5,2.2 0.3,0.4 0.9,0.6 1.6,0.6 v 0.5 h -6.6 v -0.5 c 0.8,0 1.3,-0.2 1.6,-0.6 0.3,-0.4 0.4,-1.2 0.4,-2.2 V 44.6 c 0,-1.1 -0.1,-1.9 -0.4,-2.3 -0.3,-0.4 -0.8,-0.6 -1.6,-0.6 v -0.5 h 6.6 v 0.5 c -0.8,0 -1.3,0.2 -1.6,0.7 -0.3,0.4 -0.5,1.2 -0.5,2.2 v 5.2 h 9.9 v -5.2 c 0,-1.1 -0.1,-1.9 -0.4,-2.3 -0.3,-0.4 -0.8,-0.6 -1.6,-0.6 v -0.5 h 6.5 v 0.5 c -0.8,0 -1.3,0.2 -1.6,0.6 -0.3,0.4 -0.4,1.2 -0.4,2.3 v 11.3 c 0,1.1 0.1,1.8 0.4,2.3 0.3,0.4 0.8,0.6 1.6,0.6 v 0.5 H 278 v -0.5 c 0.8,0 1.3,-0.2 1.6,-0.6 0.2,-0.4 0.4,-1.2 0.4,-2.3" /><path
     id="path3891"
     class="st2"
     d="m 68.6,36 c 0,-0.6 -0.2,-1.2 -0.2,-1.8 C 68.3,33.6 68.3,32.9 68.2,32.3 67.8,30.6 67.4,29 66.8,27.4 66.7,27.2 66.6,27 66.5,26.7 66.3,26.2 66.1,25.8 65.9,25.4 65.8,25.3 65.8,25.1 65.7,25 65.5,24.6 65.4,24.2 65.2,23.8 65.1,23.6 64.9,23.4 64.8,23.1 64.7,22.9 64.6,22.6 64.5,22.4 64.1,21.7 63.6,21.1 63.2,20.5 63,20.3 62.9,20.1 62.7,19.9 62.5,19.7 62.3,19.4 62.1,19.2 61.9,19 61.7,18.9 61.6,18.7 61.5,18.6 61.5,18.5 61.4,18.3 61.3,18.1 61.1,18 61,17.9 60.9,17.8 60.8,17.7 60.8,17.7 60.6,17.5 60.4,17.2 60.2,17 60,16.8 59.8,16.6 59.6,16.5 59.4,16.3 59.2,16.1 59,15.9 58.7,15.7 58.5,15.5 58.2,15.3 57.9,15.1 57.7,14.8 57.4,14.6 57.2,14.5 57,14.4 56.9,14.3 56.7,14.1 56.5,14 56.2,13.8 56,13.7 55.9,13.5 55.7,13.4 55.6,13.3 55.5,13.3 55.3,13.2 55.1,13.1 55,13 54.8,12.9 54.3,12.6 53.7,12.3 53.1,12 52.9,11.9 52.7,11.7 52.5,11.6 52.1,11.4 51.8,11.2 51.4,11.1 51.1,11 50.8,10.9 50.5,10.7 50.4,10.6 50.2,10.5 50.1,10.5 50,10.5 49.9,10.4 49.8,10.4 49.6,10.3 49.4,10.2 49.3,10.2 48.7,10 48.2,9.9 47.6,9.7 47.3,9.6 47,9.5 46.8,9.4 46.2,9.2 45.6,9.1 45,9 44.6,8.9 44.2,8.8 43.8,8.7 43.5,8.7 43.3,8.6 43,8.6 42.6,8.5 42.1,8.4 41.6,8.4 c -0.2,0 -0.3,0 -0.5,0 -0.1,0 -0.2,0 -0.4,-0.1 -0.2,0 -0.5,0 -0.7,0 -0.5,0 -1.1,-0.1 -1.7,-0.1 -0.2,0.1 -0.5,0 -0.8,0 h -0.9 c -0.1,0 -0.2,0 -0.2,0 -0.2,0 -0.4,0 -0.6,0 -0.1,0 -0.2,0.1 -0.3,0.1 -0.1,0 -0.2,0 -0.3,0 -0.1,0 -0.2,0 -0.3,0 -0.1,0 -0.1,0 -0.2,0 -0.1,0 -0.3,0 -0.4,0.1 -0.3,0 -0.7,0 -0.9,0.2 -0.1,0 -0.1,0 -0.2,0 -0.2,0 -0.4,0 -0.6,0.1 -0.5,0 -0.9,0.2 -1.3,0.3 -0.4,0 -0.7,0 -0.9,0.2 -0.2,0 -0.4,0 -0.5,0.1 -0.3,0 -0.6,0.2 -0.8,0.3 -0.2,0.1 -0.3,0.1 -0.5,0.1 -0.3,0 -0.6,0.2 -0.8,0.3 -0.2,0.1 -0.3,0.1 -0.5,0.2 -0.9,0.4 -1.8,0.8 -2.7,1.3 -0.2,0.1 -0.3,0.2 -0.4,0.3 -1.1,0.5 -2.1,1.1 -3,1.9 -0.3,0.2 -0.5,0.4 -0.8,0.6 -0.1,0.1 -0.3,0.3 -0.4,0.4 -0.3,0.2 -0.5,0.4 -0.8,0.6 -0.5,0.4 -1,0.9 -1.5,1.4 -0.3,0.3 -0.6,0.5 -0.9,0.8 -0.1,0.1 -0.2,0.2 -0.3,0.4 -0.1,0.1 -0.3,0.3 -0.4,0.4 -0.2,0.2 -0.4,0.5 -0.6,0.7 -0.2,0.2 -0.4,0.4 -0.5,0.6 -0.1,0.1 -0.2,0.2 -0.2,0.3 -0.3,0.4 -0.6,0.7 -0.9,1.1 -0.2,0.3 -0.4,0.6 -0.6,0.9 -0.3,0.3 -0.6,0.8 -0.8,1.2 -0.1,0.1 -0.1,0.2 -0.2,0.4 -0.2,0.3 -0.4,0.6 -0.5,0.9 -0.2,0.3 -0.3,0.7 -0.4,1 -0.1,0.1 -0.1,0.2 -0.2,0.4 -0.2,0.3 -0.3,0.6 -0.4,0.9 -0.1,0.2 -0.1,0.4 -0.2,0.6 -0.1,0.2 -0.2,0.4 -0.3,0.6 -0.1,0.2 -0.1,0.4 -0.2,0.7 -0.1,0.2 -0.2,0.5 -0.3,0.7 -0.4,1.4 -0.8,2.9 -1.1,4.4 0,0.3 -0.1,0.6 -0.1,0.9 0,0.3 -0.2,0.7 -0.2,1 0,0.3 0,0.6 -0.1,0.8 0,0.2 0,0.4 -0.1,0.6 0,1.2 0,2.4 0,3.6 0,0.6 0.1,1.2 0.2,1.7 0,0.2 0,0.5 0,0.7 0.1,0.8 0.2,1.6 0.3,2.3 0.1,0.2 0.1,0.4 0.2,0.6 0.1,0.6 0.3,1.2 0.4,1.8 0.1,0.1 0.1,0.3 0.2,0.4 0,0.1 0.1,0.3 0.1,0.4 0.2,0.6 0.5,1.3 0.7,1.9 0.1,0.2 0.2,0.5 0.3,0.7 0.1,0.2 0.1,0.3 0.2,0.5 0.2,0.4 0.4,0.8 0.6,1.2 0.2,0.3 0.4,0.6 0.5,1 0.1,0.1 0.1,0.2 0.1,0.4 0.1,0.1 0.1,0.1 0.2,0.2 0.1,0.1 0.1,0.3 0.2,0.4 0.2,0.3 0.3,0.5 0.5,0.8 0.1,0.2 0.2,0.3 0.3,0.5 0.2,0.2 0.3,0.4 0.5,0.6 0.1,0.2 0.2,0.3 0.3,0.5 0.2,0.3 0.4,0.5 0.6,0.8 0.2,0.2 0.4,0.4 0.5,0.7 0.2,0.2 0.4,0.5 0.7,0.7 0.2,0.2 0.3,0.5 0.6,0.7 0.3,0.3 0.6,0.6 0.9,0.8 0.1,0.1 0.3,0.3 0.4,0.4 0.2,0.2 0.5,0.4 0.8,0.6 0.2,0.2 0.5,0.4 0.7,0.7 0.2,0.1 0.3,0.3 0.5,0.4 0.2,0.2 0.4,0.4 0.6,0.5 0.3,0.2 0.5,0.4 0.8,0.6 0.2,0.1 0.4,0.2 0.6,0.3 0.2,0.1 0.4,0.3 0.6,0.4 0.2,0.1 0.4,0.2 0.6,0.4 0.8,0.5 1.6,0.9 2.4,1.3 0.4,0.2 0.7,0.4 1.1,0.5 0.4,0.1 0.7,0.3 1.1,0.4 0.1,0 0.3,0.1 0.4,0.1 0.3,0.1 0.7,0.3 1,0.4 0.1,0 0.2,0.1 0.3,0.1 0.3,0.1 0.6,0.3 0.9,0.3 0.4,0.1 0.8,0.1 1.1,0.2 0.6,0.1 1.1,0.3 1.7,0.4 0.2,0 0.4,0 0.6,0 0.3,0 0.6,0.1 0.8,0.1 0.2,0 0.4,0 0.7,0 0.1,0 0.3,0 0.4,0.1 0.2,0 0.3,0 0.4,0 0.3,0.1 0.7,0.1 1,0.2 0.2,0 0.4,0 0.5,0 0.1,0 0.2,0 0.3,0 0.3,0 0.7,0 1,0.1 0.2,0 0.4,0 0.6,0 0.4,0 0.8,-0.1 1.1,-0.1 0.2,0 0.3,0 0.5,0 0.2,0 0.5,-0.1 0.7,-0.1 0.8,-0.1 1.6,-0.2 2.4,-0.3 0.3,-0.1 0.5,-0.1 0.8,-0.2 0.3,-0.1 0.7,-0.1 1,-0.2 0.2,0 0.3,-0.1 0.5,-0.2 0.3,-0.1 0.5,-0.2 0.8,-0.2 0.1,0 0.2,-0.1 0.4,-0.1 0.2,-0.1 0.4,-0.1 0.6,-0.1 0.4,-0.1 0.8,-0.3 1.2,-0.4 0.2,-0.1 0.5,-0.2 0.7,-0.3 0.2,-0.1 0.5,-0.2 0.7,-0.3 0.1,0 0.1,-0.1 0.2,-0.1 0.2,-0.1 0.5,-0.2 0.7,-0.3 0.3,-0.2 0.5,-0.3 0.8,-0.5 0.1,-0.1 0.3,-0.1 0.4,-0.2 0.4,-0.2 0.8,-0.5 1.2,-0.7 0.3,-0.2 0.7,-0.4 1,-0.6 0.3,-0.2 0.6,-0.5 0.9,-0.7 0.3,-0.2 0.6,-0.5 1,-0.7 0.1,-0.1 0.1,-0.1 0.2,-0.2 0.1,0 0.2,-0.1 0.2,-0.1 0.3,-0.2 0.5,-0.5 0.8,-0.7 0.2,-0.2 0.4,-0.4 0.6,-0.6 0.2,-0.2 0.4,-0.4 0.7,-0.6 0.1,-0.1 0.1,-0.2 0.2,-0.3 0.2,-0.2 0.4,-0.3 0.5,-0.5 0.1,-0.1 0.2,-0.3 0.3,-0.4 0.4,-0.4 0.8,-0.8 1.1,-1.2 0.3,-0.3 0.5,-0.6 0.8,-1 0.2,-0.2 0.4,-0.5 0.5,-0.8 0.1,-0.1 0.2,-0.2 0.3,-0.3 0.3,-0.4 0.6,-0.8 0.9,-1.2 0.1,-0.1 0.1,-0.3 0.2,-0.4 0.1,-0.1 0.1,-0.2 0.2,-0.3 0.1,-0.1 0.1,-0.2 0.2,-0.4 0.2,-0.3 0.4,-0.7 0.6,-1 0.2,-0.3 0.3,-0.5 0.5,-0.8 0.1,-0.3 0.2,-0.5 0.3,-0.8 0.1,-0.3 0.3,-0.6 0.4,-0.8 0.4,-1.2 0.9,-2.4 1.2,-3.6 0,-0.1 0.1,-0.3 0.1,-0.4 0.1,-0.5 0.2,-0.9 0.3,-1.4 0,-0.2 0.1,-0.5 0.1,-0.7 0.1,-0.4 0.1,-0.8 0.2,-1.2 0,-0.3 0,-0.6 0.1,-1 0,-0.1 0,-0.2 0.1,-0.4 0,-0.3 0,-0.5 0,-0.8 0,-0.1 0.1,-0.3 0.1,-0.4 0,-0.2 0,-0.4 0,-0.6 0.1,-1.7 0.2,-3 0.1,-4.2 M 32.3,10.2 c 0.3,0 0.5,-0.1 0.7,-0.2 0.4,-0.1 0.8,-0.2 1.2,-0.2 0.3,0 0.6,0 0.9,0 0.4,0 0.8,-0.1 1.2,-0.2 0.2,0 0.3,0 0.5,0 0.2,0 0.4,0 0.6,-0.1 0.4,0 0.8,0 1.2,0 0.2,0 0.5,0 0.7,0.1 0.2,0 0.4,0.1 0.5,0.1 0.3,0 0.5,0 0.8,0 0.1,0 0.2,0 0.4,0 0.2,0 0.4,0 0.5,0 0.2,0 0.4,0.1 0.7,0.1 0.1,0 0.2,0 0.3,0 0.1,0 0.2,0.1 0.3,0.1 0.1,0 0.2,0.1 0.4,0.1 0.5,0.1 1,0.1 1.5,0.2 0,0 0.1,0 0.1,0 0,0.1 -0.8,0 -1,0 -0.1,0 -0.2,0 -0.3,0 -0.2,0 -0.5,0 -0.7,0 -0.1,0 -0.2,0 -0.3,0 -0.1,0 -0.3,0 -0.4,0 -0.1,0 -0.2,0 -0.3,0 -0.3,0 -0.8,-0.1 -1.1,0 -0.3,0 -0.6,0 -0.9,-0.1 -0.1,0 -0.4,-0.1 -0.5,0 -0.2,0 -0.3,0 -0.4,0 -0.2,0 -0.3,-0.1 -0.5,0 -0.1,0 -0.2,0 -0.3,0.1 -0.7,0 -1.4,0 -2.1,0 -0.1,0 -0.3,0 -0.4,-0.1 -0.3,0 -0.6,0 -1,0 -0.2,0 -0.7,-0.1 -0.8,0 -0.5,0.1 -1,0.1 -1.5,0.1 z m -3.8,1.1 c 0.1,0 0.3,-0.2 0.4,-0.2 0.1,0 0.2,-0.1 0.3,-0.1 0.1,-0.1 0.2,-0.1 0.3,-0.1 0.3,-0.1 0.7,-0.2 1,-0.3 0.2,0 0.5,0 0.7,0 0.3,0 0.6,0 0.9,0 0.2,0 0.4,0 0.5,0 0.3,0 0.5,0 0.8,0 0.4,0 0.7,0 1.1,0 1.3,0 2.6,0.1 3.9,0.1 0.2,0 0.4,0 0.6,0 0.3,0 0.6,0 0.9,0 1.5,0 3,-0.1 4.5,0 0.5,0 1,0 1.5,0 0.2,0 0.4,0 0.6,0 0.4,0.1 0.8,0.4 1.2,0.5 0.2,0 0.8,0.1 1,0.3 0,0 -0.1,0 -0.1,0 -0.1,0 -0.1,0 -0.2,0 -0.2,0 -0.4,0 -0.6,0 -0.2,0 -0.4,-0.1 -0.6,-0.1 -0.2,0 -0.4,0 -0.6,0 -0.1,0 -0.2,0 -0.3,0 -0.2,0 -0.5,0 -0.6,0 -0.1,0 -0.3,0 -0.4,0 -0.2,0 -0.4,0 -0.6,0 -0.3,0 -1,-0.1 -1.2,0 -0.1,0 -0.3,-0.1 -0.4,0 -0.2,0 -0.3,0 -0.5,-0.1 -0.2,0 -0.4,0 -0.6,0 -0.1,0 -0.3,0 -0.4,0 -0.2,0 -0.4,0 -0.5,0 -0.2,0 -0.4,0 -0.5,0 -0.5,0 -0.9,0 -1.4,0 -0.1,0 -0.3,0 -0.5,0 -0.1,0 -0.2,0 -0.3,0 -0.1,0 -0.2,0 -0.3,0 -0.4,0 -0.8,-0.1 -1.2,-0.1 -0.5,0 -0.9,0 -1.4,0 -0.2,0 -0.6,-0.1 -0.7,0 -0.4,0 -0.7,0 -1.1,0 -0.1,0 -0.3,0 -0.4,0 -0.1,0 -0.1,0 -0.2,0 -0.5,0 -1,0 -1.5,0 -0.1,0 -0.2,0 -0.2,0 -0.2,0 -0.4,0 -0.6,0 -0.1,0 -0.2,0 -0.3,0 -0.6,0.2 -1.3,0.2 -2,0.1 z m -2.1,0.9 c 0.1,-0.1 0.2,-0.1 0.2,-0.2 0.7,-0.4 1.6,-0.2 2.4,-0.2 0.5,0 0.9,0 1.4,0 0.1,0 0.3,0 0.4,0 0.2,0 0.5,0 0.8,0 1,0 1.9,0 2.9,0 0.2,0 0.4,0 0.6,0 0.3,0 0.5,0 0.8,0 0.1,0 0.2,0 0.3,0 0.1,0 0.2,0 0.3,0 0.1,0 0.3,0 0.4,0 0.5,0 0.9,0.1 1.4,0.1 0.2,0 0.5,-0.1 0.7,-0.1 0.6,0 1.2,0.1 1.8,0.1 0.3,0 0.6,-0.1 0.9,-0.1 0.5,0 1,0 1.5,0 0.3,0 0.5,0 0.8,0 1.1,0 2.2,0 3.3,0 0.2,0 0.3,0.1 0.5,0.1 0.2,0 0.5,0 0.7,-0.1 0.3,0 0.8,0.1 1.1,0 0.4,0 0.7,0.2 1,0.4 0.3,0.1 0.7,0.2 0.9,0.4 0,0 0,0 0,0.1 0,0 -0.1,0 -0.1,0 -0.2,0 -0.3,0 -0.5,0 -0.2,0 -0.5,0 -0.6,0 -0.1,0 -0.2,0 -0.2,0 -0.2,0 -0.9,-0.1 -1,0 -0.1,0 -0.3,0 -0.4,0 -0.2,0 -0.5,0 -0.7,0 -0.2,0 -0.4,-0.1 -0.6,0 -0.2,0 -0.5,0 -0.6,0 -0.3,0 -0.6,0 -0.9,0 -0.3,0 -0.8,-0.1 -1.1,0 -0.1,0 -0.1,0 -0.2,0 -0.2,0 -0.5,0 -0.7,0 -0.1,0 -0.2,0 -0.3,0 -0.2,0 -0.5,-0.1 -0.7,0 -0.2,0 -0.5,0 -0.6,0 -0.1,0 -0.3,0 -0.4,0 -0.3,0 -0.7,0 -1,0 -0.1,0 -0.3,0 -0.4,0 -0.4,0 -0.7,0 -1.1,0 -0.1,0 -0.3,0 -0.4,0 -0.3,0 -0.6,0 -0.9,0 -0.4,0 -0.7,0 -1.1,0 -0.1,0 -0.2,0 -0.3,0 -0.3,0 -0.6,0 -0.9,0 -0.1,0 -0.3,0 -0.4,0 -0.1,0 -0.1,0 -0.2,0 -0.1,0 -0.2,0 -0.3,0 -1.2,0 -2.3,-0.1 -3.5,-0.1 -0.2,0 -0.3,0 -0.5,0 -0.1,0 -0.3,-0.1 -0.4,0 -0.2,0 -0.5,0 -0.7,0 -0.5,0 -1,0 -1.5,0 -0.2,0 -0.8,-0.1 -0.9,0 -0.2,0 -0.6,0 -0.7,0 -0.1,0 -0.1,0 -0.2,0 -0.3,0 -0.5,-0.1 -0.8,-0.1 0,-0.1 0.6,-0.3 0.7,-0.3 m -2.7,1.5 v 0 c 0,-0.1 0.2,-0.1 0.2,-0.2 0.1,-0.1 0.3,-0.2 0.4,-0.2 0.1,-0.1 0.3,-0.2 0.4,-0.2 0.4,-0.1 1.1,-0.1 1.5,-0.1 0.4,0 0.9,0 1.3,0 0.3,0 0.7,0 1.1,0 0.1,0 0.3,0 0.4,0 0.7,-0.1 1.5,0 2.2,0 0.3,0 0.7,0 1.1,0 0.5,0 0.9,0.1 1.4,0.1 0.3,0 0.5,0 0.8,0 0.4,0 0.7,-0.1 1.1,-0.1 0.8,0 1.6,0.1 2.3,0.1 0.1,0 0.2,0 0.3,0 0.1,0 0.2,0 0.4,0 0.2,0 0.4,0 0.6,0 0.2,0 0.5,0 0.7,0 0.3,0 0.5,0 0.8,0 0.5,0 1,0.1 1.6,0.1 0.2,0 0.4,-0.1 0.7,-0.1 0.2,0 0.3,0 0.5,0 0.1,0 0.1,0 0.2,0 0.1,0 0.3,0.1 0.4,0.1 0.2,0 0.4,0 0.6,0 0.3,0 0.6,0 0.8,0 0.2,0 0.4,-0.1 0.6,0 0.3,0 0.6,0 0.9,0 0.2,0 0.3,0 0.5,0 0.6,0 1.2,0 1.8,0 0.2,0 0.5,0 0.8,0 0.5,0 1.1,0 1.7,0 0.3,0 0.6,0 0.8,0 0.1,0 0.2,0.1 0.3,0.2 0.2,0.2 0.5,0.3 0.7,0.5 0,0.1 -0.4,0.1 -0.5,0.2 -0.1,0 -0.3,0 -0.4,0 -0.1,0 -0.3,0 -0.4,0 -0.2,0 -0.3,0 -0.5,0 -0.1,0 -0.2,0 -0.3,0 -0.4,0 -0.8,0 -1.1,0 -0.1,0 -0.3,0 -0.4,0 -0.1,0 -0.3,0 -0.4,0 -0.1,0 -0.1,0 -0.2,0 -0.9,0 -1.8,0 -2.7,0 -0.2,0 -0.6,-0.1 -0.8,0 -0.2,0 -0.3,0 -0.5,0 -0.2,0 -0.6,-0.1 -0.8,0 -0.1,0 -0.3,0 -0.4,0 -0.2,0 -0.5,-0.1 -0.7,0 -0.2,0 -0.4,0 -0.5,0 -0.2,0 -0.4,-0.1 -0.5,0 -0.1,0 -0.1,0 -0.2,0 -0.4,0 -0.8,0 -1.2,0 -0.2,0 -0.4,0 -0.5,0 -0.2,0 -0.7,-0.1 -0.9,0 -0.1,0 -0.2,0 -0.3,0 -0.2,0 -0.4,-0.1 -0.6,0 -0.1,0 -0.3,0 -0.4,0 -0.6,0 -1.2,0 -1.8,0 -0.3,0 -0.8,-0.1 -1.1,0 -0.1,0 -0.1,0 -0.2,0 -0.2,0 -0.5,0 -0.7,-0.1 -0.6,0 -1.1,0 -1.7,0 -0.2,0 -0.3,-0.1 -0.5,-0.1 -0.4,0 -0.8,0 -1.1,0 -0.1,0 -0.2,0 -0.3,0 -0.6,0 -1.1,0 -1.7,0 -0.3,0 -0.6,0 -0.9,0 -0.2,0 -0.6,-0.1 -0.8,0 -0.1,0 -0.2,0 -0.3,0 -0.1,0 -0.2,0 -0.3,0 -0.3,0 -0.5,0 -0.8,0 -0.1,0 -0.2,0 -0.4,0 -0.1,0 -0.2,0 -0.3,0 -0.3,0 -0.6,0 -1,-0.1 -0.3,0 -0.6,0 -0.8,-0.1 v 0 c 0,0 0,0.1 0,0 M 22,14.9 c 0,0 0.2,-0.1 0.2,-0.2 0.3,-0.2 0.5,-0.3 0.8,-0.5 0.2,-0.1 0.4,-0.1 0.6,-0.1 0.2,0 0.5,0 0.7,0.1 0.5,0 0.9,0 1.4,0 0.2,0 0.5,0 0.7,0 0.2,0 0.5,0 0.7,0 0.2,0 0.4,0 0.6,0 0.3,0 0.6,0.1 1,0.1 0.5,0 1,-0.1 1.4,0 0.1,0 0.3,0 0.4,0 0.4,0 0.8,0 1.1,0 0.7,0 1.4,0 2.1,0 0.5,0 1,0 1.6,0 0.4,0 0.7,0 1.1,0 0.1,0 0.3,0 0.4,0 0.3,0 0.6,0.1 0.9,0.1 0.4,0 0.8,-0.1 1.2,-0.1 0.3,0 0.6,0 1,0.1 0.3,0 0.7,0 1,0 0.2,0 0.3,0 0.4,0 0.1,0 0.2,0 0.4,0 0.3,0 0.6,0 0.9,0 0.5,0 1,0 1.5,0 0.3,0 0.6,0 0.9,-0.1 0.7,0 1.4,0 2.1,0 0.1,0 0.3,0 0.4,0 0.7,0 1.5,0 2.2,0 0.3,0 0.7,-0.1 1,0 0.4,0 0.7,0.1 1.1,0.1 0.3,0 0.7,-0.1 1,-0.1 0.2,0 0.4,0 0.6,-0.1 0.3,0 0.6,0 0.8,0.1 0.1,0 0.2,0.2 0.3,0.2 0.1,0 0.1,0.1 0.2,0.1 0.2,0.1 0.3,0.3 0.5,0.4 0,0 -0.1,0.1 -0.1,0.1 -0.2,0 -0.4,0 -0.6,0 -0.2,0 -0.4,-0.1 -0.6,0 -0.1,0 -0.1,0 -0.2,0 -0.4,0 -0.9,0 -1.3,0 -0.4,0 -0.8,0 -1.2,0 -0.1,0 -0.3,0 -0.4,0 -0.1,0 -0.2,0 -0.3,0 -0.2,0 -0.5,0 -0.6,0 -0.2,0 -0.6,0 -0.7,0 -0.2,0 -0.4,0 -0.6,0 -0.2,0 -0.3,-0.1 -0.5,0 -0.5,0 -1,0 -1.5,0 -0.2,0 -0.4,0 -0.5,0 -0.1,0 -0.2,0 -0.3,0 -0.4,0 -0.7,0 -1.1,0 -0.1,0 -0.3,0 -0.4,0 -0.4,0 -1,-0.1 -1.3,0 -0.2,0 -0.5,0 -0.7,0 -0.6,0 -1.2,0 -1.8,0 -0.2,0 -0.6,-0.1 -0.8,0 -0.1,0 -0.2,0 -0.3,0 -0.3,0 -0.6,0 -0.9,0 -0.8,0 -1.7,0 -2.5,0 -0.4,0 -0.9,0 -1.3,0 -0.1,0 -0.3,0 -0.4,0 -0.1,0 -0.3,0 -0.4,0 -0.3,0 -0.5,0 -0.8,0 -0.1,0 -0.2,0 -0.2,0 -0.3,0 -0.5,0 -0.8,0 -0.1,0 -0.3,0 -0.4,0 -0.4,0 -0.8,0 -1.2,0 -0.1,0 -0.3,-0.1 -0.4,0 -0.5,0 -1.1,0 -1.7,0 -0.1,0 -0.3,-0.1 -0.4,0 -0.1,0 -0.2,0 -0.3,0 -0.7,0 -1.4,0 -2.1,0 -0.3,0 -1,-0.1 -1.2,0 -0.1,0 -0.1,0 -0.2,0 -0.3,0 -0.7,0 -1.1,0 C 22.8,15 22.4,15 22,14.9 Z m -1.7,1.2 c 0.1,0 0.1,-0.1 0.2,-0.1 0.2,-0.1 0.7,-0.6 0.9,-0.6 0.4,0 0.8,0 1.2,0 0.2,0 0.5,0 0.7,0 0.3,0 0.5,0 0.7,0 0.4,0 0.8,0 1.2,0 0.8,0 1.5,0.1 2.2,0.1 0.2,0 0.3,0 0.5,0 0.4,0 0.8,0 1.2,0 0.2,0 0.4,0 0.6,0.1 0.2,0 0.4,0 0.7,0 0.2,0 0.5,0 0.7,0 0.6,0 1.1,-0.1 1.7,-0.1 0.3,0 0.5,0 0.8,0 0.1,0 0.3,0 0.4,0 0.3,0 0.6,0 0.8,0 0.4,0 0.9,0.1 1.3,0.1 0.2,0 0.4,0 0.7,0 0.3,0 0.6,0 0.8,0 0.1,0 0.3,0 0.4,0 0.1,0 0.2,0 0.3,0 0.1,0 0.2,0 0.4,0 0.3,0 0.7,0 1,0 0.1,0 0.2,0 0.3,0 0.2,0 0.4,0 0.6,0.1 0.3,0 0.5,0 0.8,0 0.2,0 0.3,0 0.5,0 H 43 c 0.2,0 0.4,0 0.6,0 0.4,0 0.7,0 1.1,0 0.2,0 0.3,0 0.5,0 0.1,0 0.3,0 0.4,0 0.2,0 0.5,0 0.7,0 0.5,0 1,0.1 1.5,0.1 0.9,0 1.7,-0.1 2.6,-0.1 0.3,0 0.6,0 0.8,0 0.2,0 0.3,0 0.5,0 0.4,0 0.9,0 1.3,0 0.3,0 0.6,0 0.9,0.1 0.2,0 0.4,0 0.5,-0.1 0.2,0 0.4,0 0.5,0 0.3,0 0.6,0 1,0.1 0.1,0 0.8,0.5 0.8,0.7 0,0 -0.1,0 -0.1,0 -0.2,0 -0.4,0 -0.6,0 -0.4,0 -0.9,-0.1 -1.2,0.1 -0.1,0 -0.1,0 -0.2,0 -0.1,0 -0.3,0 -0.4,0 -0.3,0 -0.8,-0.1 -1,0 -0.2,0 -0.4,0 -0.6,-0.1 -0.4,0 -0.8,0 -1.2,0 -0.2,0 -0.6,-0.1 -0.8,0 -0.8,0 -1.6,0 -2.4,0 -0.3,0 -0.7,0 -1.1,0 -0.1,0 -0.3,0 -0.4,0 -0.3,0 -0.6,0 -0.9,0 -0.2,0 -0.4,-0.1 -0.5,0 -0.3,0 -0.6,0 -0.8,0 -0.1,0 -0.3,0 -0.3,0 -0.1,0 -0.1,0 -0.2,0 -0.3,0 -0.7,0 -1,0 -0.1,0 -0.3,0 -0.4,0 -0.2,0 -0.9,-0.1 -1,0 -0.2,0 -0.7,-0.1 -0.8,0 -0.1,0 -0.1,0 -0.2,0 -0.3,0 -0.6,-0.1 -1,-0.1 -0.1,0 -0.2,0 -0.3,0 -0.3,0 -0.7,-0.1 -1,0 -0.1,0 -0.1,0 -0.2,0 -0.2,0 -0.6,-0.2 -0.8,-0.1 -0.3,0 -0.6,0 -1,0 -0.1,0 -0.2,0 -0.3,0 -0.2,0 -0.6,-0.1 -0.8,0 -0.1,0 -0.1,0 -0.2,0 -0.4,0 -0.8,0 -1.2,0 -0.1,0 -0.3,0 -0.4,0 -0.2,0 -0.5,0 -0.7,0 -0.1,0 -0.3,0 -0.4,0 -0.1,0 -0.2,0 -0.3,0 -0.1,0 -0.3,0 -0.4,0.1 -0.2,0 -0.3,0 -0.4,0 -0.2,0 -0.6,-0.2 -0.8,-0.1 -0.3,0 -0.7,0 -1,0 -0.1,0 -0.2,0 -0.3,0 -0.1,0 -0.2,0 -0.3,0 -0.1,0 -0.2,0 -0.2,0 -0.5,0 -0.9,0 -1.3,-0.1 -0.1,0 -0.2,0 -0.3,0 -0.4,0 -0.9,0 -1.3,0 -0.2,0 -0.6,-0.1 -0.8,0 -0.1,0 -0.3,0 -0.4,0 -0.1,0 -0.4,-0.1 -0.5,0 -0.1,0 -0.1,0 -0.2,0 -0.4,0 -0.8,0 -1.2,0 -0.1,0 -0.3,0 -0.4,0 -0.8,-0.1 -1.3,-0.1 -1.9,-0.1 z m 47,22 c 0,0.1 -0.1,0.1 -0.2,0.1 -0.1,0 -0.3,0 -0.4,0 -0.2,0 -0.5,-0.1 -0.6,0 -0.8,0 -1.6,0 -2.4,0 -0.2,0 -0.6,-0.1 -0.7,0 -0.2,0 -0.7,-0.1 -0.8,0 -0.2,0 -0.4,-0.1 -0.6,0 -0.3,0 -0.6,0 -0.9,0 -0.4,0 -0.9,0 -1.3,0 0,0.1 0,0.2 0,0.4 0.1,0 0.1,0 0.2,0 0.3,0 0.5,0 0.7,0 0.1,0 0.3,0 0.5,0 0.3,0 0.5,0 0.8,0 0.9,0 1.8,0 2.8,0 0.4,0 0.8,0 1.3,0 0.2,0 0.5,0 0.7,0 0.2,0 0.3,0 0.5,0 0.1,0 0.2,0 0.3,0 0,0 0,0 0,0 0.1,0 0,0.7 0,0.8 -0.1,0 -0.2,0 -0.4,0 -0.2,0 -0.7,-0.1 -0.8,0 -0.2,0 -0.4,0 -0.5,0 -0.2,0 -0.5,0 -0.7,0 -0.4,0 -0.9,0 -1.3,0 -0.1,0 -0.3,0 -0.3,0 -0.5,0 -1,0 -1.5,0 -0.2,0 -0.5,-0.1 -0.7,0 -0.2,0 -0.5,0 -0.7,0 -0.1,0 -0.3,-0.1 -0.5,0 -0.1,0 -0.2,0 -0.3,0 0,0 0,0 0,-0.1 v 0.5 c 0,0 0,0 0.1,0 0.2,0 0.4,0 0.6,0 0.2,0 0.4,0 0.6,0 0.4,0 0.7,0 1.1,0 0.2,0 0.3,0 0.5,0 0.3,0 0.5,0 0.8,0 0.1,0 0.2,0 0.3,0 0.2,0 0.3,0 0.5,0 0.1,0 0.2,0 0.3,0 0.1,0 0.2,0 0.3,0 0.2,0 0.5,0 0.6,0 0.3,0 0.5,0 0.8,0 0.2,0 1.1,-0.1 1.3,0.1 0.1,0.1 0,0.7 0,0.8 0,0 -0.2,0 -0.3,0.1 -0.1,0 -0.1,0 -0.2,0 -0.4,0 -0.8,0 -1.2,0 -0.1,0 -0.3,0 -0.4,0 -0.4,0 -0.8,0 -1.2,0 -0.1,0 -0.2,0 -0.3,0 -0.1,0 -0.2,0 -0.3,0 -0.1,0 -0.3,0 -0.4,0 -0.3,0 -0.5,0 -0.8,0 -0.1,0 -0.3,-0.1 -0.5,0 -0.7,0 -1.3,0 -2,0 h -0.2 v 0.4 c 0,0 0.2,0 0.2,0 0.5,0 0.9,0 1.4,0 0.2,0 0.4,0 0.5,0 0.8,0 1.5,0.1 2.3,0.1 0.3,0 0.6,0 0.9,0 0.6,0 1.3,0 1.9,0 0.1,0 0.2,0 0.4,0 0,0.2 0,0.6 -0.1,0.7 -0.1,0 -0.2,0 -0.2,0.1 -0.2,0 -0.6,-0.1 -0.7,0 -0.1,0 -0.2,0 -0.3,0 -0.1,0 -0.1,0 -0.2,0 -0.7,0 -1.5,-0.1 -2.2,-0.1 -0.2,0 -0.5,-0.1 -0.7,0 -0.2,0 -0.6,-0.1 -0.7,0 -0.6,0 -1.2,0 -1.8,0 -0.2,0 -0.4,0 -0.6,0 0,0.1 0,0.3 0,0.4 0.1,-0.1 0.5,0 0.7,0 0.5,0 1.1,0 1.6,0 0.3,0 0.8,0 1.1,-0.1 0.4,0 0.7,0 1.1,0.1 0.3,0 0.7,0 1,0 0.3,0 0.7,0 1,0 0.3,0 0.7,-0.1 1,0 0.2,0 0.1,0.6 0,0.7 -0.1,0.1 -0.2,0.1 -0.2,0.1 -0.1,0 -0.2,0 -0.2,0 -0.5,0 -1,0 -1.5,0 -0.2,0 -0.5,-0.1 -0.7,0 -0.2,0 -0.6,0 -0.7,0 -0.6,0 -1.1,0 -1.7,0 -0.2,0 -0.3,0 -0.5,0 -0.1,0 -0.3,0 -0.4,0 -0.5,0 -1,0 -1.5,-0.1 0,0.2 0,0.3 0,0.4 0.1,0 0.1,0 0.1,0 0.4,0 0.8,0 1.1,0 0.2,0 0.4,0 0.5,0 0.1,0 0.2,0 0.4,0 0.2,0 0.4,0 0.6,0 0.3,0 1,0.1 1.2,0 0.1,0 0.2,0 0.4,0 0.2,0 0.5,0 0.7,0 0.5,0 0.9,0 1.4,0 0.2,0 0.7,0 0.8,0.1 0.1,0 0,0.6 0,0.7 0,0 -0.1,0 -0.1,0.1 -0.2,0 -1,-0.1 -1.1,0 -0.2,0 -0.5,0 -0.6,0 -0.3,0 -0.5,0 -0.8,0 -0.1,0 -0.3,0 -0.4,0 -0.1,0 -0.3,0 -0.4,0.1 -0.2,0 -0.3,0 -0.5,-0.1 -0.3,0 -0.5,0 -0.8,0 -0.1,0 -0.3,0 -0.4,0 -0.1,0 -0.3,0 -0.4,-0.1 -0.4,0 -0.9,0 -1.3,0 -0.1,0 -0.2,0 -0.3,0 v 0.4 c 0.3,0 0.5,0 0.8,0 0.2,0 0.3,0 0.5,0 0.5,0 1.1,0 1.6,0 0.4,0 1,0.1 1.4,0 0.3,0 0.5,0 0.8,0 0.1,0 0.3,0 0.4,0 0.1,0 0.2,0 0.4,0 0.5,0 0.9,0 1.4,0 0,0.2 0,0.4 -0.1,0.5 0,0.1 -0.1,0.2 -0.1,0.3 -0.2,0 -0.5,0 -0.7,0 -0.2,0 -0.4,0 -0.6,0 -0.3,0 -0.5,0 -0.8,0 -0.2,0 -0.4,0 -0.6,0 -0.2,0 -0.5,-0.1 -0.7,0 -0.1,0 -0.3,0 -0.3,0 -0.3,0 -0.6,0 -0.8,-0.1 -0.8,0 -1.6,-0.1 -2.4,-0.1 0,0.1 0,0.3 0,0.4 0.1,0 0.2,0 0.2,0 0.1,0 0.2,0 0.3,0 0.3,0 0.7,0 1,0 0.3,0 0.6,0 0.9,0 0.3,0 0.5,0 0.8,0 0.5,0 1,0.1 1.4,0.1 0.3,0 0.6,-0.1 0.9,-0.1 0.2,0 1.2,-0.1 1.3,0.1 0.1,0.1 0,0.2 0,0.3 0,0.2 -0.1,0.4 -0.2,0.5 -0.5,0 -1.1,-0.1 -1.6,0 -0.1,0 -0.2,0 -0.3,0 -0.2,0 -1,-0.1 -1.1,0 -0.2,0 -0.5,0 -0.7,0 -0.2,0 -0.4,-0.1 -0.6,0 -0.2,0 -0.5,-0.1 -0.7,0 -0.6,0 -1.1,-0.1 -1.7,-0.1 0,0.1 0,0.2 0,0.4 0.4,0 0.7,0 1.1,0 0.3,0 0.7,0.1 1.1,0.1 0.6,0 1.2,0 1.8,0 0.2,0 0.3,0 0.5,0 0.1,0 0.2,0 0.3,0 0.1,0 0.2,0 0.3,0 0.3,0 1.3,0 1.4,0.1 0.1,0.1 0,0.2 0,0.3 0,0.1 -0.1,0.2 -0.2,0.3 -0.1,0 -0.3,0 -0.4,0 -0.1,0 -0.3,0 -0.3,0 -0.1,0 -0.1,0 -0.2,0 -0.2,0 -0.7,-0.1 -0.8,0 -0.1,0 -0.2,0 -0.3,0 -0.3,0 -0.7,0 -1.1,0 -0.1,0 -0.3,0 -0.4,0 -0.2,0 -0.4,-0.1 -0.6,0 -0.2,0 -1.8,0 -2.2,-0.1 v 0.5 c 0.2,0 0.3,-0.1 0.5,-0.1 0.7,0 1.3,0 2,0 0.2,0 0.3,0 0.5,0 0.3,0 0.7,0 1,0 0.1,0 0.3,0 0.5,0 0.3,0 0.5,0 0.8,0 0.1,0 0.2,0 0.3,0 0.2,0 0.4,0 0.6,0.1 0,0.1 -0.2,0.6 -0.3,0.7 -0.1,0 -0.2,0.1 -0.3,0.1 -0.3,0 -0.6,0 -0.8,0 -0.1,0 -0.3,0 -0.4,0 -0.1,0 -0.3,0 -0.3,0 -0.1,0 -0.1,0 -0.2,0 -0.3,0 -0.5,0 -0.8,0 -0.1,0 -0.3,-0.1 -0.4,0 -0.1,0 -0.2,0 -0.2,0 -0.3,0 -0.5,0 -0.8,0 -0.2,0 -0.5,-0.1 -0.7,0 -0.1,0 -0.2,0 -0.3,0 -0.1,0 -0.6,0 -0.7,-0.1 0,0.2 0,0.4 0,0.5 0,0 0,0 0,0 0.1,-0.1 0.9,-0.1 1.1,-0.1 0.1,0 0.3,0 0.4,0 0.3,0 0.6,0 1,0 0.2,0 0.4,0 0.6,0 0.2,0 0.3,0 0.5,0 0.3,0 0.6,0 0.9,0 0.2,0 0.8,-0.1 1.1,0 0,0 0,0 0,0 0.1,0.1 -0.1,0.4 -0.1,0.4 -0.1,0.1 -0.1,0.3 -0.3,0.3 -0.1,0 -0.2,0 -0.2,0 -0.2,0 -0.3,0 -0.5,-0.1 -0.3,0 -0.7,0 -1,0 -0.1,0 -0.2,0 -0.3,0 -0.2,0 -0.6,-0.1 -0.8,0 -0.1,0 -0.1,0 -0.2,0 -0.2,0 -0.4,0 -0.5,0 -0.1,0 -0.3,0 -0.4,0 -0.4,0 -0.9,0 -1.3,0 0,0.2 0,0.3 0,0.5 0.2,0 0.3,-0.1 0.4,-0.1 0.3,0 0.6,0 0.9,0 0.1,0 0.2,0 0.4,0 0.6,0 1.2,0 1.8,0 0.3,0 0.6,0 0.8,0 0.2,0 0.3,0 0.5,0 0.1,0 0.2,0 0.3,0.1 0.1,0.1 -0.1,0.6 -0.2,0.6 -0.1,0.1 -0.1,0.1 -0.2,0.2 -0.2,0 -0.4,0 -0.6,0 -0.2,0 -0.6,-0.1 -0.8,0 -0.2,0 -0.6,0 -0.7,0 -0.2,0 -0.4,0 -0.6,0 -0.2,0 -0.4,-0.1 -0.6,0 -0.5,0 -1,0 -1.4,0 0,0.1 0,0.2 0,0.4 0.2,0 0.3,0 0.4,0 0.2,0 0.4,0 0.6,0 0.2,0 0.4,0 0.6,-0.1 0.3,0 0.6,0 0.9,0.1 0.2,0 0.5,0 0.7,0 0.3,0 0.6,0.1 0.9,0 0.2,0 0.4,0.1 0.6,0.1 0,0.2 -0.3,0.7 -0.5,0.8 -0.2,0 -0.4,0 -0.6,0 -0.3,0 -1,-0.1 -1.2,0 -0.5,0 -1,0 -1.5,0 -0.2,0 -0.5,0 -0.7,-0.1 0,0.1 0,0.3 0,0.4 0,0 0,0 0,0 0.2,0 0.6,0 0.7,0 0.1,0 0.3,0 0.4,0 0.4,0 0.7,0.1 1.1,0.1 0.4,0 0.8,0 1.1,0 0.2,0 0.4,0 0.5,0.1 0,0 0,0 0,0 0,0 -0.4,0.8 -0.7,0.8 -0.3,0 -0.9,0 -1.2,-0.1 -0.5,0 -0.9,0 -1.4,-0.1 -0.1,0 -0.5,0 -0.7,0 v 0.4 c 0.8,0 1.7,0 2.4,0.1 0.2,0 0.4,0 0.7,0.1 v 0.1 c -0.1,0 -0.1,0.1 -0.1,0.1 -0.5,0.3 -0.7,0.7 -0.9,0.7 -0.1,0 -0.2,0 -0.2,0.1 -0.2,0 -0.6,-0.1 -0.7,-0.1 -0.2,0 -0.6,-0.1 -0.8,0 -0.1,0 -0.6,0 -0.8,0 0,0.1 0,0.3 0,0.4 0.4,0 0.8,0 1.2,0 0.2,0 0.3,0 0.5,0 0.2,0 0.5,0 0.7,0 0,0.2 -0.4,0.7 -0.6,0.7 -0.1,0 -0.2,0 -0.4,0 -0.5,0 -0.9,0 -1.4,0 0,0.1 0,0.3 0,0.4 0.1,0 0.2,0 0.3,0 0.2,0 1.1,0 1.1,0.1 0.1,0.2 -0.4,0.6 -0.5,0.7 -0.2,0 -0.7,0 -0.9,0 0,0.2 -0.1,0.3 -0.1,0.4 0.2,0 0.5,0 0.7,0 v 0 0 c 0,0.2 -0.8,0.9 -1,1 0,0 -0.1,0 -0.1,0 -0.4,0.6 -0.9,1.1 -1.7,1.7 -0.6,0.5 -1.3,0.9 -2,1.2 0,0 0,0 0.1,0 0.4,0 -0.5,0.6 -0.6,0.6 -0.3,0 -0.7,0 -0.9,0 h -0.1 v 0 c -0.6,0.2 -1.3,0.4 -2,0.5 0.2,0 0.4,0 0.5,0 0.2,0 0.4,0 0.6,0 0.1,0 0.2,0 0.3,0 0.1,0 0.3,0 0.4,0 H 54 c 0,0 0,0 0,0.1 0,0 0,0 0,0 -0.2,0.2 -0.4,0.3 -0.6,0.4 -0.1,0.1 -0.2,0.2 -0.4,0.3 -0.1,0 -0.2,0.1 -0.4,0.1 -0.1,0 -0.2,0 -0.3,0 -0.7,0 -1.3,0 -2,0 -0.2,0 -0.7,-0.1 -0.9,0 -0.3,0 -0.6,-0.1 -0.8,0 -0.2,0 -0.5,0 -0.6,0 -0.4,0 -0.7,-0.1 -1.1,-0.1 -0.1,0 -0.2,0 -0.2,0 -0.3,0 -1.1,0 -1.7,0 -0.2,0 -0.5,0.1 -0.7,0.1 -0.7,0.1 -1.2,0.2 -1.7,0.4 0.5,0 1.3,0 1.7,0 0.4,0 0.8,0 1.2,0 1,0 2,0 2.9,0 0.3,0 0.7,0 1,0 0.2,0 0.3,0 0.5,-0.1 0.7,0 1.5,0 2.2,0 v 0 0 0 c -0.1,0 -0.3,0.2 -0.4,0.2 -0.3,0.1 -0.6,0.3 -0.9,0.4 -0.2,0.1 -0.4,0.2 -0.6,0.2 -0.4,0.1 -0.8,0 -1.2,0 -0.2,0 -0.3,0 -0.4,0 -0.2,0 -0.4,0 -0.5,0 -0.2,0 -0.4,0 -0.6,0 -0.2,0 -0.5,-0.1 -0.7,0 -0.4,0 -0.8,0 -1.2,0 -0.2,0 -0.5,0 -0.6,0 -0.1,0 -0.3,0 -0.4,0 -0.2,0 -0.5,0 -0.7,0 -0.2,0 -0.8,-0.1 -1,0 -0.5,0 -1.3,-0.1 -1.9,-0.1 -0.2,0.2 -0.4,0.3 -0.5,0.5 0.3,0 0.7,0 0.8,0 0.7,-0.1 1.5,0 2.3,0 0.4,0 0.8,0 1.2,0 0.3,0 0.5,0 0.7,0 0.1,0 0.3,0 0.4,0 0.2,0.1 0.7,0 0.9,0 0.4,0 0.8,0.1 1.1,0.1 0.2,0 0.4,0 0.5,-0.1 0.2,0 0.5,0 0.7,0 v 0 0 c 0,0 -0.1,0 -0.1,0 -0.3,0.1 -0.5,0.2 -0.8,0.3 -0.1,0.1 -0.3,0.1 -0.4,0.2 -0.2,0.1 -0.4,0.1 -0.6,0.2 -0.2,0 -0.6,0 -0.8,0 -0.2,0 -0.3,0 -0.5,0 -0.1,0 -0.3,0 -0.4,0 -0.1,0 -0.3,0 -0.4,0 -0.1,0 -0.1,0 -0.2,0 -0.3,0 -0.5,0 -0.7,0 -0.1,0 -0.4,-0.1 -0.5,0 -0.1,0 -0.3,0 -0.4,0 -0.2,0 -0.4,0 -0.6,0 -0.1,0 -0.2,0 -0.3,0 -0.1,0 -0.3,0 -0.4,0 -0.1,0 -0.1,0 -0.2,0 -0.2,0 -0.8,-0.1 -1,0 -0.1,0 -0.3,0 -0.4,0 -0.2,0 -0.5,0 -0.8,0 -0.1,0.1 -0.1,0.3 -0.2,0.4 0.6,-0.1 1.4,0 1.9,0 0.5,0 1,0 1.5,-0.1 0.2,0 0.4,0 0.6,-0.1 0.4,0 0.8,0 1.1,0 0.4,0 0.7,0 1.1,0 v 0 c -0.3,0 -0.6,0.2 -0.9,0.2 -0.2,0 -0.4,0 -0.6,0.1 -0.3,0 -0.6,0.1 -0.9,0.2 -0.1,0 -0.1,0 -0.2,0 -0.2,0 -0.3,0 -0.5,0.1 -0.1,0 -0.5,0.1 -0.6,0.1 -0.2,0 -0.3,0 -0.5,0 -0.2,0 -0.6,0 -0.7,0 -0.1,0 -0.1,0 -0.2,0 -0.4,0 -0.8,0 -1.2,0 -0.6,0 -1.2,0.1 -2,0 0,0 0,0 0,0 0,0 -0.1,0 -0.2,0 -0.3,-0.1 -0.7,-0.1 -1,-0.2 -0.2,0 -0.3,0 -0.5,0 -0.2,0 -0.4,-0.1 -0.7,-0.1 -0.2,0 -0.4,0 -0.6,0 -1.1,-0.2 -2.3,-0.3 -3.3,-0.6 -0.2,0 -0.6,-0.1 -0.7,-0.2 0.5,0.1 1.1,0.1 1.6,0.1 0.5,0 0.9,0.1 1.4,0.1 0.1,0 0.3,0 0.4,0 0.1,0 0.3,0 0.4,0 0.2,0 0.4,0 0.6,0 0.1,0 0.3,0 0.4,0 0.2,0 0.3,0.1 0.5,0.1 0.3,0 1,0 1.4,0 -0.1,-0.2 -0.2,-0.3 -0.3,-0.5 -0.2,0 -0.6,0 -0.7,0 -0.2,0 -0.4,-0.1 -0.6,0 -0.4,0 -0.9,0 -1.3,0 -0.2,0 -0.3,-0.1 -0.5,0 -0.4,0 -0.8,-0.1 -1.3,-0.1 -0.6,0 -1.2,0 -1.8,0 -0.2,0 -0.4,-0.1 -0.6,-0.1 -0.1,0 -0.3,0 -0.4,0 -0.2,0 -0.4,-0.1 -0.5,-0.1 C 28.9,65 28.8,65 28.6,65 28.4,65 28.2,64.9 28,64.9 c -0.2,0 -0.4,-0.1 -0.6,-0.2 -0.1,0 -0.2,-0.1 -0.3,-0.1 v 0 0 c 0.1,0 0.2,0 0.3,0 0.4,0 0.8,0 1.2,0 0.3,0 0.6,0 0.9,-0.1 0.4,0 0.8,0 1.2,0 0.2,0 0.3,0 0.5,0.1 0.3,0 0.6,-0.1 0.9,-0.1 0.4,0 0.9,0.1 1.3,0.1 0.5,0 1,0 1.5,0 0.2,0 0.6,0 0.9,0 -0.1,-0.1 -0.3,-0.2 -0.5,-0.4 -0.2,0 -0.4,0 -0.4,0 -0.1,0 -0.2,0 -0.3,0 -0.3,0 -0.6,0 -0.9,-0.1 -0.1,0 -0.2,0 -0.3,0 -0.1,0 -0.3,-0.1 -0.5,0 -0.3,0 -0.7,0 -1,0 -0.1,0 -0.3,0 -0.4,0 -0.3,0 -0.7,0 -1,0 -0.2,0 -0.5,-0.1 -0.7,-0.1 -0.2,0 -0.4,0 -0.5,0.1 -0.2,0 -0.5,0 -0.7,0 -0.7,0 -1.5,0 -2.1,-0.1 -0.3,0 -0.6,0 -0.8,-0.1 -0.4,-0.1 -0.8,-0.5 -1.2,-0.7 v -0.1 c 0.4,0 0.8,0 1.3,0 0.2,0 0.5,0.1 0.7,0.1 0.3,0 0.6,0 0.9,0 0.2,0 0.5,0 0.7,0 0.1,0 0.3,0 0.4,0 0.2,0 0.4,0 0.7,0 0.7,0 1.4,0 2.1,0 0.5,0 1.1,0 1.6,0 0.1,0 0.2,0 0.2,0 0.1,0 0.2,0 0.4,0 -0.4,-0.2 -0.9,-0.3 -1.4,-0.4 -0.1,0 -0.2,0 -0.2,0 -0.4,0 -0.7,0 -1.1,0 -0.1,0 -0.3,0 -0.4,0 -0.1,0 -0.2,0 -0.3,0 -0.4,0 -0.7,0 -1.1,0 -0.2,0 -0.5,0 -0.7,0 -0.2,0 -0.4,0 -0.6,0 -0.4,0 -0.9,0 -1.4,0 -0.1,0 -0.4,0 -0.5,0 -0.2,0 -0.5,0 -0.7,0 -0.2,0 -0.3,-0.1 -0.5,-0.1 -0.3,0 -0.7,0 -1,-0.1 -0.3,-0.1 -0.5,-0.3 -0.7,-0.4 -0.1,-0.1 -0.3,-0.1 -0.3,-0.3 0.6,0 1.3,0 1.9,0.1 0.4,0 0.9,0 1.3,0 0.2,0 0.4,0 0.6,0 -1.1,-0.1 -2,-0.3 -2.8,-0.4 -0.1,0 -0.3,0 -0.4,0 -0.2,0 -0.4,0 -0.5,0 -0.1,0 -0.1,0 -0.2,0 -0.4,0 -0.7,-0.1 -0.9,-0.3 -0.1,-0.1 -0.1,-0.1 -0.2,-0.2 0.1,0 0.2,0 0.3,0 -1.2,-0.4 -2.1,-1 -2.9,-1.7 -0.5,-0.5 -0.9,-1.1 -1.2,-1.8 -0.1,0 -0.2,0 -0.2,0 -0.2,0 -0.7,-0.6 -0.8,-0.8 v 0 0 c 0,0 0.2,0 0.2,-0.1 0.1,0 0.3,0 0.5,0 0,-0.1 0,-0.2 -0.1,-0.3 -0.3,0 -0.8,0 -1,0 -0.1,0 -0.7,-0.6 -0.7,-0.7 0,-0.1 0,-0.1 0,-0.1 0.2,0 0.3,0 0.5,0 0.2,0 0.7,0 1,0 0,-0.1 0,-0.2 0,-0.4 -0.1,0 -0.1,0 -0.2,0 -0.1,0 -0.2,0 -0.3,0 -0.1,0 -0.5,-0.1 -0.6,0 -0.1,0 -0.1,0 -0.2,0 -0.2,0 -0.5,0 -0.7,0 -0.2,-0.1 -0.6,-0.6 -0.6,-0.8 v 0 0 c 0.1,0 0.1,0 0.2,0 0.2,0 0.3,0 0.5,0 0.2,0 0.5,0 0.7,-0.1 0.2,0 0.7,0 1,0 v -0.4 c -0.2,0 -0.3,0 -0.3,0 -0.1,0 -0.2,0 -0.4,0 -0.1,0 -0.3,0 -0.4,0 -0.2,0 -0.3,0 -0.5,0 -0.1,0 -0.2,0 -0.3,0 -0.1,0 -0.2,0 -0.3,0.1 -0.2,0 -0.4,0 -0.5,-0.1 -0.1,0 -0.5,-0.6 -0.4,-0.7 0.1,-0.1 0.7,-0.1 0.8,-0.1 0.7,0 1.6,0 2.3,0 0,-0.1 0,-0.3 0,-0.4 -0.3,0 -0.7,0 -0.9,0 -0.1,0 -0.3,0 -0.3,0 -0.2,0 -0.5,-0.1 -0.6,0 -0.2,0 -0.7,-0.1 -0.9,0 -0.1,0 -0.3,0 -0.4,0 -0.1,0 -0.2,0 -0.3,-0.1 -0.1,-0.1 -0.1,-0.2 -0.2,-0.3 -0.1,-0.2 -0.3,-0.4 -0.3,-0.7 0.2,0 0.4,0.1 0.7,0.1 0.2,0 0.4,0 0.6,0 0.3,0 0.7,0 1,0 0.2,0 0.3,0 0.5,0 0.3,0 0.7,0.1 1,0 0,0 0.1,0 0.3,0 0,-0.1 0,-0.3 0,-0.4 -0.3,0 -0.7,0 -0.8,0 -0.1,0 -0.2,0 -0.3,0 -0.4,0 -0.8,0 -1.2,0 -0.1,0 -0.2,0 -0.4,0 -0.2,0 -0.4,0 -0.6,0 -0.1,0 -0.3,0 -0.3,0 -0.1,0 -0.3,0 -0.4,0 -0.1,0 -0.2,0 -0.3,-0.1 -0.2,-0.1 -0.4,-0.6 -0.5,-0.8 0,0 0.1,0 0.1,-0.1 0.4,0 0.7,0.1 1.1,0.1 0.1,0 0.2,0 0.3,0 0.1,0 0.2,0 0.3,0 0.2,0 0.4,0 0.6,0 0.2,0 0.4,-0.1 0.7,0 0.2,0 0.3,0.1 0.5,0.1 0.2,0 0.7,-0.1 1,0 0,-0.1 0,-0.3 0,-0.4 -0.1,0 -0.2,0 -0.2,0 -1,0 -2,0 -3,0 -0.1,0 -0.3,0 -0.4,0 -0.2,0 -0.4,0 -0.6,0 -0.1,0 -0.2,0 -0.3,0 -0.1,0 -0.3,0 -0.4,-0.1 -0.2,-0.1 -0.3,-0.5 -0.3,-0.7 v 0 0 c 0.2,0 0.4,0 0.6,0 0.2,0 0.3,0 0.5,0 0.3,0 0.6,0 0.9,0 0.1,0 0.2,0 0.4,0 0.1,0 0.3,0 0.4,0 0.3,0 0.7,0 1,0.1 0.1,0 0.3,0 0.5,0 0.3,0 0.6,0.1 1,0.1 0,-0.2 0,-0.3 0,-0.5 -0.1,0 -0.1,0 -0.1,0 -0.3,0 -0.7,0 -1,0 -0.3,0 -0.7,0 -1,0 -0.2,0 -0.3,0 -0.5,-0.1 -0.3,0 -0.6,0 -0.9,0 -0.2,0 -0.5,-0.1 -0.6,0 -0.4,0 -0.8,0 -1.2,0 0,-0.1 -0.1,-0.1 -0.1,-0.2 -0.1,-0.1 -0.2,-0.4 -0.1,-0.5 0,0 0.1,-0.1 0.1,-0.1 0.3,0 0.6,0 0.9,0 0.2,0 0.4,0 0.6,0 0.1,0 0.2,0 0.4,0 0.1,0 0.2,0 0.3,0 0.3,0 0.5,0 0.8,0 0.4,0 0.9,0 1.3,0 0.3,0 0.8,0.1 1.1,0.1 0,-0.1 0,-0.3 0,-0.4 -0.5,0 -1.7,-0.1 -1.9,0 -0.3,0 -0.6,0 -0.9,0 -0.4,0 -0.7,0 -1.1,0 -0.2,0 -0.4,0 -0.6,-0.1 -0.1,0 -0.2,0 -0.4,0 -0.1,0 -0.3,-0.1 -0.4,0 -0.1,0 -0.2,0 -0.2,0 -0.1,0 -0.2,0 -0.3,-0.1 -0.1,-0.1 -0.3,-0.6 -0.2,-0.7 0.3,-0.2 0.9,0 1.3,-0.1 0.4,0 0.7,0 1.1,0.1 0.3,0 0.5,0 0.8,0 0.1,0 0.3,0 0.4,0.1 0.7,0 1.3,0 1.9,0 0.1,0 0.4,0 0.7,0 0,-0.1 0,-0.3 0,-0.5 -0.1,0 -0.2,0 -0.3,0 -0.3,0 -0.6,0 -1,0 -0.2,0 -0.4,0 -0.5,0 -0.4,0 -0.8,0 -1.2,0 -0.1,0 -0.4,-0.1 -0.5,0 -0.3,0 -0.6,0 -0.8,0 -0.2,0 -0.8,-0.1 -1,0 -0.2,0 -0.4,0 -0.5,-0.1 -0.2,0 -0.6,0 -0.8,-0.1 -0.1,-0.1 -0.1,-0.2 -0.1,-0.4 0,-0.1 -0.1,-0.2 -0.1,-0.2 0.1,-0.1 0.7,-0.1 0.9,-0.1 0.2,0 0.5,0 0.7,0 0.4,0 0.9,0 1.3,0 0.1,0 0.2,0 0.3,0 0.3,0 0.5,0 0.8,0 0.2,0 0.4,0 0.6,0 0.2,0 0.3,0 0.5,0 0.3,0 0.7,0 1.1,0 0.1,0 0.3,0 0.5,0 0,-0.1 0,-0.3 0,-0.4 -0.2,0 -0.4,0 -0.5,0 -0.1,0 -0.2,0 -0.3,0 -0.1,0 -0.4,0 -0.5,0 -0.4,0 -0.7,0 -1.1,0 -0.2,0 -0.4,0 -0.6,0 -0.2,0 -0.4,0 -0.6,0 -0.2,0 -0.6,-0.1 -0.8,0 -0.3,0 -0.5,0 -0.8,-0.1 -0.3,0 -1.3,0.1 -1.5,-0.1 -0.1,-0.1 -0.2,-0.6 -0.2,-0.7 0.2,0 0.3,0 0.5,0 0.4,0 0.8,0 1.2,0.1 0.1,0 0.2,0 0.3,0.1 0.3,0 0.7,0 1,0 0.3,0 0.5,-0.1 0.8,-0.1 0.2,0 0.4,0 0.6,0 0.2,0 0.3,0 0.5,0 0.3,0 0.7,0 1,0 0.2,0 0.9,-0.1 1.2,0 0,-0.1 0,-0.3 0,-0.4 -0.1,0 -0.2,0 -0.3,0 -0.2,0 -0.6,0 -0.8,0 -0.2,0 -0.4,0 -0.6,0 -0.1,0 -0.1,0 -0.2,0 -0.3,0 -0.8,-0.1 -1,0 -0.2,0 -0.3,0 -0.5,0 -0.3,0 -0.8,-0.1 -1,0 -0.3,0 -0.7,-0.1 -0.9,0 -0.2,0 -0.8,-0.1 -1,0 -0.2,0 -0.8,0 -0.9,-0.1 -0.1,-0.1 -0.1,-0.2 -0.1,-0.3 0,-0.1 -0.1,-0.2 0,-0.3 0,0 0,0 0.1,0 0.2,0 0.4,0 0.6,0 0.5,0 1,0 1.5,0 0.2,0 0.4,0 0.6,0 1.1,0.1 2.2,0 3.4,0 0.2,0 0.8,0 1.1,0 0,-0.1 0,-0.3 0,-0.4 -0.2,0 -0.4,0 -0.5,0 -0.3,0 -0.7,0 -1,0 -0.2,0 -0.4,0 -0.5,0.1 -0.1,0 -0.2,0 -0.3,0 -0.3,0 -1.1,-0.1 -1.3,0 -0.2,0 -0.4,-0.1 -0.7,-0.1 -0.8,0 -1.7,0 -2.5,-0.1 -0.1,0 -0.4,0 -0.5,-0.1 C 9.8,42.6 9.8,42.2 9.8,42 v 0 c 0,0 0,0 0,0 0.5,0 1.1,0 1.6,0 0.3,0 0.7,0.1 0.9,0 0.4,0 0.9,0.1 1.3,0.1 0.2,0 0.4,0 0.6,0 0.3,0 0.5,0 0.8,0.1 0.1,0 0.2,-0.1 0.4,-0.1 0.2,0 0.5,0 0.7,0 0.1,0 0.2,0 0.2,0 0.2,0 0.6,0 0.8,0 0,-0.1 0,-0.3 0,-0.4 -0.1,0 -0.3,0 -0.4,0 -0.1,0 -0.4,0 -0.5,0 -0.3,0 -0.6,0 -0.9,0 -0.1,0 -0.3,0 -0.5,0 -0.1,0 -0.7,-0.1 -0.8,0 -0.2,0 -0.4,0 -0.5,0 -0.1,0 -0.3,-0.1 -0.4,0 -0.5,0 -0.9,-0.1 -1.4,-0.1 -0.1,0 -0.3,0 -0.4,0 -0.2,0 -0.6,0 -0.7,0 -0.2,0 -0.8,0 -0.9,-0.2 -0.1,-0.1 -0.1,-0.2 -0.1,-0.3 0,-0.1 0,-0.3 0.1,-0.3 0.2,-0.1 0.5,0 0.8,0 0.7,0 1.4,0 2.1,0 0.2,0 0.4,0 0.6,0 0.2,0 0.5,0 0.7,0 0.1,0 0.2,0 0.3,0 0.3,0 0.7,0 1,0 0.1,0 0.2,0 0.4,0 0.4,0 0.8,0 1.2,0 0.1,0 0.4,0 0.5,0 0,-0.1 0,-0.3 0,-0.4 -0.3,0 -0.9,0 -1,0 -0.2,0 -0.7,-0.1 -0.9,0 -0.2,0 -0.7,-0.1 -0.8,0 -0.2,0 -0.3,0 -0.5,0 -0.4,0 -0.8,0 -1.1,0 -0.2,0 -0.4,0 -0.6,0 -0.2,0 -0.7,-0.1 -0.9,0 -0.3,0 -0.6,-0.1 -0.9,-0.1 -0.1,0 -0.1,0 -0.2,0 -0.1,0 -0.3,0 -0.3,0 -0.6,0 -0.6,-0.1 -0.6,-0.7 v 0 c 0,0 0.1,0 0.1,0 0.1,0 0.2,0 0.4,0 0.3,0 0.9,0.1 1.2,0 0.2,0 0.5,0 0.7,0 0.2,0 0.5,0 0.7,0 0.2,0 0.3,0 0.5,0 0.1,0 0.2,0 0.3,0 0.5,0 1.1,0 1.6,0 0.1,0 0.3,0 0.4,0 0.2,0 0.3,0 0.5,0 0.1,0 0.3,0 0.4,0 0.2,0 0.7,0 1,0 0,-0.1 0,-0.3 0,-0.4 -0.2,0 -0.4,0 -0.5,0 -0.2,0 -0.5,0 -0.7,0 -0.1,0 -0.3,0 -0.4,0 -0.2,0 -0.4,0 -0.6,0 -0.2,0 -0.4,-0.1 -0.5,0 -0.2,0 -0.5,0 -0.7,0 -1.1,0 -2.1,0 -3.2,0 -0.2,0 -0.4,0 -0.6,0 -0.1,0 -0.2,0 -0.3,-0.1 -0.1,0 -0.2,0 -0.3,-0.1 -0.1,-0.1 -0.1,-0.6 -0.1,-0.8 0.2,0 0.4,0 0.5,-0.1 0.3,0 0.8,0.1 1.1,0 0.1,0 0.2,0 0.4,0 0.1,0 0.2,0 0.3,0 0.2,0 0.4,0 0.7,0 0.2,0 0.3,0 0.5,0 0.2,0 0.3,0 0.5,0 0.1,0 0.2,0 0.4,0 1.2,0 2.4,0 3.5,0 0,-0.1 0,-0.3 0,-0.4 -0.2,0 -0.5,0 -0.6,0 -0.4,0 -0.8,0 -1.2,0 -0.2,0 -0.3,0 -0.5,0 -0.2,0 -0.4,-0.1 -0.5,0 -0.6,0 -1.1,0 -1.7,0 -0.1,0 -0.2,0 -0.3,0 -0.5,0 -1,0 -1.6,0 -0.2,0 -0.4,-0.1 -0.5,0 -0.1,0 -0.2,0 -0.2,0 -0.2,0 -0.5,0 -0.7,-0.1 -0.1,-0.1 -0.1,-0.6 0,-0.7 0.1,-0.1 0.1,-0.1 0.2,-0.1 0.8,0 1.6,0 2.4,0.1 0.2,0 0.4,0 0.6,0 0.7,0 1.4,0 2,0 0.1,0 0.3,0 0.4,0 0.1,0 0.2,0 0.3,0 0.5,0 0.9,0 1.4,0 0.1,0 0.4,0 0.5,0 0,-0.1 0,-0.3 0,-0.4 -0.2,0 -0.4,-0.1 -0.6,0 -0.9,0 -1.8,0 -2.6,0 -0.2,0 -0.7,-0.1 -0.8,0 -1,0 -2.1,0 -3.1,0 -0.2,0 -0.5,0 -0.8,-0.1 0,-0.1 0,-0.2 -0.1,-0.3 0,-0.2 0,-0.4 0.1,-0.5 1.1,0 2.2,0.1 3.3,0.1 0.1,0 0.3,0 0.4,0 0.3,0 0.6,0.1 1,0.1 0.1,0 0.2,0 0.4,0 0.3,0 0.6,0 0.9,0 0.2,0 1.5,0 2,0.1 0,-0.1 0,-0.3 0,-0.5 -0.1,0 -0.2,0 -0.3,0 -0.2,0 -0.4,0 -0.5,0 -0.1,0 -0.3,0 -0.4,0 -0.4,0 -0.8,0 -1.2,0 -0.1,0 -0.3,0 -0.4,0 -0.4,0 -0.7,0 -1.1,0 -0.5,0 -1.1,0 -1.6,0 -0.2,0 -0.6,-0.1 -0.7,0 -0.2,0 -0.5,0 -0.6,0 -0.4,0 -0.7,-0.1 -1.1,-0.1 0,-0.2 0,-0.7 0.1,-0.7 0.1,0 0.3,0 0.4,0 0.1,0 0.2,0 0.3,0 0.1,0 0.3,0 0.4,0 0.3,0 0.7,0 1,0 0.3,0 0.5,0 0.8,0 0.4,0 0.7,0 1,0 0.6,0 1.2,0 1.8,0 0.3,0 1.6,0 2,0 0,-0.1 0,-0.2 0,-0.4 -0.1,0 -0.2,0 -0.2,0 -0.1,0 -0.3,0 -0.4,0 -0.1,0 -0.3,-0.1 -0.4,0 -0.2,0 -0.5,-0.1 -0.7,0 -0.4,0 -0.7,0 -1,-0.1 -0.1,0 -0.3,0 -0.4,0 -0.1,0 -0.3,0 -0.5,0 -0.2,0 -0.5,-0.1 -0.6,0 -0.3,0 -0.5,0 -0.8,0 -0.1,0 -0.3,0 -0.4,0 -0.3,0 -0.6,0 -0.9,0 -0.1,0 -0.3,-0.1 -0.4,0 -0.3,0 -0.7,0 -0.9,0 0,0 0,0 0,-0.1 0,-0.2 0,-0.7 0.2,-0.7 0.4,0 0.8,0 1.2,0 0.2,0 0.4,0 0.6,0 0.5,0 1,0 1.5,0 0.3,0 0.6,0 0.8,0 0.1,0 0.2,0 0.3,0 0.2,0 0.4,0 0.6,0.1 0.8,0 1.7,0 2.4,0 0,-0.1 0,-0.2 0,-0.4 -0.2,0 -0.6,0 -0.6,0 -0.8,0 -1.5,0 -2.3,0 -0.3,0 -0.9,-0.1 -1.1,0 -0.1,0 -0.3,-0.1 -0.4,0 -0.1,0 -0.1,0 -0.2,0 -0.3,0 -0.7,0 -1,0 -0.4,0 -0.7,-0.1 -1.1,-0.1 -0.1,0 -0.2,0 -0.3,0 -0.2,0 -0.5,0 -0.7,-0.1 -0.1,0 0,-0.1 0,-0.1 0.1,-0.5 0.1,-0.6 0.7,-0.6 0.1,0 0.3,0 0.4,0 0.2,0 0.3,0 0.5,0 0.3,0 0.7,0 1.1,0.1 0.2,0 0.4,0 0.5,0 1.5,0 3.1,0 4.6,0.1 0,-0.1 0,-0.3 0,-0.4 -0.1,0 -0.3,0 -0.3,0 -0.4,0 -0.8,0 -1.2,0 -0.2,0 -0.4,0 -0.6,0 -0.1,0 -0.4,0 -0.5,0 -0.2,0 -0.5,-0.1 -0.7,0 -0.4,0 -0.9,0 -1.3,-0.1 -0.1,0 -0.3,0 -0.4,0 -0.2,0 -0.7,-0.1 -0.8,0 -0.6,0 -1.1,0 -1.6,0 v 0 c 0,0 0,0 0,-0.1 0,-0.2 0,-0.6 0.2,-0.6 0.2,-0.1 0.5,-0.1 0.7,-0.1 0.3,0 0.7,0 1,0 0.1,0 0.2,0 0.3,0 0.8,0.1 1.6,0.1 2.4,0.1 0.2,0 0.4,0 0.7,0 0.3,0 0.7,0 1,0 0.2,0 0.3,0 0.5,0 0.2,0 0.6,0 0.8,0 0,-0.1 0,-0.3 0,-0.4 -0.1,0 -0.2,0 -0.3,0 -0.2,0 -0.3,0 -0.5,0 -0.5,0 -0.9,0 -1.4,0 -0.1,0 -0.4,-0.1 -0.5,0 -1,0 -1.9,0 -2.9,0 -0.4,0 -0.8,0 -1.2,0 -0.2,0 -0.3,0 -0.4,-0.1 0,-0.1 0.1,-0.5 0.2,-0.6 0.1,0 0.1,-0.1 0.2,-0.1 0.6,0 1.2,0 1.8,0.1 h 0.7 c 0.1,0 0.3,-0.1 0.4,0 0.8,0 1.6,0.1 2.4,0.1 0.2,0 0.5,0 0.7,0 0.2,0 0.6,0 0.9,0 0,-0.1 0,-0.3 0,-0.4 -0.2,0 -0.4,0 -0.6,0 -0.1,0 -0.3,0 -0.4,0 -0.5,0 -1,0 -1.5,0 -0.2,0 -0.5,-0.1 -0.6,0 -0.6,0 -1.2,0 -1.8,-0.1 -0.2,0 -0.6,-0.1 -0.7,0 -0.1,0 -0.1,0 -0.2,0 -0.4,0 -0.7,-0.1 -1.1,-0.1 0,-0.2 0.1,-0.6 0.3,-0.7 0.1,-0.1 0.2,0 0.2,-0.1 0.1,0 0.2,0 0.4,0.1 0.1,0 0.3,0 0.4,0 0.2,0 0.4,0 0.6,0 0.2,0 0.4,0 0.7,0 0.5,0 1,0.1 1.5,0.1 0.6,0 1.2,0 1.8,0 0.2,0 0.8,0 1.1,0 0,-0.1 0,-0.3 0,-0.4 -0.3,0 -0.7,0 -0.9,0.1 -0.2,0 -0.3,0 -0.5,0 -0.2,0 -0.4,0 -0.5,0 -0.1,0 -0.2,0 -0.3,0 -0.2,0 -0.4,0 -0.6,0 h -0.3 c -0.6,0 -1.2,0 -1.9,0 -0.2,0 -0.6,-0.1 -0.8,0 -0.2,0 -0.8,0 -0.9,-0.1 -0.1,-0.1 0.1,-0.6 0.1,-0.6 0.1,-0.1 0.2,-0.1 0.3,-0.1 0.3,0 0.6,0.1 1,0.1 0.3,0 0.7,0 1,0 0.1,0 0.2,0 0.3,0 0.2,0 0.4,0 0.6,0 0.2,0 0.5,0 0.7,0 0.3,0 0.6,0 0.9,0 0.5,0 1.1,0 1.6,0 0,-0.1 0,-0.3 0,-0.4 -0.2,0 -0.4,0 -0.5,0 -0.2,0 -0.7,-0.1 -0.9,0 -0.1,0 -0.3,-0.1 -0.4,0 -0.1,0 -0.2,0 -0.3,0 -0.4,0 -0.7,-0.1 -1.1,-0.1 -0.1,0 -0.3,0 -0.4,0 -0.2,0 -0.4,0 -0.6,0 -0.1,0 -0.2,0 -0.3,0 -0.1,0 -0.2,0 -0.3,0 -0.3,0 -1,0.1 -1.2,-0.1 0,0 0,0 0,0 0,-0.2 0.2,-0.6 0.3,-0.7 v 0 c 0.5,0 1,0.1 1.5,0.1 0.4,0 0.9,0 1.4,0 0.1,0 0.3,0 0.4,0.1 0.2,0 0.4,0 0.6,0 0.1,0 0.3,0 0.4,0 0.4,0 0.8,0 1.1,0 0.1,0 0.3,0 0.5,0 0,-0.1 0,-0.3 0,-0.4 -0.1,0 -0.2,0 -0.3,0 -0.4,0 -0.9,0 -1.3,0 -0.4,0 -0.7,0 -1.1,0 -0.2,0 -0.6,-0.1 -0.8,0 -0.1,0 -0.2,0 -0.3,0.1 -0.2,0 -0.5,-0.1 -0.7,-0.1 -0.4,0 -0.7,0 -1.1,0 v 0 0 c 0,-0.2 0.1,-0.3 0.2,-0.5 0,-0.1 0,-0.2 0.1,-0.3 0,-0.1 0.1,-0.1 0.2,-0.1 0.3,0 0.7,0 1,0 0.2,0 0.4,0 0.6,0 0.5,0 1,0.1 1.4,0.1 0.3,0 0.6,0 0.9,0 0.5,0 1,0 1.4,0.1 0,-0.1 0,-0.3 0,-0.4 -0.2,0.1 -1.1,0.1 -1.3,0 -0.2,0 -0.5,-0.1 -0.6,0 -0.2,0 -0.4,0 -0.6,0 -0.1,0 -0.3,0 -0.4,0 -0.5,0 -1,0 -1.6,0 -0.2,0 -0.4,-0.1 -0.6,-0.1 0,-0.3 0.2,-0.6 0.3,-0.8 0.2,0 0.4,0.1 0.6,0 0.5,0 1,0 1.5,0 0.1,0 0.2,0 0.4,0 0.5,0 1.1,0 1.7,0 0.3,0 0.5,0.1 0.8,0.1 0,-0.1 0,-0.3 0,-0.4 -0.1,0 -0.2,0 -0.2,0 -0.2,0 -0.5,-0.1 -0.7,0 -0.4,0 -0.8,0 -1.2,0 -0.2,0 -0.6,-0.1 -0.7,0 -0.1,0 -0.2,0 -0.2,0 -0.3,0 -0.7,0 -1,-0.1 -0.2,0 -0.4,0 -0.6,-0.1 0,0 0,0 0,-0.1 0,-0.1 0.2,-0.5 0.3,-0.6 0,0 0.1,-0.1 0.2,-0.1 0.4,0 0.9,0 1.3,0 0.5,0 1.1,0 1.7,0 0.3,0 0.9,0 1.2,0 0,-0.1 0,-0.3 0,-0.4 -0.1,0 -0.2,0 -0.3,0 -0.2,0 -0.4,0 -0.5,0 -0.2,0 -0.6,-0.1 -0.8,0 -0.2,0 -0.5,-0.1 -0.7,0 -0.3,0 -0.7,-0.1 -0.9,0 -0.1,0 -0.3,0 -0.4,0 -0.1,0 -0.3,0 -0.4,0 0,-0.1 0.3,-0.7 0.4,-0.8 0.2,-0.1 0.6,0 0.8,0 0.4,0 0.8,0 1.2,0 0.2,0 0.5,0 0.7,0 0.1,0 0.2,0 0.3,0 0.2,0 0.3,0 0.5,0 h 0.1 c 0,-0.1 0,-0.3 0,-0.4 0,0 -0.1,0 -0.1,0 -0.2,0 -0.4,0 -0.5,0.1 -0.1,0 -0.3,0 -0.4,0 -0.2,0 -0.4,-0.1 -0.6,0 -0.1,0 -0.1,0 -0.2,0 -0.1,0 -0.1,0 -0.2,0 -0.1,0 -0.3,0 -0.4,0 -0.3,0 -0.6,0 -0.9,0 -0.1,0 0,-0.2 0,-0.2 0.1,-0.1 0.3,-0.5 0.4,-0.6 0.1,-0.1 0.3,-0.1 0.4,-0.1 0.2,0 0.4,0 0.6,0 0.3,0 0.6,0 1,0 0.1,0 0.3,0 0.4,0 0.1,0 0.3,0 0.4,0 0,-0.1 0,-0.3 0,-0.4 -0.1,0 -0.2,0 -0.2,0 -0.3,0 -0.6,0 -0.8,0 -0.1,0 -0.2,0 -0.3,0 -0.2,0 -0.6,-0.1 -0.8,0 -0.1,0 -0.2,0 -0.3,0 0,-0.2 0.1,-0.3 0.2,-0.4 0.1,-0.1 0.1,-0.3 0.3,-0.3 0.1,0 0.2,0 0.3,0 0.3,0 0.6,0 1,0 0.2,0 0.4,0 0.5,0 0.1,0 0.2,0 0.3,0 0,-0.1 0,-0.3 0,-0.4 -0.2,0 -0.5,-0.1 -0.7,0 -0.1,0 -0.1,0 -0.2,0 -0.2,0 -0.5,0 -0.6,-0.1 v 0 c 0,0 0,0 0,0 0,-0.2 0.3,-0.3 0.4,-0.4 0.1,-0.1 0.2,-0.3 0.3,-0.4 0.2,0 0.6,0 0.9,0 0,-0.1 0,-0.2 0,-0.3 -0.2,0 -0.5,0 -0.5,0 v 0 -0.1 c 0,0 0.5,-0.6 0.6,-0.7 0.2,-0.4 1.5,-1.4 1.7,-1.6 0.2,-0.1 0.4,-0.3 0.6,-0.4 0.3,-0.1 0.7,0 1.1,0 0.4,0 0.9,0 1.4,0 0.4,0 0.9,0 1.3,0 0.3,0 0.5,0 0.8,0 1,0 2,0 2.9,0 0.1,0 0.2,0 0.3,0 0.2,0 0.4,0 0.6,0 0.6,0 1.2,-0.1 1.8,0 0.7,0 1.4,0.1 2.1,0.1 0.4,0 0.8,-0.1 1.2,0 0.3,0 0.5,0.1 0.8,0.1 0.7,0 1.4,0 2.1,0 0.5,0 0.9,0 1.4,0 0.1,0 0.2,0 0.4,0 0.2,0 0.5,0 0.7,0 0.1,0 0.2,0 0.4,0 0.1,0 0.2,0 0.3,0 0.2,0 0.3,0 0.5,0 0.2,0 0.4,0.1 0.6,0.1 0.2,0 0.4,0 0.6,0 0.8,0 1.5,0 2.3,0 0.3,0 0.5,0 0.8,0 0.5,0 0.9,-0.1 1.4,-0.1 0.5,0 0.9,0.1 1.4,0 0.2,0 0.5,0 0.7,0 0.2,0 0.3,0 0.5,0 0.7,0 1.5,0 2.1,0 0.6,0 1.3,0 1.9,0 0.1,0 0.3,0 0.4,0 0.5,0 1,0.1 1.6,0 0.2,0 0.4,-0.1 0.7,-0.1 0.2,0 0.4,0 0.6,-0.1 0.4,0 0.8,0 1.3,0 0.2,0 0.5,-0.1 0.7,0 0.1,0 0.2,0.1 0.2,0.2 0.4,0.3 1.3,1.1 2,1.8 0,0 0,0.1 0,0.1 0,0 0.1,0 0.1,0 0.2,0.1 0.5,0.4 0.4,0.5 0,0.1 -0.2,0.1 -0.3,0.1 0,0 -0.2,0 -0.3,0 0,0.1 0,0.3 0,0.4 0.3,0 0.6,0 0.9,0.1 0.2,0.1 0.6,0.6 0.6,0.8 v 0 c -0.1,0 -0.1,0 -0.2,0 -0.1,0 -1,0 -1.3,-0.1 0,0.1 0,0.3 0,0.4 0.5,0 1.2,0 1.7,0 0.1,0 0.2,0 0.3,0 0.1,0.1 0.2,0.3 0.3,0.4 0,0.1 0.2,0.2 0.1,0.3 0,0.1 -0.1,0.1 -0.1,0.1 -0.4,0 -0.9,0 -1.3,0 -0.1,0 -0.3,0 -0.4,0 -0.1,0 -0.4,0 -0.6,0 V 22 c 0.6,0 1.3,0 1.8,0 0.3,0 0.7,0 0.9,0.1 0.1,0.1 0.4,0.6 0.5,0.8 0,0 -0.1,0 -0.1,0.1 -0.2,0 -0.7,-0.1 -0.8,0 -0.2,0 -0.3,0 -0.5,0 -0.2,0 -0.5,-0.1 -0.7,0 -0.1,0 -0.1,0 -0.2,0 -0.3,0 -0.6,0 -0.9,-0.1 v 0.4 c 0.8,0 1.8,0.1 2.6,0.1 0.2,0 0.9,-0.1 1,0 0.1,0.1 0.1,0.2 0.2,0.3 0,0.1 0.1,0.1 0.1,0.2 0,0.1 0.1,0.2 0.1,0.3 v 0 c -0.1,0 -0.1,0 -0.2,0.1 -0.3,0 -0.8,-0.1 -1,-0.1 -0.1,0 -0.1,0 -0.2,0 -0.2,0 -0.3,0 -0.5,0 -0.4,0 -0.9,0 -1.3,0 -0.2,0 -0.4,0 -0.5,0 -0.1,0 -0.2,0 -0.4,0 0,0.1 0,0.2 0,0.4 0.2,0 0.4,0 0.4,0 0.3,0 0.5,0 0.8,0 0.2,0 0.3,0 0.5,0 0.6,0 1.2,0 1.9,0 0.2,0 0.6,0 0.7,0 0.2,0.1 0.2,0.3 0.3,0.4 0.1,0.1 0.1,0.2 0,0.3 -0.1,0 -0.2,0 -0.3,0 -0.2,0 -0.5,-0.1 -0.6,0 -0.1,0 -0.2,0 -0.3,0 -0.2,0 -0.6,-0.1 -0.7,0 -0.3,0 -0.6,0 -0.8,0 -0.1,0 -0.2,0 -0.3,0 -0.2,0 -0.4,0 -0.7,0 -0.1,0 -0.2,0 -0.3,0 -0.1,0 -0.2,0 -0.4,0 v 0.4 c 0.3,-0.1 0.7,-0.1 0.9,-0.1 0,0 0.1,0 0.1,0 0.4,0.1 0.8,0 1.1,0 0.7,0 1.4,0 2.1,0 0.2,0 0.4,-0.1 0.5,0 0.1,0.1 0.3,0.5 0.3,0.7 0.1,0 -0.2,0.1 -0.2,0.1 -0.2,0 -0.6,0 -0.7,0 -0.2,0 -0.5,-0.1 -0.7,0 -0.3,0 -0.6,0 -0.9,0 -0.1,0 -0.1,0 -0.2,0 -0.2,0 -0.8,-0.1 -0.9,0 -0.2,0 -1,0 -1.4,0 v 0.4 c 0.2,0 0.5,0 0.5,0 0.3,0 0.7,0 1,0 0.3,0 0.5,0.1 0.8,0.1 0.2,0 0.5,0 0.7,0 0.5,0 1,0 1.4,0 0.2,0 0.3,0 0.5,0 0.1,0 0.3,0 0.4,0 0.1,0 0.3,0.7 0.3,0.8 -0.2,0.1 -0.7,0 -0.9,0 -0.1,0 -0.3,0 -0.4,0 -0.1,0 -0.1,0 -0.2,0 -0.2,0 -0.3,0 -0.5,0 -0.2,0 -0.6,-0.1 -0.8,-0.1 -0.1,0 -0.2,0 -0.3,0.1 -0.3,0 -0.7,0 -1,0 -0.1,0 -0.3,0 -0.4,0 -0.2,0 -0.4,-0.1 -0.6,0 -0.1,0 -0.4,0 -0.6,0 V 28 c 0.2,0 0.5,0 0.7,0 0.2,0 0.3,0 0.4,0 0.2,0 0.3,0 0.5,0 0.6,0 1.2,0 1.9,0 0.4,0 1,0.1 1.4,0 0.2,0.1 0.9,-0.1 1,0.1 0.1,0.1 0.1,0.3 0.2,0.5 0.1,0.2 0.1,0.2 -0.1,0.3 -0.4,0 -0.8,0 -1.2,0 -0.2,0 -0.5,-0.1 -0.6,0 -0.2,0 -0.5,0 -0.7,0 -0.1,0 -0.2,0 -0.3,0 -0.1,0 -0.4,0 -0.5,0 -0.2,0 -0.4,0 -0.6,0 -0.1,0 -0.2,0 -0.3,0 -0.3,0 -0.7,-0.1 -0.9,0 -0.2,0 -0.5,0 -0.7,0 v 0.4 c 0.3,-0.1 1,0 1.2,0 0.4,0 0.8,0 1.2,0 0.3,0 0.5,0 0.8,0 0.2,0 0.4,0 0.6,0 0.2,0 0.4,0 0.5,0 0.4,0 0.8,0 1.2,-0.1 0.1,0 0.2,0 0.3,0 0.2,0 0.4,0 0.5,0.1 0.1,0.1 0.3,0.6 0.1,0.7 -0.2,0.1 -0.5,0 -0.7,0 -0.5,0 -1.1,0 -1.6,0 -0.2,0 -0.4,0 -0.6,0 -0.1,0 -0.3,0 -0.4,0 -0.2,0 -0.8,-0.1 -1,0 -0.2,0 -0.4,0 -0.5,0 -0.2,0 -0.4,-0.1 -0.6,0 -0.4,0 -0.7,-0.1 -1.1,-0.1 v 0.4 c 0.2,0 0.4,0 0.5,0 0.3,0 0.6,0 0.9,0 0.6,0 1.2,0 1.7,0 0.1,0 0.2,0 0.3,0 0.1,0 0.2,0 0.3,0 0.3,0 0.6,0 0.9,0 0.1,0 0.3,0 0.4,0 0.2,0 0.4,0 0.5,0 0.2,0 0.4,0 0.6,0 0.1,0 0.3,0 0.4,0.1 0.2,0.1 0.2,0.5 0.3,0.7 v 0 c 0,0 -0.2,0 -0.3,0 0,0 0,0 0,0 0,0 -0.1,0 -0.1,0 -0.1,0 -0.2,0 -0.3,0 -0.4,0 -0.8,0 -1.2,0 -0.1,0 -0.3,0 -0.4,0 -0.1,0 -0.2,0 -0.3,0 -0.4,0 -0.7,0 -1.1,0 -0.2,0 -0.4,-0.1 -0.6,0 -0.2,0 -0.6,0 -0.7,0 -0.3,0 -0.6,0 -1,0 -0.2,0 -0.7,0 -1,0 0,0.1 0,0.3 0,0.4 0.1,0 0.2,0 0.2,0 0.2,0 0.4,0 0.6,0 0.4,0 0.7,0 1.1,0 0.3,0 0.5,0 0.8,0 0.2,0 0.4,0 0.6,0 0.3,0 0.6,0 0.8,0 0.3,0 0.5,0 0.8,0 0.2,0 0.4,0 0.6,0 0.2,0 0.6,0.1 0.8,0 0.2,0 0.4,0 0.6,0.1 0.1,0.1 0.2,0.5 0.2,0.7 0,0 -0.1,0 -0.1,0.1 -0.2,0 -0.4,0 -0.5,0 -0.2,0 -0.4,0 -0.6,0 -0.7,0 -1.4,0 -2,0 -0.3,0 -0.5,0 -0.8,0 -0.2,0 -0.8,-0.1 -1,0 -0.5,0 -1,0 -1.5,0 -0.1,0 -0.3,0 -0.5,0 -0.1,0 -0.2,0 -0.3,0 v 0.4 c 0.1,0 0.3,0 0.4,0 0.5,-0.1 0.9,0 1.4,0 0.7,0 1.3,0 2,0 0.4,0 0.9,0.1 1.2,0 0.3,0 2.1,0 2.3,0.1 0.1,0.2 0.1,0.5 0.1,0.7 v 0 c 0,0 -0.1,0 -0.2,0.1 -0.4,0 -0.8,0 -1.3,0 -0.1,0 -0.3,-0.1 -0.4,0 -0.2,0 -0.3,0 -0.5,0 -0.2,0 -0.7,-0.1 -0.9,0 -0.2,0 -0.4,0 -0.6,0 -0.7,0 -1.5,0 -2.2,0 -0.2,0 -0.4,-0.1 -0.5,0 -0.1,0 -0.7,0 -0.9,-0.1 0,0.1 0,0.3 0,0.4 0.2,0 0.5,0 0.6,0 0.2,0 0.4,0 0.5,0 0.2,0 0.4,0 0.6,0 0.2,0 0.3,0 0.5,0 0.6,0 1.2,0 1.8,0 0.1,0 0.2,0 0.4,0 0.5,0 1,0.1 1.5,0 0.2,0 0.3,0 0.5,0 0.2,0 1,0 1.1,0.1 0.1,0.1 0.2,0.5 0.2,0.7 0,0 0,0 0,0 0,0 -0.1,0 -0.1,0 -0.2,0 -0.4,0 -0.6,0 -0.2,0 -0.5,-0.1 -0.7,0 -0.2,0 -0.4,0 -0.6,0 -0.1,0 -0.2,0 -0.3,0 -0.4,0 -0.7,-0.1 -1,-0.1 -0.4,0 -0.8,0 -1.2,0 -0.1,0 -0.2,0 -0.3,0 -0.1,0 -0.3,0 -0.4,0 -0.3,0 -0.5,0 -0.8,0 -0.1,0 -0.3,-0.1 -0.4,0 -0.2,0 -0.9,0 -1.2,0 v 0.5 C 59.6,35 59.8,35 60,35 c 0.3,0 0.5,0.1 0.8,0.1 0.3,0 0.5,0 0.8,0 0.3,0 0.6,0 0.9,-0.1 1.1,0 2.2,0 3.3,0 0.2,0 1.3,0 1.4,0.1 0.1,0.1 0,0.2 0,0.3 0,0.1 0.1,0.3 0,0.4 -0.1,0.2 -0.8,0 -1,0.1 -0.1,0 -0.2,0 -0.3,0 -0.3,0 -0.6,0 -0.9,0 -0.2,0 -0.5,-0.1 -0.6,0 -0.2,0 -0.8,-0.1 -0.9,0 -0.2,0 -0.5,-0.1 -0.7,0 -0.5,0 -0.9,0 -1.4,0 -0.1,0 -0.3,0 -0.4,0 -0.2,0 -0.4,0 -0.5,0 -0.1,0 -0.3,0 -0.4,0 h -0.4 c 0,0.1 0,0.2 0,0.4 0.3,-0.1 0.8,0 1.1,0 0.2,0 0.4,0 0.6,0 0.4,0 0.8,0 1.2,0 0.2,0 0.5,0 0.7,0 0.4,0 0.8,0 1.3,0 0.7,0 1.5,0 2.2,0 0.3,0 0.5,0 0.8,0.1 0,0.2 0.2,0.6 0,0.7 -0.1,0 -0.2,0 -0.2,0.1 -0.2,0 -0.4,0 -0.6,0.1 -0.3,0 -0.6,0 -0.9,0 -0.1,0 -0.2,0 -0.3,0 -0.1,0 -0.3,0 -0.4,0 -0.3,0 -0.7,-0.1 -1,0 -0.3,0 -0.6,-0.1 -0.9,0 -0.2,0 -0.5,0 -0.7,0 -0.2,0 -0.6,-0.1 -0.7,0 -0.2,0 -0.6,0 -0.7,0 -0.1,0 -0.3,0 -0.4,0 -0.2,0 -0.7,0 -1,0 0,0.1 0,0.3 0,0.4 0,0 0.1,0 0.1,0 0.5,0 1,-0.1 1.6,-0.1 0.4,0 0.8,0 1.1,0 0.2,0 0.3,0.1 0.5,0 0.1,0 0.3,0 0.4,0 0.6,0 1.2,0 1.8,0 0.4,0 0.9,0 1.3,0 0.1,0 0.3,0 0.4,0 0.1,0 0.6,0 0.7,0.1 0,0.1 0,0.2 0,0.3 -0.3,-0.1 -0.3,0 -0.4,0.1" /><path
     id="path3893"
     class="st2"
     d="m 57.9,23.8 c 0,-0.3 0,-0.5 0,-0.8 0,-0.3 0,-0.5 0,-0.8 0,-0.1 0,-0.2 0,-0.4 0,-0.4 0,-0.8 0,-1.2 0,-0.6 0,-1.2 0,-1.8 0,-0.2 0,-0.4 -0.1,-0.6 0,0 0,0 0,0 -0.1,0 -0.3,0 -0.4,0 -0.1,0 -0.3,0 -0.4,0 -0.2,0 -0.4,0 -0.6,0 -0.4,0 -0.9,-0.1 -1.3,0 -0.3,0 -0.5,0 -0.8,0 -0.1,0 -0.3,0 -0.4,0 -0.1,0 -0.3,0 -0.4,0 -0.1,0 -0.3,0 -0.4,0 -0.2,0 -0.3,-0.1 -0.5,-0.1 -0.2,0 -0.5,0 -0.7,0 -0.2,0 -0.3,0 -0.5,0 -0.2,0 -0.5,0 -0.7,0 -0.3,0 -0.7,0 -1,-0.1 -0.2,0 -0.4,0 -0.6,0 -0.2,0 -0.3,-0.1 -0.5,-0.1 -0.5,0 -0.9,0 -1.4,0 -0.1,0 -0.2,0 -0.3,0 -0.5,0 -1,0 -1.5,0 -0.2,0 -0.5,0 -0.7,0 -1.1,0 -2.2,0 -3.3,0 -0.2,0 -0.4,0 -0.6,0 -0.4,0 -0.8,0 -1.2,0 -0.2,0 -0.4,0 -0.6,0 -0.3,0 -0.5,0 -0.8,-0.1 -0.2,0 -0.5,0 -0.7,0 -0.3,0 -0.5,0 -0.8,0 -0.4,0 -0.7,0.1 -1.1,0.1 -0.4,0 -0.8,0 -1.2,0 -0.6,0 -1.3,0 -1.9,0 -0.2,0 -0.4,0 -0.6,0 -0.4,0 -0.9,0 -1.4,0 -0.3,0 -0.5,0 -0.8,0 -0.2,0 -0.4,-0.1 -0.7,-0.1 -0.3,0 -0.5,0 -0.8,0 -0.2,0 -0.4,0 -0.6,0 -0.6,0 -1.3,0 -1.9,0 -0.5,0 -1,0 -1.5,0 -0.3,0 -0.6,0 -0.9,0 -0.5,0 -0.9,0 -1.4,0 -0.5,0 -1,0.1 -1.5,0 -0.4,-0.1 -0.9,0 -1.3,0 0,0 -0.1,0 -0.1,0 -0.1,0.2 0,0.5 0,0.7 0,0.3 0,0.5 0,0.8 0,0.4 0,0.8 0,1.2 0,0.3 0,0.6 0,1 0,0.9 0,1.9 0,2.8 0,0.2 0,0.3 0,0.5 0,0.3 0,0.5 0,0.8 0,0.4 0,0.7 0,1.1 0,1.1 0,2.2 0,3.3 0,0.2 0,0.5 -0.1,0.7 0,0.3 0,0.5 0,0.8 0,0.1 0,0.2 0,0.4 0,0.6 0,1.3 0,1.9 0,0.3 0,0.5 0,0.8 0,0.3 -0.1,0.6 -0.1,0.9 0,0.2 0,0.5 0,0.7 0,0.2 0,0.4 0,0.6 0,0.4 0,0.7 0,1.1 0,0.2 0,0.3 0,0.5 0,0.2 0,0.4 0,0.6 0,0.2 0,0.4 0,0.7 0,0.3 0,0.6 0,0.9 0,0.4 -0.1,0.8 -0.1,1.2 0,0.1 0,0.2 0,0.4 0,0.3 0,0.5 0,0.8 0,0.2 0,0.5 0,0.7 0,1.8 -0.1,3.5 -0.1,5.2 0,0.4 0,0.8 0,1.2 0,0.6 0,1.3 0,1.9 0,0.1 0,0.3 0,0.4 0,0.6 -0.1,1.3 -0.1,1.9 0,0.2 0,0.3 0,0.5 0,0.9 0,1.7 0.2,2.5 0.1,0.2 0.1,0.3 0.2,0.5 0.1,0.3 0.2,0.7 0.4,1 0.3,0.4 0.6,0.8 1,1.1 0.1,0 0.1,0.1 0.2,0.1 0.1,0.1 0.2,0.1 0.3,0.2 0.2,0.1 0.3,0.1 0.5,0.2 0.2,0.1 0.5,0.2 0.7,0.3 0.2,0.1 0.5,0.1 0.7,0.2 0.4,0.1 0.9,0.3 1.4,0.4 0.5,0.1 0.9,0.1 1.4,0.2 1.4,0.2 2.8,0.4 4.2,0.5 0.3,0 0.6,0 0.9,0 0.4,0 0.8,0.1 1.2,0.1 0.4,0.1 0.8,0.2 1.2,0.3 0.2,0 0.4,0.1 0.6,0.1 0.2,0 0.4,0.1 0.6,0.1 0.2,0.1 0.4,0.2 0.5,0.2 0.2,0.1 0.3,0.1 0.5,0.2 0.8,0.3 1.5,0.9 2.2,1.5 0.2,0.3 0.4,0.5 0.6,0.8 0.1,0.2 0.2,0.3 0.3,0.5 0,0 0,0.1 0.1,0.1 v 0 0 c 0.3,-0.8 0.7,-1.5 1.3,-2.1 0.2,-0.2 0.5,-0.3 0.8,-0.5 0.3,-0.2 0.6,-0.5 1,-0.5 0.2,-0.1 0.4,-0.1 0.5,-0.2 0.2,-0.1 0.5,-0.2 0.8,-0.2 0.1,0 0.2,-0.1 0.2,-0.1 0.1,-0.1 0.3,-0.1 0.4,-0.1 0.1,0 0.1,0 0.2,0 0.1,0 0.1,-0.1 0.2,0 0.1,0 0.2,-0.1 0.3,-0.1 0.1,-0.1 0.2,-0.1 0.3,-0.1 0.1,-0.1 0.2,-0.1 0.3,-0.1 0.1,0 0.1,0 0.2,0 0.1,-0.1 0.2,-0.1 0.3,-0.1 0.1,0 0.2,0 0.2,0 0.1,0 0.1,0 0.2,0 0.1,0 0.1,0 0.2,0 0.1,0 0.1,0 0.2,0 0.1,-0.1 0.4,0 0.5,0 0.1,0 0.1,0 0.2,0 0.1,0 0.2,0 0.3,0 0.2,-0.1 0.4,0 0.6,0 0.1,0 0.1,0 0.2,0 0.2,-0.1 0.4,-0.1 0.6,-0.1 0.1,0 0.2,-0.1 0.3,-0.1 0.1,0 0.2,-0.1 0.3,-0.1 0.1,0 0.1,0 0.2,0 0.1,-0.1 0.3,0 0.4,0 0.1,0 0.2,-0.1 0.3,-0.1 0.1,-0.1 0.3,0 0.5,0 0.1,-0.1 0.5,-0.2 0.7,-0.2 0.1,0 0.2,-0.1 0.3,-0.1 0.1,0 0.1,0 0.2,0 0.2,-0.1 0.3,-0.1 0.6,-0.1 0.1,-0.1 0.3,-0.1 0.4,-0.1 0.1,-0.1 0.4,-0.2 0.5,-0.2 0.1,0 0.2,-0.1 0.2,-0.1 0.3,-0.1 0.6,-0.2 0.9,-0.3 0.3,-0.1 0.7,-0.3 1,-0.4 0.2,-0.1 0.3,-0.1 0.5,-0.2 0.3,-0.1 0.5,-0.3 0.7,-0.5 0.1,-0.1 0.3,-0.2 0.4,-0.3 0.2,-0.2 0.4,-0.3 0.6,-0.6 0.2,-0.3 0.4,-0.8 0.5,-1.1 0,-0.2 0.1,-0.4 0.1,-0.6 0,-0.2 0.1,-0.4 0.1,-0.5 0,-0.3 0,-0.6 0,-0.9 0,-0.3 0,-0.7 0,-1 0,-0.1 0,-0.2 0,-0.3 0,-0.2 0,-0.3 0,-0.5 0,-0.6 0,-1.2 0,-1.7 0,-0.5 0,-0.9 0,-1.4 0,-0.2 0,-0.4 0,-0.6 0,-0.1 0,-0.2 0,-0.3 0,-0.3 0,-0.6 0,-0.8 0,-0.5 0,-1.1 0,-1.6 0,-0.7 0,-1.5 0,-2.2 0,-0.2 0,-0.4 0.1,-0.6 0,-0.4 0,-0.7 0,-1.1 0,-0.2 0,-0.3 0.1,-0.5 0,-0.3 -0.1,-0.6 -0.1,-0.9 0,-0.8 0.1,-1.5 0.1,-2.3 0,-0.3 -0.1,-0.6 -0.1,-0.8 0,-0.2 0,-0.4 0,-0.6 0,-0.1 0,-0.2 0,-0.3 0,-0.2 0,-0.4 0,-0.5 0,-0.1 0,-0.2 0,-0.3 0,-0.3 0,-0.5 0,-0.8 0,-0.5 0,-1.1 0.1,-1.6 0,-0.1 0,-0.3 0,-0.4 0,-0.1 0,-0.2 0,-0.3 0,-0.2 0,-0.4 0,-0.6 0,-0.3 0,-0.6 0,-0.8 0,-0.2 0,-0.4 0,-0.7 0,-0.1 0,-0.2 0,-0.3 0,-0.5 -0.1,-1 -0.1,-1.5 0,-0.3 0,-0.6 0,-0.8 0,-0.1 0,-0.2 0,-0.4 0,-0.3 0,-0.7 -0.1,-1 0,-0.2 0,-0.4 0,-0.6 0,-0.3 0,-0.6 0,-0.8 0,-0.2 0,-0.5 0,-0.7 0,-0.2 0,-0.4 0,-0.7 0,-0.1 0,-0.3 0,-0.4 -0.2,0 -0.2,-0.3 -0.2,-0.7 m -0.7,9.7 c 0,0.1 0,0.2 0,0.2 0,0.1 0,0.3 0,0.4 0,0.2 0,0.3 0,0.4 0,0.7 0,1.4 0,2.2 0,0.1 0,0.2 0,0.3 0,0.1 0,0.3 0,0.4 0,0.1 0,0.2 0,0.3 0,0.1 0,0.2 0,0.3 0,0.1 0,0.2 0,0.3 0,0.2 0,0.4 0,0.6 0,0.3 0.1,0.6 0.1,0.9 0,0.1 0,0.3 0,0.4 0,0.1 0,0.2 0,0.3 0,0.1 0,0.3 0,0.4 0,0.1 0,0.1 0,0.2 0,0.2 0,0.4 0,0.5 0,1.7 0,3.4 -0.1,5.1 0,0.6 0,1.2 0,1.8 0,0.2 0,0.3 0,0.5 0,0.7 0,1.4 0,2.1 0,0.2 -0.1,0.4 -0.1,0.6 0,0.2 0.1,0.3 0.1,0.5 0,0.2 0,0.3 -0.1,0.5 0,0.1 0,0.2 0,0.2 0,0.1 0,0.2 0,0.2 0,0.1 0,0.2 0,0.3 0,0.2 0,0.5 0,0.7 0,0.1 0,0.2 0,0.3 0,0.2 0,0.4 0,0.6 0,0.6 0,1.2 -0.1,1.8 0,0.1 0,0.3 0,0.4 0,0.3 -0.2,0.6 -0.3,0.9 -0.3,0.5 -0.9,0.9 -1.4,1.2 -0.3,0.2 -0.5,0.4 -0.8,0.5 -0.3,0.2 -0.7,0.3 -1.1,0.4 -0.4,0.1 -0.9,0.3 -1.3,0.4 -0.2,0 -0.3,0.1 -0.5,0.1 -0.5,0.1 -0.9,0.2 -1.4,0.3 -0.1,0 -0.2,0 -0.3,0 -0.3,0.1 -0.6,0.1 -1,0.2 -0.4,0 -0.7,0.1 -1.1,0.1 -0.4,0 -0.8,0.1 -1.2,0.1 -0.3,0 -0.7,0 -1,0 -0.3,0 -0.5,0.1 -0.8,0.1 -0.2,0 -0.3,0 -0.5,0 -0.6,0.1 -1.2,0.3 -1.9,0.4 -0.3,0.1 -0.7,0.1 -1,0.2 -0.2,0.1 -0.3,0.1 -0.5,0.2 -0.1,0 -0.3,0.1 -0.4,0.1 -0.9,0.5 -1.7,1.1 -2.3,1.9 -0.1,0.1 -0.1,0.2 -0.2,0.3 0,0 -0.2,0.1 -0.2,0.2 0,0 -0.1,0 -0.1,0 C 37.6,64.7 37.5,64.6 37.5,64.5 37.2,64.2 37,63.9 36.7,63.7 36.5,63.5 36.2,63.4 35.9,63.2 35.8,63.1 35.6,63 35.5,62.9 35.3,62.8 35,62.7 34.8,62.5 34.5,62.4 34.1,62.3 33.8,62.1 33.6,62 33.4,62 33.1,61.9 c -0.1,0 -0.2,-0.1 -0.3,-0.1 -0.4,-0.1 -0.7,-0.1 -1,-0.2 -0.1,0 -0.2,-0.1 -0.4,-0.1 -0.1,0 -0.3,0 -0.4,0 -0.3,0 -0.5,-0.1 -0.8,-0.1 -0.3,0 -0.5,0 -0.8,0 -0.1,0 -0.3,-0.1 -0.4,-0.1 -0.3,0 -0.6,0 -1,0 -0.7,-0.1 -1.4,-0.2 -2,-0.3 -0.3,0 -0.6,0 -1,-0.1 -0.3,0 -0.7,-0.1 -1,-0.2 -0.4,-0.1 -0.8,-0.1 -1.2,-0.2 -0.5,-0.1 -1,-0.4 -1.5,-0.6 -0.7,-0.3 -1.5,-0.8 -1.9,-1.5 -0.6,-1 -0.6,-2.4 -0.6,-3.7 0,-0.2 -0.1,-0.3 0,-0.5 0,-0.1 0,-0.3 0.1,-0.4 0,-0.2 0,-0.3 0,-0.4 0,-0.3 0,-0.7 0,-1 0,-0.2 0,-0.5 0,-0.8 0,-0.1 0,-0.2 0,-0.3 0,-0.1 0,-0.2 0,-0.3 0,-0.2 0,-0.4 0,-0.7 0,-0.5 0.1,-1 0.1,-1.5 0,-1.2 0,-2.3 0.1,-3.4 0,-0.2 0,-0.3 0,-0.5 0,-0.3 0,-0.7 0,-1 0,-0.3 0.1,-0.6 0.1,-0.9 0,-1.3 0,-2.6 0,-3.8 0,-0.3 0,-0.6 0.1,-0.9 0,-0.2 0,-0.5 0,-0.7 0,-0.7 0,-1.4 0,-2.1 0,-0.3 0,-0.7 0,-1 0,-0.2 0,-0.5 0.1,-0.7 0,-0.5 0,-0.9 0,-1.4 0,-1.1 0,-2.1 0,-3.2 0,-0.1 0,-0.3 0.1,-0.4 0,-0.1 0,-0.2 0,-0.2 0,-0.2 0,-0.5 0,-0.7 0,-0.6 0,-1.3 0,-1.9 0,-0.4 0,-0.7 0,-1.1 0,-0.2 0,-0.3 0.1,-0.5 0,-0.2 0,-0.3 0,-0.5 0,-0.2 0.1,-0.3 0.1,-0.5 0,-0.7 0,-1.3 0,-2 0,-0.2 0,-0.5 0,-0.7 0,-0.2 0,-0.3 0,-0.5 0,-0.2 0,-0.4 0,-0.5 0,-0.2 -0.1,-0.9 0.1,-1.1 0.1,-0.1 0.3,0 0.5,0 0.2,-0.1 0.7,0 1,0 0.2,-0.1 0.4,0 0.6,0 0.7,0 1.3,0 2,0 0.1,-0.1 0.4,0 0.6,0 0.2,-0.1 0.4,0 0.6,0 0.1,0 0.2,0 0.3,0 0.2,-0.1 0.4,0 0.6,0 0.5,0 1,0.1 1.5,0.1 0.2,-0.1 0.6,0 0.9,0 0.2,-0.1 0.7,0 0.9,0 0.4,0 0.8,0 1.1,0 0.1,-0.1 0.3,0 0.4,0 0.3,0 0.6,0 0.9,0 0.2,-0.1 0.4,0 0.6,0 0.1,0 0.2,0 0.3,0 0.3,0 0.6,0.1 0.9,0.1 0.1,-0.1 0.3,0 0.5,0 0.1,0 0.3,0 0.4,0 0.2,0 0.4,0 0.5,0 0.2,-0.1 0.8,0 1.1,0 0.2,0 0.4,0 0.6,0 0.1,0 0.2,0 0.3,0 0.2,0 0.4,0 0.6,0 0.8,0 1.5,0 2.3,0 0.1,0 0.2,0 0.3,0 0.1,0 0.1,0 0.2,0 0.3,-0.1 0.8,0.1 1.1,0.1 0.1,0 0.2,0 0.2,0 0.1,0 0.1,0 0.2,0 0.2,-0.1 0.5,0 0.7,0 0.5,0 1.1,0 1.6,0 0.2,0 0.4,0.1 0.6,0.1 0.1,0 0.2,0 0.3,0 0.1,-0.1 0.3,0 0.4,0 0.3,0 0.5,0 0.8,0 0.1,0 0.1,0 0.2,0 0.3,-0.1 0.6,0 0.9,-0.1 0.4,0 0.7,0.1 1,0.1 0.2,0 0.5,0 0.7,0 0.1,0 0.1,0 0.2,0 0.2,-0.1 0.6,0 0.8,0 0.3,0 0.6,0 1,0 0.1,-0.1 0.6,0 0.7,0 0.6,0 1.2,0 1.9,0 0.2,0 0.4,0 0.5,0.1 0.1,0 0.2,0 0.4,0 0.1,0 0.2,0 0.3,0 0.3,0 0.7,0 1,0 0.5,0 1,0 1.5,0 0,0 0.3,-0.1 0.3,0 v 0 c 0,0.5 0,1 0,1.5 0,0.5 0,1 0,1.5 0,0.9 0,1.9 0,2.8 -0.1,1.7 0,3.3 0,5 0,0.2 0,0.4 0,0.7 0,0.3 -0.1,0.6 0,0.9 0,0.1 0,0.2 0,0.4 0,0.4 0,0.8 0,1.1 -0.4,0 -0.4,0.2 -0.4,0.5" /><path
     id="path3895"
     class="st2"
     d="m 41.5,56.8 c -0.1,-0.3 -0.2,-0.5 -0.2,-0.7 0,-0.1 0,-0.2 -0.1,-0.3 0,-0.1 -0.1,-0.1 -0.2,-0.1 -0.1,0.1 -0.2,0.1 -0.2,0.2 0,0.2 0.1,0.4 0.2,0.6 0.1,0.2 0.2,0.5 0.3,0.8 0.1,0.2 0.1,0.3 0.2,0.5 0.1,0.1 0.3,0.3 0.5,0.2 0.1,0 0,-0.2 -0.1,-0.3 -0.2,-0.3 -0.3,-0.6 -0.4,-0.9" /><path
     id="path3897"
     class="st2"
     d="m 30.7,43.8 v 0 0 0 c 0.1,-0.2 0.2,-0.4 0.3,-0.5 0.1,-0.1 0.2,-0.2 0.3,-0.2 0.1,-0.1 0.2,-0.2 0.3,-0.4 0.1,-0.1 0.2,-0.1 0.2,-0.2 0.1,-0.3 0.1,-1 0.1,-1.3 0,-0.3 0,-0.6 0,-0.9 0,-0.2 0,-0.4 0,-0.6 0,-0.4 0,-0.8 0,-1.2 0,-0.2 0,-0.4 0,-0.6 0,-0.5 0.1,-1.1 0,-1.6 0,-0.5 0,-1 0,-1.5 0,-0.2 0,-0.3 0,-0.5 0,-0.2 0,-0.3 0,-0.4 0,-0.3 0,-0.7 0,-1 0,-0.2 0,-0.4 0,-0.5 0,-0.3 0,-0.5 0,-0.8 0,-0.2 0.1,-0.5 0,-0.7 v 0 c -0.2,0.1 -1,0.9 -1,1.2 -0.1,0.2 0,0.6 0,0.9 0,0.4 -0.1,0.8 -0.1,1.2 0,0.1 0,0.2 0,0.3 0,0.2 0,0.4 0,0.6 0,0.3 -0.1,0.6 -0.1,1 0,0.2 0,0.4 0,0.6 0,0.2 0,0.4 0,0.6 0,0.3 0,0.5 0,0.8 0,0.4 -0.1,0.9 -0.1,1.3 0,0.3 0,0.6 0.1,0.8 0,0.2 -0.1,0.5 -0.1,0.7 0,0.2 0.1,0.4 0,0.6 0,0.3 -0.1,0.6 -0.1,0.9 0.2,0.4 0.2,0.9 0.2,1.4" /><path
     id="path3899"
     class="st2"
     d="m 44.8,44.1 c 0,0 0,0 0,0 0,-0.3 -0.2,-0.5 -0.4,-0.7 -0.1,-0.1 -0.2,-0.3 -0.4,-0.4 -0.3,-0.2 -0.6,-0.4 -1,-0.4 -0.2,0 -0.4,0 -0.6,0 -0.1,0.1 -0.3,0 -0.4,0.1 -0.2,0.1 -0.5,0.1 -0.7,0.2 -0.7,0.2 -1.3,0.5 -1.9,0.8 -0.2,0.1 -0.4,0.3 -0.6,0.4 -0.2,0.1 -0.3,0.4 -0.6,0.5 -0.2,0 -0.3,-0.2 -0.4,-0.3 -0.1,0 -0.1,-0.1 -0.2,-0.1 -0.3,-0.2 -0.5,-0.5 -0.8,-0.6 -0.5,-0.3 -0.9,-0.3 -1.5,-0.4 -0.2,0 -0.3,-0.1 -0.5,-0.1 -0.8,-0.2 -1.9,-0.2 -2.6,0.3 -0.2,0.1 -0.3,0.2 -0.4,0.4 -0.3,0.2 -0.4,0.3 -0.5,0.6 0,0.1 -0.1,0.2 -0.1,0.3 0.1,0.1 0.3,0.1 0.4,0.1 0.1,-0.1 0.4,0 0.5,0 0.5,0 0.9,0 1.4,0 0.1,-0.1 0.3,-0.1 0.5,-0.1 0.3,0 0.6,0 1,0 0.1,0 0.3,0 0.4,0 0.4,0 0.8,0.1 1.3,0.1 0,0 0.1,0 0.1,0 0.2,0 0.4,0 0.6,0 0.1,0 0.1,0 0.2,0.1 0.1,0.1 0,0.3 0.1,0.4 0.1,0.4 0.4,0.6 0.8,0.6 0.5,0 0.8,-0.4 0.8,-0.9 0,0 0,-0.2 0,-0.2 0.1,-0.1 0.2,-0.1 0.4,-0.1 0.1,0 0.2,0 0.2,0 0.1,0 0.2,0 0.2,0 0.1,-0.1 0.5,0 0.7,0 0.1,0 0.2,-0.1 0.3,-0.1 0.2,-0.1 0.4,-0.1 0.6,-0.1 0.1,0 0.1,0 0.2,0 0.2,-0.1 0.4,0 0.6,0 0.2,-0.1 0.4,-0.1 0.6,-0.1 0.6,0 1.1,0 1.7,0 -0.2,-0.3 0,-0.2 0,-0.3" /><path
     id="path3901"
     class="st2"
     d="m 32.3,41.6 c 0,0.2 0,0.5 0,0.7 0.1,0 0.2,0 0.3,0 0.1,0 0.2,-0.1 0.3,-0.1 0.1,0 0.2,-0.1 0.3,0 0.1,0 0.1,0 0.2,0 0.3,-0.1 0.9,0 1.2,0.1 0.3,0.1 0.6,0 0.9,0.1 0.4,0.1 0.9,0.3 1.3,0.5 0.1,0.1 0.8,0.6 0.8,0.6 v 0 c 0.2,-0.3 0.2,-0.6 0.2,-0.9 0.1,-0.4 0.1,-0.8 0.1,-1.2 0,-0.6 0.1,-1.2 0.1,-1.9 0,-0.3 0,-0.5 0,-0.8 0,-0.8 0,-1.5 0,-2.3 0,-1.2 0.1,-2.4 0,-3.6 0,-0.4 0,-0.8 -0.2,-1.1 -0.4,-0.6 -1,-0.8 -1.6,-1 -0.2,-0.1 -0.3,-0.1 -0.5,-0.2 -0.2,0 -0.4,-0.1 -0.6,-0.1 -0.3,-0.1 -0.6,-0.1 -0.9,-0.1 -0.4,0 -0.8,0 -1.3,0 -0.1,0.1 -0.3,0 -0.4,0.2 -0.1,0.2 0,0.6 0,0.8 0,0.7 0,1.4 0,2.2 0,0.4 0,0.9 0,1.3 0,0.4 -0.1,0.7 -0.1,1.1 0,0.3 0.1,0.5 0.1,0.8 0,0.5 0,1.1 0,1.7 0,0.2 0,0.5 -0.1,0.7 0,0.5 0,0.9 0,1.4 0,0.2 0,0.5 -0.1,0.7 -0.1,0 0,0.2 0,0.4 m 4.6,-0.7 C 36.5,40.7 36,40.5 35.5,40.4 35.3,40.3 35.2,40.3 35,40.3 34.7,40.2 34.5,40.2 34.2,40.1 33.9,40.1 33.6,40 33.3,40 c 0,0 -0.1,0 -0.1,0 C 33,39.9 33,39.4 33.3,39.4 v 0 c 0.2,0 0.4,0.1 0.6,0.1 0.2,0 0.4,0.1 0.6,0.1 0.2,0.1 0.3,0.1 0.5,0.2 0.5,0.2 0.9,0.3 1.3,0.5 0.1,0 0.2,0.1 0.3,0.1 0.3,0.1 0.6,0.4 0.8,0.6 0.1,0.1 0.2,0.1 0.2,0.2 -0.3,0 -0.5,-0.2 -0.7,-0.3 M 37.5,38 c 0,0 0,0 0,0 -0.1,0 -0.1,0 0,0 -0.3,0.1 -1,-0.6 -1.2,-0.7 -0.3,-0.1 -0.5,-0.2 -0.8,-0.3 -0.4,-0.1 -0.7,-0.3 -1.1,-0.4 -0.2,0 -0.3,0 -0.5,-0.1 -0.2,0 -0.6,0 -0.7,-0.1 -0.2,-0.2 -0.1,-0.6 0.2,-0.6 v 0 c 1.2,0.1 2.2,0.6 3.1,1.2 0.3,0.1 0.9,0.5 1.1,0.8 -0.1,0.1 0,0.2 -0.1,0.2 m -4.4,-5.4 c 0.4,0 0.7,0.1 1,0.2 0.1,0 0.2,0 0.3,0.1 0.2,0.1 0.4,0.2 0.6,0.2 0.2,0.1 0.4,0.1 0.6,0.2 0.1,0 0.2,0.1 0.3,0.1 0.3,0.1 0.5,0.2 0.8,0.4 0.2,0.1 1.1,0.6 0.9,0.8 0,0.1 -0.1,0.1 -0.2,0 -0.2,0 -0.3,-0.2 -0.4,-0.2 -0.2,-0.1 -0.3,-0.2 -0.5,-0.3 -0.8,-0.4 -1.8,-0.7 -2.7,-0.9 -0.3,-0.1 -0.6,-0.1 -0.8,-0.2 -0.1,0 -0.1,-0.3 0.1,-0.4" /><path
     id="path3903"
     class="st2"
     d="m 39.3,26 c 0.1,0 0.2,-0.1 0.3,-0.1 0.1,-0.1 0.3,-0.2 0.3,-0.3 0.1,-0.2 -0.1,-0.6 -0.3,-0.7 -0.1,0 -0.2,0 -0.2,0 0,0.2 0.1,0.2 0.1,0.4 0,0.1 -0.1,0.2 -0.2,0.3 -0.1,0.1 -0.1,0.4 0,0.4" /><path
     id="path3905"
     class="st2"
     d="M 39.9,23.4 C 39.7,23.3 39.5,23.3 39.3,23.2 39.1,23.1 39,23 38.8,23 v 0 c -0.1,0 -0.2,0.1 -0.2,0.2 0,0.2 0.2,0.3 0.3,0.4 0.1,0.1 0.2,0.3 0.3,0.3 0.1,0 0.2,-0.1 0.3,-0.2 0.1,-0.1 0.2,-0.1 0.3,-0.2 0.2,0 0.2,-0.1 0.1,-0.1" /><path
     id="path3907"
     class="st2"
     d="m 38.7,27.2 c 0.2,0.1 0.6,0 0.6,-0.2 0,-0.2 -0.2,-0.3 -0.3,-0.3 -0.1,0.1 -0.5,0.4 -0.3,0.5" /><path
     id="path3909"
     class="st2"
     d="m 43.8,30.6 c -0.1,-0.1 -0.3,0 -0.4,0 -0.2,0 -0.3,0 -0.5,0 -0.2,0.1 -0.4,0 -0.7,0.1 -1,0.2 -1.9,0.3 -2.7,0.8 -0.2,0.1 -0.4,0.2 -0.6,0.4 -0.1,0.1 -0.1,0.3 -0.1,0.5 -0.1,0.5 -0.1,0.9 -0.1,1.4 0,0.2 0,0.5 -0.1,0.7 0,0.4 0,0.7 0,1.1 0,0.1 0,0.3 -0.1,0.4 0,0.3 0,0.7 0,1 0,0.5 0,1 0,1.5 0,0.5 0,1 0,1.5 0,0.1 0,0.3 0,0.4 0,0.1 0,0.2 0,0.2 0,0.2 0,0.4 0,0.7 0,0.7 0,1.5 0.2,2 0,0 0.1,0.1 0.1,0.1 0.3,-0.1 0.6,-0.3 0.8,-0.5 0.2,-0.1 0.5,-0.2 0.8,-0.3 0.3,-0.2 0.4,-0.3 0.8,-0.3 0.1,-0.1 0.4,-0.1 0.6,-0.1 0.1,0 0.1,0 0.2,0 0.1,0 0.1,0 0.2,0 0.3,-0.1 0.9,0 1.2,0.1 0.1,0 0.3,0.1 0.4,0.1 0.1,-0.4 0,-0.9 0,-1.3 0,-0.2 0,-0.5 0,-0.7 0,-0.3 0,-0.6 0,-0.8 0,-0.1 0,-0.3 0,-0.4 0,-0.3 0,-0.7 0,-1 0,-0.2 0,-0.4 0,-0.6 0,-0.4 0,-0.7 0,-1.1 0,-0.2 0,-0.3 0,-0.5 0,-0.7 0,-1.3 0,-2 0,-0.2 0,-0.4 0,-0.6 0,-0.5 0,-1 0,-1.5 0,-0.2 -0.1,-0.3 -0.1,-0.5 0,-0.2 0,-0.4 0,-0.6 0.1,-0.1 0.1,-0.2 0.1,-0.2 M 39,37.4 c 0.6,-0.6 1.5,-0.9 2.2,-1.2 0.2,-0.1 0.5,-0.3 0.8,-0.3 0.1,-0.1 0.3,-0.2 0.4,-0.2 v 0 c 0.2,0 0.3,0.1 0.3,0.3 0,0.2 -0.1,0.3 -0.2,0.4 -0.2,0.2 -0.5,0.2 -0.8,0.3 -0.3,0.1 -0.6,0.2 -0.9,0.3 -0.2,0.1 -0.4,0.1 -0.6,0.2 -0.4,0.1 -0.7,0.3 -1,0.5 -0.1,0.1 -0.2,0.2 -0.4,0.2 0,0 -0.1,0 -0.1,0 0,-0.3 0.2,-0.5 0.3,-0.5 m 3.7,2.1 c -0.2,0.1 -0.5,0.1 -0.8,0.2 -0.2,0 -0.5,0.1 -0.7,0.2 -0.8,0.2 -1.4,0.5 -2.1,0.9 -0.1,0 -0.3,0.3 -0.4,0.1 -0.1,-0.1 0.1,-0.2 0.2,-0.3 0.3,-0.2 0.5,-0.4 0.8,-0.6 0.3,-0.2 0.6,-0.4 1,-0.5 0.1,-0.1 0.2,-0.1 0.3,-0.2 0.4,-0.2 0.9,-0.3 1.3,-0.4 0.1,0 0.3,0 0.4,0.1 0.3,0.1 0.2,0.4 0,0.5 M 42.8,33 c -0.1,0.1 -0.3,0.1 -0.4,0.1 -0.3,0.1 -0.6,0.2 -0.9,0.3 -0.4,0.1 -0.8,0.3 -1.2,0.5 -0.3,0.2 -0.5,0.3 -0.8,0.5 0,0 -0.4,0.2 -0.4,0.1 v 0 c 0,-0.3 0.4,-0.5 0.6,-0.6 0.1,-0.1 0.2,-0.1 0.3,-0.2 0.3,-0.2 0.6,-0.3 0.8,-0.5 0.3,-0.1 0.6,-0.2 0.9,-0.3 0.1,-0.1 0.2,-0.1 0.3,-0.1 0.1,-0.1 0.3,-0.1 0.4,-0.1 0.1,0 0.2,0 0.3,0 0.3,0 0.2,0.2 0.1,0.3" /><path
     id="path3911"
     class="st2"
     d="m 38.2,25.7 c -0.1,0 -0.1,0 -0.2,-0.1 -0.1,0 -0.2,0.1 -0.2,0.2 0,0.1 0,0.2 0,0.3 0,0.2 0,0.4 0.1,0.5 0.1,0.1 0.1,0.1 0.2,0.1 0.1,0 0.1,0.1 0.2,0.1 0.2,0 0.6,-0.3 0.6,-0.5 -0.1,0 -0.6,-0.5 -0.7,-0.6" /><path
     id="path3913"
     class="st2"
     d="m 45.6,33.5 c 0,-0.2 -0.1,-0.5 -0.1,-0.7 0,-0.1 0,-0.3 0,-0.4 0,0 0,-0.3 0,-0.3 v 0 h -0.1 c -0.1,0.5 0,1.1 0,1.6 0,0.2 -0.1,0.4 -0.1,0.6 0,0.1 0,0.2 0,0.3 0,0.1 0,0.2 0,0.3 -0.1,0 -0.2,0 -0.2,-0.1 0,-0.2 0,-0.3 0,-0.5 0,-0.1 0,-0.2 0,-0.3 0,-0.6 0.1,-1.3 0.1,-1.9 0,-0.1 0,-0.2 0,-0.3 0,-0.1 0,-0.1 0,-0.2 0,0 -0.1,0 -0.1,0 v 0 0 c 0,0.5 -0.1,0.9 -0.1,1.3 0,0.1 0,0.2 -0.1,0.2 h -0.1 c -0.1,-0.4 -0.1,-0.8 -0.1,-1.2 0,-0.2 0,-0.4 -0.1,-0.6 -0.1,0.1 -0.1,0.3 -0.1,0.5 0,0.2 0,0.5 0,0.7 0,0.2 0.1,0.5 0,0.7 -0.1,1.5 -0.1,3 -0.1,4.6 0,0.3 0,0.6 0,0.9 0,0.3 -0.1,0.5 -0.1,0.8 0,0.4 0,0.8 0,1.2 0,0.4 -0.1,0.8 0,1.2 0,0.1 0,0.2 0.1,0.2 v 0 0 0 0 c 0.1,-0.2 0.1,-0.5 0.1,-0.7 0,-0.4 0.1,-0.8 0.1,-1.3 0,-0.3 -0.1,-0.6 0,-0.9 0,0 0,-0.1 0.1,0 0.1,0 0.1,0.2 0.1,0.3 0.1,0.3 0,0.6 0,1 0,0.3 0,0.5 0,0.8 0,0.3 0,0.6 0,0.9 0,0.2 0,0.3 0,0.4 0,0.1 0,0.3 0.2,0.3 0,-0.4 0,-0.9 0,-1.4 0,-0.2 0,-0.4 0,-0.6 0,-0.2 0,-0.4 0.1,-0.6 0,-0.1 0,-0.3 0.1,-0.4 0,-0.2 -0.1,-0.4 -0.1,-0.6 0,-0.3 0,-0.6 0,-0.9 0,-0.2 0,-0.3 0,-0.5 0,-0.1 0.1,-0.1 0.1,-0.1 v 0 c 0.1,0.1 0.2,0.2 0.2,0.3 0,0.3 0,0.7 0,1.1 0,0.1 0,0.2 0,0.3 0,0.3 0.1,0.6 0.1,0.9 0,0.1 0,0.2 0,0.4 0,0.5 0,1 0,1.6 0,0.4 0,0.8 0.1,1.2 0,0.1 0,0.1 0,0.2 h 0.1 c 0.1,-0.2 0.1,-0.5 0.1,-0.8 0,-0.3 0.1,-0.6 0,-1 0,-0.2 -0.1,-0.4 -0.1,-0.6 0,-0.2 0.1,-0.4 0.1,-0.6 0,-0.3 -0.1,-0.6 -0.1,-1 0,-0.3 0,-0.7 0.1,-1 0,-0.3 0,-0.5 0,-0.8 0,-0.1 0,-0.2 0,-0.3 0,-0.2 0,-0.3 0.1,-0.5 0,-0.3 0,-0.5 0,-0.8 0,-0.4 0,-0.8 0,-1.3 -0.3,-0.7 -0.3,-1.1 -0.3,-1.6 m -0.9,4.1 c 0,0 -0.2,0.2 -0.2,0.1 0,-0.1 0,-0.2 0,-0.3 0,-0.2 0,-0.5 0,-0.8 0,-0.3 0,-0.7 0,-1 0,-0.3 0,-0.6 0.1,-0.8 0.1,0 0.1,0.1 0.2,0.2 0.1,0.3 0,0.6 0,0.9 -0.1,0.6 0,1.3 -0.1,1.7 m 0,-3.8 v 0 c -0.2,0 -0.2,-0.2 -0.1,-0.3 0.1,0 0.2,0.3 0.1,0.3 m 0.4,3.2 v 0 C 45,36.8 45,36.6 45,36.3 c 0,-0.3 -0.1,-0.6 0.1,-0.9 0.1,0 0.1,0 0.2,0.1 0.1,0.2 0.1,1.5 -0.2,1.5" /><path
     id="path3915"
     class="st2"
     d="m 41.7,51.2 c 0.1,0 0.2,0 0.3,0 0.2,0 0.4,0 0.7,0 0.1,0 0.1,0 0.2,0 -0.2,-0.3 -0.6,-0.6 -0.9,-0.9 -0.7,-0.7 -1.4,-1.4 -2.1,-2.1 -0.1,-0.1 -0.3,-0.3 -0.5,-0.4 -0.2,-0.2 -0.5,-0.5 -0.7,-0.7 -0.1,-0.1 -0.3,-0.3 -0.5,-0.4 0,0 0,0 0,0.1 -0.1,0 -0.2,0.1 -0.3,0.2 -0.3,0.3 -0.5,0.6 -0.8,0.8 -0.8,0.8 -1.6,1.6 -2.4,2.4 -0.1,0.1 -1,1 -1,1.1 0.6,0.1 1.3,0 1.9,0 0.2,0 0.4,0 0.7,0 0.1,0 0.3,0 0.4,0.1 0,0 0,0 0,0.1 -0.1,0.1 -1.2,1.4 -1.2,1.4 V 53 c 0.7,0 1.5,0 2.2,0 0,0 0.1,0 0.1,0 v 0 C 37.7,52.8 37.6,52.7 37.5,52.5 37.3,52.3 37.1,52 37,51.7 c 0,-0.1 -0.1,-0.2 0,-0.2 0.1,-0.3 1.4,-0.1 1.7,-0.1 0.2,-0.1 0.6,0 0.8,0 0.3,0 0.7,-0.1 1.1,0 0.1,0 0.1,0.1 0.1,0.2 0,0.2 -0.5,0.9 -0.6,1.2 0,0.1 -0.1,0.1 -0.1,0.2 v 0 c 0,0 0,0 0,0 0.4,0 0.8,0 1.2,0 0.2,0 0.5,0 0.7,0 0,0 0.1,0 0.1,0 0,-0.2 -0.7,-1 -0.8,-1.2 -0.1,-0.1 -0.2,-0.2 -0.2,-0.3 0,-0.4 0.4,-0.3 0.7,-0.3" /><path
     id="path3917"
     class="st2"
     d="m 39.1,52.8 c 0.2,-0.1 0.8,-1 0.8,-1.2 -0.1,0 -0.3,0 -0.4,0 v 0 c -0.1,0 -0.1,0.1 -0.2,0.1 -0.1,0.1 -0.7,0.9 -0.7,1 v 0 0 c 0.2,0.1 0.4,0.1 0.5,0.1" /><path
     id="path3919"
     class="st2"
     d="m 35.3,51.6 c -0.2,0.2 -1.2,0.9 -1.2,1.1 0.2,0 0.4,0 0.5,0 0.2,-0.1 1,-0.9 1,-1.1 -0.1,0 -0.2,0 -0.3,0" /><path
     id="path3921"
     class="st2"
     d="m 43.7,52.7 c 0,-0.5 0,-1 -0.4,-1.2 -0.1,0.3 -0.1,0.7 -0.1,1.1 0,0.6 0,1.1 0,1.6 0,0.1 0,0.3 0,0.3 0,0 0,0 0,0 -0.8,0 -1.7,0 -2.5,0 -0.4,0 -0.8,0 -1.1,0 -0.7,0 -1.4,-0.1 -2.1,-0.1 -0.5,0 -1,0.1 -1.5,0.1 -0.3,0 -2.4,-0.2 -2.5,0 0,0 0,0.1 0,0.1 0.2,0.3 0.5,0.2 0.9,0.2 0.1,0 0.2,0 0.2,0 h 0.2 c 0.2,0 0.4,0 0.6,0 0.3,0 0.7,0 1,0 0.1,0 0.2,0 0.3,0 0.1,-0.1 0.6,0 0.8,0 0.1,0 0.2,0 0.2,0 0.4,0 0.7,0 1.1,0 0.2,-0.1 0.5,0 0.7,0 0.5,0 0.9,0 1.4,0 0.1,-0.1 0.3,0 0.5,0 0.2,-0.1 0.4,0 0.6,0 0.4,0 0.8,0 1.2,0 0,0 0.2,0 0.2,0 v 0 -0.1 c 0.1,-0.2 0,-0.5 0,-0.8 0,-0.2 0,-0.3 0.1,-0.5 0.3,-0.1 0.3,-0.4 0.2,-0.7" /><path
     id="path3923"
     class="st2"
     d="m 43.7,59.4 c 0,-0.2 0,-0.3 0,-0.4 0,-0.1 0,-0.3 0,-0.3 -0.1,-0.1 -0.2,-0.1 -0.4,-0.1 0,0 -0.1,0.1 -0.1,0.1 0,0.2 0,0.4 0,0.6 0,0.7 0,1.4 0,2 0.1,0 0.4,0 0.4,-0.2 0.1,-0.2 0.1,-0.8 0,-1.1 0,-0.1 0,-0.3 0.1,-0.6" /><path
     id="path3925"
     class="st2"
     d="m 51.4,59.8 c -0.5,-0.5 -1,-1 -1.5,-1.4 -0.6,-0.6 -1.2,-1.3 -1.9,-1.9 -0.2,-0.2 -0.5,-0.4 -0.7,-0.7 -0.1,-0.1 -0.2,-0.2 -0.3,-0.3 -0.9,-1 -2,-1.9 -2.9,-2.8 -0.1,0.4 0,0.8 0,1.2 0,0.3 0,0.5 0,0.8 0,0.2 0,0.6 0,0.7 -0.1,0.2 -1.5,0.2 -1.8,0.2 -0.1,0 -0.5,0 -0.6,0.1 0,0 0,0.1 0,0.1 0.1,0.4 0.3,0.8 0.4,1.1 0.1,0.2 0.2,0.9 0.4,1.1 0.1,0.1 0.6,0.1 0.7,0.1 0.1,-0.1 0.5,0 0.6,0 0.3,-0.1 0.2,0.5 0.2,0.6 0,0.2 0,0.3 0,0.5 0,0.3 -0.1,2 0.1,2.1 0.1,0.1 0.5,0 0.7,0 0.1,0 0.2,-0.1 0.3,-0.1 0.1,-0.1 0.4,0 0.5,0 0.1,0 0.1,0 0.2,0 0.1,-0.1 0.4,0 0.6,0 0.1,0 0.4,-0.1 0.4,-0.1 0.1,0 0.2,0.1 0.3,0.1 0.1,0 0.2,0 0.3,0 0.2,-0.1 0.5,-0.1 0.8,-0.1 0.1,0 0.1,0 0.2,0 0.1,-0.1 0.3,0 0.5,0 0.1,0 0.1,0 0.2,0 0.1,0 0.1,0 0.2,0 0.1,-0.1 0.2,0 0.3,-0.1 0.1,0 0.3,-0.1 0.4,-0.1 0.2,0 0.4,-0.1 0.7,-0.1 0.1,-0.1 0.4,-0.1 0.5,-0.1 0.1,0 0.2,-0.1 0.3,-0.1 0,0 0.2,-0.1 0.2,-0.2 0,-0.4 -0.2,-0.5 -0.3,-0.6" /><path
     id="path3927"
     class="st2"
     d="m 56.8,33.9 c 0,-0.1 0,-0.2 0,-0.3 0,-0.1 0,-0.2 0,-0.3 0,-0.2 0,-0.4 0,-0.6 0,-0.3 0,-0.6 0,-1 0,-0.3 0,-0.6 0,-0.9 0,-0.6 0,-1.2 0,-1.8 0,-0.2 0.1,-0.7 -0.1,-0.9 -0.1,0.2 -0.4,0.4 -0.6,0.6 -0.7,0.8 -1.5,1.5 -2.3,2.3 -0.5,0.5 -1,1.1 -1.5,1.6 -0.3,0.2 -0.5,0.5 -0.8,0.8 -0.2,0.2 -0.5,0.5 -0.7,0.7 -0.2,0.2 -0.4,0.3 -0.5,0.5 -0.1,0.2 -0.3,0.3 -0.4,0.5 -0.2,0.2 -0.3,0.3 -0.5,0.5 -0.2,0.2 -0.3,0.3 -0.5,0.5 -0.1,0.1 -0.1,0.1 -0.2,0.2 -0.2,0.2 -0.4,0.4 -0.6,0.6 -0.2,0.2 -0.4,0.5 -0.6,0.7 -0.2,0.2 -0.6,0.5 -0.7,0.7 0,0 0,0 0,0.1 0,0.1 1.3,1.4 1.5,1.6 1,1 2.1,2 3.1,3 0.1,0.1 0.2,0.2 0.2,0.3 0.2,0.1 0.3,0.3 0.4,0.4 0.2,0.2 0.3,0.4 0.5,0.5 1,1.1 2.1,2.1 3.2,3.2 0.1,0.1 1,1.1 1.1,1.1 0.2,0 0.1,-0.9 0.1,-1.1 0,-0.2 0,-0.3 0,-0.5 0,-0.1 0,-0.3 0,-0.4 0,-0.1 0,-0.2 0.1,-0.4 0,-0.2 -0.1,-0.4 0,-0.6 0,-0.1 0,-0.2 0,-0.3 0,-0.4 0,-0.9 0,-1.2 0,-0.2 0,-0.5 0,-0.7 0,-0.1 0,-0.2 0,-0.4 0,-0.2 0,-0.3 0,-0.5 0,-0.2 0,-0.5 0,-0.7 0,-0.1 0,-0.2 0,-0.2 0,-0.2 0,-0.4 0.1,-0.7 0,-0.4 0,-0.7 -0.1,-1.1 0,-0.3 0.1,-0.6 0.1,-0.9 0,-0.2 0,-0.4 -0.1,-0.6 0,-0.1 0,-0.2 0,-0.3 0,-0.3 0,-0.6 0,-1 0,-0.1 0,-0.3 0,-0.4 0,-0.3 0,-0.5 -0.1,-0.8 0,-0.5 0,-1 0,-1.5 -0.1,-0.1 -0.1,-0.2 -0.1,-0.3" /><path
     id="path3929"
     class="st2"
     d="m 43.2,20.8 c -0.1,0.1 -0.1,0.2 -0.2,0.3 -0.1,0.1 -0.1,0.2 -0.2,0.3 -0.1,0.2 -0.3,0.2 -0.4,0.4 -0.1,0.1 -0.1,0.3 -0.3,0.4 -0.3,0.2 -0.5,0.5 -0.6,0.8 0,0.1 -0.1,0.1 -0.1,0.2 0,0 -0.1,0.1 0,0.1 0,0.1 0.1,0.2 0.2,0.3 0.2,0.2 0.3,0.4 0.3,0.7 0,0.2 0.1,0.4 0.1,0.6 0,0.2 -0.1,0.4 -0.2,0.6 0,0.1 0,0.3 -0.1,0.4 -0.1,0.1 -0.1,0.2 -0.2,0.3 -0.1,0.1 -0.1,0.2 -0.2,0.3 -0.2,0.3 -0.5,0.4 -0.8,0.6 -0.1,0.1 -0.2,0.2 -0.4,0.3 -0.2,0.1 -0.4,0.1 -0.6,0.3 -0.2,0.1 -0.3,0.3 -0.4,0.5 -0.1,0.1 -0.2,0.1 -0.3,0.2 -0.1,0.2 0,0.3 0,0.5 0,0.1 0,0.2 -0.1,0.3 0,0.2 0,0.4 0,0.6 0,0.1 0,0.2 0,0.2 v 0 0 0 0 c 0.2,-0.1 0.4,-0.4 0.6,-0.6 0.6,-0.6 1.2,-1.2 1.8,-1.8 0.3,-0.3 0.7,-0.7 1,-1 0.2,-0.2 0.3,-0.4 0.5,-0.6 0.3,-0.3 0.7,-0.6 1,-1 0.1,-0.1 0.2,-0.3 0.3,-0.4 0.1,-0.1 0.2,-0.2 0.3,-0.3 0.2,-0.2 0.4,-0.4 0.6,-0.5 0.5,-0.5 1,-1.1 1.5,-1.6 0.1,-0.1 0.3,-0.2 0.4,-0.4 0.6,-0.6 1.1,-1.1 1.7,-1.7 0.3,-0.3 0.7,-0.6 0.9,-0.9 0,0 0,0 0,0 0,0 0,0 0,0 v 0 0 c -0.2,0.1 -0.5,0.1 -0.8,0 -0.1,0 -0.1,0 -0.2,0 -0.2,0 -0.4,0.1 -0.6,0.1 -0.2,0 -0.5,-0.1 -0.7,-0.1 -0.2,0 -0.4,0 -0.6,0 -0.1,0.1 -0.2,0 -0.4,0.1 -0.3,0 -0.6,0 -0.9,0 -0.1,0 -0.3,0 -0.5,0 -0.1,0.1 -0.1,0.1 -0.2,0.2 -0.2,0.2 -0.3,0.4 -0.5,0.6 -0.1,0.1 -0.1,0.2 -0.2,0.2 -0.1,0.1 -0.2,0.1 -0.3,0.2 -0.1,0.1 -0.1,0.1 -0.2,0.2 0.2,0 0.1,0 0,0.1" /><path
     id="path3931"
     class="st2"
     d="M 41.4,21.4 C 41.3,21.6 41,21.7 41,22 c 0,0.1 0,0.2 0,0.3 0,0 0.1,0 0.1,0 v 0 c 0.2,-0.3 0.6,-0.7 0.3,-0.9" /><path
     id="path3933"
     class="st2"
     d="m 40.9,25.6 c 0,0 0.1,0.1 0.1,0 0.2,-0.1 0.3,-0.3 0.3,-0.5 v 0 c -0.1,0.2 -0.4,0.3 -0.4,0.5" /><path
     id="path3935"
     class="st2"
     d="m 40.7,23.6 c -0.1,0.1 -0.2,0.2 -0.2,0.2 0,0.1 0,0.9 0,1 0,0.1 0.1,0.1 0.2,0.1 0.1,0 0.1,-0.1 0.2,-0.1 0.3,-0.3 0.2,-0.6 0.1,-0.9 -0.1,-0.2 -0.1,-0.3 -0.3,-0.3" /><path
     id="path3937"
     class="st2"
     d="m 40,26.6 c 0.1,0.1 0.5,-0.1 0.5,-0.2 0,0 0,0 0,0 -0.1,-0.1 -0.2,-0.1 -0.3,-0.1 -0.1,0 -0.3,0.2 -0.2,0.3" /><path
     id="path3939"
     class="st2"
     d="m 41.9,20.6 c -0.1,0.1 -0.2,0.3 0,0.4 0.1,0 0.2,0.1 0.2,0 0.1,-0.1 0.2,-0.3 0.3,-0.4 0.2,-0.2 0.9,-1.2 1.2,-1.2 v -0.1 c -0.2,0 -0.4,0 -0.6,-0.1 -0.1,0.1 -0.2,0.2 -0.2,0.2 -0.1,0.1 -0.2,0.3 -0.3,0.4 -0.1,0.1 -0.2,0.2 -0.3,0.2 -0.1,0 -0.1,0.1 -0.2,0.1 -0.1,0.3 -0.1,0.4 -0.1,0.5" /><path
     id="path3941"
     class="st2"
     d="m 40.2,21.3 c -0.1,0.1 -0.4,0.6 -0.4,0.7 h 0.1 c 0.2,0.1 0.4,0 0.5,-0.1 0.1,-0.1 0.1,-0.3 0.3,-0.4 0.1,-0.1 0.1,-0.1 0.2,-0.2 0.1,-0.1 0.1,-0.1 0.2,-0.2 0.1,-0.1 0.1,-0.1 0.2,-0.2 0.1,-0.1 0.1,-0.2 0.2,-0.3 0.1,-0.1 0.2,-0.3 0.3,-0.4 0.1,-0.1 0.2,-0.3 0.3,-0.4 0.1,-0.1 0.2,-0.2 0.2,-0.4 -0.1,0 -0.2,0 -0.3,0 -0.1,0.1 -0.3,0.1 -0.3,0.2 -0.1,0.1 -0.1,0.3 -0.2,0.4 -0.1,0.1 -0.3,0.2 -0.4,0.3 -0.1,0.1 -0.1,0.3 -0.1,0.4 0,0.1 -0.1,0.1 -0.2,0.2 0,0.1 0,0.2 -0.1,0.2 -0.3,0.1 -0.4,0.1 -0.5,0.2" /><path
     id="path3943"
     class="st2"
     d="m 38.7,21.6 c 0,0 0,0.3 0,0.3 v 0 c 0.3,-0.1 0.6,-0.5 0.8,-0.8 0.1,-0.1 0.1,-0.3 0.2,-0.4 0.1,-0.1 0.1,-0.2 0.2,-0.3 0.1,-0.3 0.3,-0.7 0.5,-1 0,0 0,0 0.1,0 v -0.1 c -0.1,0 -0.3,0 -0.4,0 -0.2,0.1 -0.9,0 -1,0.1 -0.1,0.1 -0.1,0.3 -0.1,0.4 0,0.1 -0.2,0.2 -0.2,0.3 -0.1,0.2 0.1,0.4 0.1,0.6 0,0.2 -0.1,0.3 -0.1,0.4 -0.1,0.3 -0.1,0.4 -0.1,0.5" /><path
     id="path3945"
     class="st2"
     d="m 38.1,23.6 c -0.1,0 -0.4,0.4 -0.4,0.4 0,0.2 0.2,1 0.4,1 0.2,0 0.4,-0.2 0.5,-0.3 0.1,-0.1 0.3,-0.2 0.4,-0.4 0.1,-0.2 -0.5,-0.6 -0.6,-0.7 -0.1,0 -0.2,0 -0.3,0 0,0 0,0 0,0" /><path
     id="path3947"
     class="st2"
     d="m 37.7,25.4 c 0.1,-0.3 -0.6,-0.8 -0.8,-0.9 -0.2,0.2 -0.1,0.2 -0.2,0.4 0,0.1 -0.1,0.2 -0.1,0.2 -0.1,0.2 0.1,0.6 0.2,0.7 0.1,0.1 0.1,0.1 0.2,0.1 0.1,0 0.3,-0.2 0.4,-0.3 0.2,0 0.3,-0.1 0.3,-0.2" /><path
     id="path3949"
     class="st2"
     d="m 37.3,26.8 c -0.1,-0.1 -0.1,-0.2 -0.2,-0.3 0,0 -0.1,0 -0.2,-0.1 -0.3,0.5 0.1,0.6 0.5,0.7 0,0 0.1,0 0.1,0 v 0 c 0,-0.1 -0.1,-0.2 -0.2,-0.3" /><path
     id="path3951"
     class="st2"
     d="m 36,24.6 c 0.1,0 0.2,-0.1 0.3,-0.2 0.3,-0.4 0.1,-0.7 -0.3,-1 v 0 c -0.1,0 -0.3,0.3 -0.3,0.3 0,0.1 0.1,0.2 0.1,0.3 0,0.3 -0.1,0.7 0.2,0.6" /><path
     id="path3953"
     class="st2"
     d="m 36.9,23.7 c 0.2,0 0.9,-0.5 0.8,-0.7 -0.1,-0.1 -0.2,-0.1 -0.3,-0.1 -0.3,0.1 -0.5,0.2 -0.8,0.2 -0.1,0 -0.1,0 -0.2,0 v 0.1 c 0.1,0.2 0.2,0.5 0.5,0.5" /><path
     id="path3955"
     class="st2"
     d="m 36.2,26.6 c 0.1,0 0.5,-0.3 0.5,-0.4 0,-0.1 -0.5,-0.6 -0.6,-0.7 -0.1,0 -0.1,0 -0.2,0 -0.1,0.3 0,0.7 0.1,1 0.1,0.1 0.1,0.2 0.2,0.1" /><path
     id="path3957"
     class="st2"
     d="m 37.1,21 c 0.1,0.2 0.5,1.3 0.9,1.3 v 0 0 c 0,-0.3 0,-0.5 0,-0.8 0,-0.4 0.1,-0.8 0.1,-1.2 0,-0.1 0,-0.2 0.1,-0.3 0,-0.1 0,-0.2 -0.1,-0.3 0,-0.1 0,-0.2 0,-0.3 -0.2,0 -0.6,0 -0.8,-0.1 -0.2,0 -0.5,0 -0.6,0.1 -0.3,0.3 0.1,1 0.2,1.3 0,0.1 0.1,0.1 0.2,0.3" /><path
     id="path3959"
     class="st2"
     d="m 36.5,22.2 c 0.1,0 0.2,0 0.3,0 0.1,0 0.1,-0.2 0.1,-0.3 0,-0.1 0,-0.3 -0.1,-0.4 -0.1,-0.1 -0.1,-0.2 -0.2,-0.4 -0.1,-0.2 -0.2,-0.4 -0.3,-0.7 -0.1,-0.3 -0.3,-0.9 -0.6,-1.1 -0.1,-0.1 -0.3,0 -0.5,0 -0.1,0.1 -0.6,0.1 -0.6,0.2 0,0 0,0 0,0 0,0 0,0 0,0 v 0 c -0.1,0.2 1.8,2.6 1.9,2.7" /><path
     id="path3961"
     class="st2"
     d="m 33.1,19.6 c 0.1,0.2 0.3,0.3 0.5,0.5 0.1,0.2 0.2,0.4 0.3,0.5 0,0 0,0 0,0 0.1,0.1 0.3,0.1 0.4,0.3 0.2,0.2 0.4,0.5 0.5,0.8 0.1,0.1 0.2,0.2 0.3,0.3 0.2,0.2 0.3,0.4 0.5,0.5 0.1,0.1 0.3,0.1 0.4,0.1 0,0 0,-0.1 0.1,-0.1 -0.1,-0.2 -0.3,-0.4 -0.4,-0.6 -0.1,-0.1 -0.2,-0.1 -0.3,-0.2 0,-0.1 -0.1,-0.1 -0.1,-0.2 -0.1,-0.1 -0.2,-0.3 -0.3,-0.4 -0.1,-0.1 -0.3,-0.3 -0.4,-0.4 -0.1,-0.1 -0.1,-0.3 -0.2,-0.4 -0.2,-0.2 -0.3,-0.5 -0.6,-0.7 -0.1,-0.1 -0.3,-0.2 -0.5,-0.2 0,0 -0.2,0 -0.2,0.2 0,0 0,0 0,0 0,0 0,0 0,0" /><path
     id="path3963"
     class="st2"
     d="m 28.1,20.2 c 0.5,0.5 1,1 1.5,1.5 0.2,0.2 0.5,0.5 0.7,0.7 0.9,0.8 1.7,1.7 2.6,2.5 0.1,0.1 0.2,0.2 0.3,0.4 0.3,0.3 0.5,0.5 0.8,0.8 0.5,0.5 1,0.9 1.5,1.4 0.2,0.3 0.5,0.5 0.7,0.8 0.3,0.3 0.7,0.6 1,0.9 0.2,0.2 0.6,0.7 0.8,0.7 0,-0.2 -0.1,-0.6 -0.1,-0.8 0,-0.1 0,-0.2 0,-0.3 0,-0.1 0,-0.2 -0.1,-0.3 C 37.7,28.4 37.6,28.3 37.5,28.2 37.4,28.1 37.3,27.9 37.2,27.8 37,27.6 36.8,27.6 36.6,27.5 36.5,27.4 36.3,27.3 36.2,27.2 36.1,27.2 36,27.1 35.9,27.1 35.8,27 35.8,26.9 35.7,26.8 35.6,26.7 35.5,26.7 35.4,26.6 35.3,26.5 35.3,26.3 35.2,26.1 35.1,26 35.1,25.8 35,25.7 c 0,-0.1 -0.1,-0.3 -0.1,-0.4 0,-0.2 0,-0.4 0.1,-0.6 0,-0.1 0,-0.2 0.1,-0.4 0.1,-0.3 0.2,-0.5 0.5,-0.8 0.1,-0.1 0.2,-0.2 0.3,-0.2 C 35.8,23.1 35.7,23 35.5,22.8 35.4,22.7 35.3,22.7 35.3,22.6 35.2,22.5 35.1,22.3 34.9,22.1 34.7,21.9 34.4,21.7 34.2,21.4 34,21.2 33.8,21 33.6,20.8 33.3,20.5 33,20.2 32.8,20 c -0.2,-0.2 -0.4,-0.4 -0.6,-0.5 -0.2,-0.1 -0.4,0.1 -0.6,0.1 -0.1,0 -0.2,0 -0.3,-0.1 h -0.7 c -0.2,0 -0.3,0 -0.5,0 -0.2,0 -0.4,0 -0.6,0 -0.2,0.1 -0.6,0 -0.8,0 -0.4,0 -0.8,0 -1.1,0 -0.3,0.1 0.3,0.4 0.5,0.7" /><path
     id="path3965"
     class="st2"
     d="m 35.2,24.6 c 0,0.2 -0.1,0.7 0.2,0.6 0.4,-0.1 0,-0.5 -0.2,-0.6" /><path
     id="path3967"
     class="st2"
     d="m 25,43.2 c 0.3,-0.3 0.5,-0.6 0.8,-0.8 0.4,-0.4 0.8,-0.8 1.3,-1.2 0.3,-0.3 0.6,-0.6 0.9,-0.9 0.1,-0.1 0.2,-0.3 0.3,-0.4 0.4,-0.3 0.9,-0.8 1.2,-1.2 0,-0.1 0.1,-0.1 0.1,-0.2 0.1,-0.3 -1.9,-2.2 -2.2,-2.5 -0.5,-0.5 -1,-1 -1.5,-1.6 -0.5,-0.5 -1.1,-1 -1.6,-1.5 -0.1,-0.1 -0.2,-0.2 -0.2,-0.3 -0.2,-0.2 -0.5,-0.4 -0.7,-0.6 -0.1,-0.1 -0.2,-0.2 -0.3,-0.4 -0.3,-0.4 -0.7,-0.7 -1,-1 -0.2,-0.2 -0.3,-0.3 -0.5,-0.5 -0.5,-0.4 -0.9,-0.9 -1.4,-1.3 -0.2,-0.2 -0.4,-0.5 -0.7,-0.6 0,0.3 0,0.6 0,1 0,0.1 0,0.2 0,0.3 0,0.2 0,0.4 0,0.6 0,0.2 0,0.3 0,0.5 0,0.1 0,0.3 0,0.4 0,0.6 0,1.3 0,2 0,0.2 0,0.3 0,0.5 0,0.3 0,0.6 -0.1,1 0,0.7 0,1.3 0,2 0,0.3 0,0.6 0,0.9 0,0.4 0,0.8 0,1.2 0,0.2 0,0.4 0,0.6 0,0.2 0,0.3 0,0.4 0,0.5 0,1 0,1.5 0,0.2 0,0.4 0,0.5 0,0.3 0,0.6 0,0.9 0,0.2 0,0.4 0,0.6 0,0.5 0,0.9 0,1.4 0,0.2 0,0.3 0,0.5 0,0.5 0,0.9 0,1.4 0,0.6 0,1.2 0,1.7 0,0.2 0,0.4 0,0.6 0,0 0.1,0.2 0.1,0.1 v 0 c 0.1,-0.2 0.4,-0.4 0.6,-0.6 0.6,-0.5 1.1,-1.1 1.7,-1.6 0.4,-0.4 0.7,-0.8 1.1,-1.1 0.7,-0.6 1.4,-1.3 2.1,-1.9 -0.1,-0.3 0,-0.4 0,-0.4" /><path
     id="path3969"
     class="st2"
     d="m 34.7,57.4 c 0.1,-0.4 0.3,-0.8 0.5,-1.2 0.1,-0.2 0.2,-0.5 0.2,-0.8 -0.4,0 -0.8,0 -1.2,0 -0.2,0 -0.7,0 -0.9,-0.1 -0.1,-0.1 -0.1,-0.2 -0.2,-0.3 -0.1,-0.2 -0.2,-0.3 -0.3,-0.5 -0.1,-0.2 0,-0.4 0,-0.7 0,-0.4 0,-0.7 0,-1 0,-0.2 0.1,-0.8 0,-1 -0.2,0.2 -0.3,0.4 -0.5,0.5 -0.6,0.6 -1.2,1.2 -1.8,1.8 -0.4,0.4 -0.9,0.9 -1.3,1.4 -0.7,0.7 -1.5,1.4 -2.2,2.1 -0.1,0.1 -0.2,0.3 -0.3,0.4 -0.1,0.1 -0.3,0.3 -0.4,0.4 -0.3,0.3 -0.6,0.5 -0.9,0.8 -0.2,0.2 -0.4,0.4 -0.6,0.6 -0.2,0.2 -0.5,0.4 -0.6,0.6 0,0 0,0 0,0 v 0.1 0 c 0.2,0.1 0.5,0.1 0.8,0.1 0.3,0.1 0.6,0.1 1,0.2 0.1,0 0.3,0 0.4,0 0.1,0 0.2,0 0.3,0.1 0.2,0 0.4,0.1 0.7,0.1 0.3,0 0.5,0 0.8,0.1 0.6,0.1 1.2,0.2 1.8,0.2 0.1,0 0.3,0 0.4,0 0.3,0 0.6,0.1 0.8,0.1 0.1,0 0.3,0 0.4,0.1 0.2,0 0.4,0 0.6,0 0.2,0 0.4,0.1 0.6,0.1 v 0 c 0.1,0 0.1,-0.1 0.1,-0.2 0.1,-0.3 0,-0.8 0,-1.1 0,-0.7 0,-1.4 0,-2.1 0,-0.1 0,-0.1 0.1,-0.2 0.1,-0.1 0.9,0 1.1,0 0.1,0 0.1,0 0.2,0 0.1,0 0.2,0 0.3,-0.1 0,-0.1 0,-0.3 0.1,-0.5" /><path
     id="path3971"
     class="st2"
     d="m 37.2,62.7 c 0.1,0 0.3,0 0.3,0 v 0 c 0,-0.4 0,-0.8 0,-1.2 0,-0.4 0,-1 0.2,-1.3 0.2,-0.4 0.3,-0.7 0.8,-0.7 0.1,0 0.1,0 0.1,-0.1 0,-0.3 -0.5,-0.4 -0.7,-0.4 -0.1,0 -0.2,0.1 -0.4,0.1 -0.8,0.4 -0.7,1.6 -0.7,2.4 0,0.1 0,0.5 -0.1,0.6 -0.2,0.2 -2,0.1 -2.4,0.1 0,0 0,0 0,0 v 0 0 0 c 0.2,0.1 0.4,0.1 0.6,0.2 0.2,0.1 0.5,0.3 0.8,0.3 0.3,0 0.6,0 1,0 0.2,0 0.4,0 0.5,0" /><path
     id="path3973"
     class="st2"
     d="M 39.1,62.3 C 39.1,62.2 39,62.1 39,62 c 0,-0.5 0,-0.9 0,-1.4 0,-0.2 0,-0.4 0,-0.6 0,-0.1 -0.1,-0.1 -0.1,-0.1 -0.2,0.1 -0.3,0.1 -0.5,0.2 -0.1,0.1 -0.2,0.4 -0.2,0.5 0,0.1 -0.1,0.3 -0.1,0.5 0,0.3 0,0.6 0,0.8 0,0.1 0,0.2 0,0.4 0,0.1 0,0.2 0,0.4 0,0.1 0,0.3 0,0.4 0,0.1 0,0.1 0,0.2 -0.3,0 -0.6,0 -0.9,0 -0.1,0 -0.2,0 -0.3,0.1 0,0 -0.1,0 -0.1,0 v 0 0 0 0 c 0.2,0.1 0.5,0.3 0.7,0.4 0.2,0.2 0.3,0.4 0.5,0.5 v 0 c 0.1,-0.3 0.4,-0.5 0.6,-0.7 0.1,-0.1 0.2,-0.2 0.3,-0.3 0.2,-0.2 0.4,-0.3 0.5,-0.5 0,0 0,0 0,0 -0.2,-0.2 -0.2,-0.4 -0.3,-0.5" /><path
     id="path3975"
     class="st2"
     d="m 39.6,62 c 0,0.2 0.1,0.4 0.2,0.5 0,0 0,0 0,0 0.2,-0.1 0.5,-0.2 0.7,-0.3 0.1,0 0.2,-0.1 0.3,-0.1 V 62 c -0.3,0 -0.6,0 -0.9,0 0,0 -0.2,0 -0.3,0" /><path
     id="path3977"
     class="st2"
     d="M 1.3,32.7 C 0.7,32.5 0.6,32.1 0.8,31.4 l 0.2,-0.9 4.3,1 C 6,31.7 6.1,31.9 6,32.3 h 0.2 l 0.4,-2 H 6.4 c -0.1,0.5 -0.3,0.6 -1,0.4 l -4.3,-1 0.2,-0.9 c 0.2,-0.9 0.6,-1 1.1,-1 V 27.7 L 1.1,27.4 v 0.2 c 0.1,0.2 0.1,0.4 0,0.9 L 0.4,31.4 C 0.3,31.6 0.3,31.8 0.2,31.9 0.1,32 0.1,32.1 0,32.2 v 0.2 l 1.3,0.3 v 0" /><path
     id="path3979"
     class="st2"
     d="m 3.7,24.2 3.2,1.6 c 0.7,0.3 0.7,0.6 0.5,1 L 7.6,26.9 8.5,25 8.3,24.9 c -0.2,0.4 -0.5,0.5 -1.1,0.2 l -1.5,-0.7 1.4,-2.8 1.5,0.7 c 0.7,0.3 0.7,0.6 0.5,1 L 9.3,23.4 10.2,21.6 10,21.4 C 9.8,21.8 9.5,21.9 8.9,21.6 L 5.7,20 C 5.1,19.7 4.9,19.5 5.2,19 H 5 l -0.9,1.8 0.2,0.1 C 4.5,20.5 4.8,20.4 5.4,20.7 L 6.9,21.4 5.5,24.2 4,23.6 C 3.3,23.3 3.3,23 3.5,22.6 L 3.3,22.5 2.4,24.4 2.6,24.5 C 2.8,24 3.1,23.9 3.7,24.2" /><path
     id="path3981"
     class="st2"
     d="m 13.7,15.2 -0.1,0.1 c 0.4,0.7 0.3,0.9 -0.3,1.6 l -0.6,0.8 c -0.2,0.2 -0.4,0.3 -0.6,0.1 l -1.6,-1.3 0.9,-1.1 c 0.4,-0.5 0.5,-0.5 0.9,-0.3 l 0.1,-0.1 -1.1,-0.9 -0.1,0.1 c 0.3,0.4 0.3,0.5 0,0.8 l -1,1.2 -1.9,-1.6 1.1,-1.3 C 9.8,12.8 10,12.7 10.5,13 l 0.1,-0.1 -0.6,-0.5 -2.6,3.2 0.1,0.1 c 0.3,-0.4 0.6,-0.4 1.1,0.1 l 2.8,2.3 c 0.6,0.5 0.6,0.7 0.3,1.1 l 0.1,0.1 2.6,-3.2 -0.7,-0.9" /><path
     id="path3983"
     class="st2"
     d="m 22,10.3 c 0.7,-0.4 1,-0.9 1.2,-1.8 l 0.4,0.7 1.2,-0.7 -0.1,-0.1 c -0.4,0.2 -0.6,0.2 -1,-0.5 L 22,4.8 C 21.7,4.2 21.7,3.9 22.1,3.7 L 22,3.6 l -1.8,1 0.1,0.1 c 0.4,-0.2 0.7,-0.1 1,0.5 l 1.7,3 C 23,8.9 22.6,9.5 22,9.8 21.2,10.3 20.4,10 20,9.2 L 18.6,6.7 C 18.2,6.1 18.3,5.8 18.7,5.6 l -0.1,-0.1 -1.8,1 0.2,0.1 c 0.4,-0.2 0.6,-0.2 1,0.5 l 1.4,2.5 c 0.5,0.8 1.4,1.3 2.6,0.7" /><path
     id="path3985"
     class="st2"
     d="M 31.7,0.7 V 0.5 L 30,0.9 v 0.2 c 0.5,-0.1 0.7,0 0.9,0.7 L 31.7,5 V 5 L 27.1,1.6 25.7,2 v 0.2 c 0.7,-0.1 0.9,0.2 1.1,0.8 l 0.8,3.2 c 0.2,0.8 0,1 -0.4,1.1 V 7.5 L 29,7.1 V 6.9 C 28.5,7 28.2,6.9 28.1,6.3 l -1,-3.9 v 0 l 5.2,3.8 h 0.2 L 31.3,1.7 C 31,1.1 31.1,0.8 31.7,0.7" /><path
     id="path3987"
     class="st2"
     d="m 36.1,1.2 0.2,3.6 c 0,0.7 -0.1,0.9 -0.6,0.9 V 5.9 L 37.8,5.8 V 5.6 C 37.3,5.6 37.1,5.4 37.1,4.7 L 36.9,1.1 C 36.9,0.4 37,0.2 37.5,0.2 V 0 l -2.1,0.1 v 0.2 c 0.5,0 0.6,0.2 0.7,0.9" /><path
     id="path3989"
     class="st2"
     d="M 46.3,0.9 V 0.7 L 44.6,0.5 v 0.2 c 0.5,0.1 0.6,0.4 0.3,0.9 L 43.1,5 42.2,1.1 C 42.1,0.6 42.3,0.4 42.7,0.5 V 0.3 L 40.7,0 v 0.2 c 0.5,0.1 0.6,0.4 0.8,1.1 l 1.1,4.8 h 0.2 l 2.3,-4.3 c 0.4,-0.6 0.7,-0.9 1.2,-0.9" /><path
     id="path3991"
     class="st2"
     d="M 50.3,7.7 49.4,7.4 C 49,7.2 49,7.1 49.1,6.8 l 0.7,-1.9 1.3,0.5 c 0.6,0.2 0.6,0.3 0.6,0.8 L 51.9,6.3 52.3,5 52.1,4.9 c -0.2,0.4 -0.4,0.4 -0.8,0.3 l -1.5,-0.6 0.8,-2.3 1.6,0.6 c 0.6,0.2 0.8,0.3 0.7,1 H 53 L 53.4,3 49.5,1.6 49.4,1.8 c 0.5,0.2 0.5,0.4 0.3,1.1 L 48.5,6.3 C 48.2,6.9 48,7 47.6,6.8 L 47.5,7 51.4,8.4 52,7.5 51.8,7.4 C 51.3,8 51.1,8 50.3,7.7" /><path
     id="path3993"
     class="st2"
     d="m 56,10.7 c -0.4,-0.3 -0.4,-0.5 0,-1.1 l 0.9,-1.3 0.4,0.3 c 0.9,0.6 0.4,1.9 0.6,3.5 l 1,0.6 0.1,-0.1 C 58.2,12 59,10.2 58.5,9.1 59.3,9.3 59.9,9.1 60.3,8.6 60.7,8 60.6,7 59.5,6.3 L 57.5,5 57.4,5.1 c 0.4,0.3 0.5,0.5 0.1,1.1 l -2,3 c -0.4,0.6 -0.7,0.6 -1,0.4 l -0.1,0.1 1.7,1.1 z m 2.4,-4.8 0.5,0.3 c 0.7,0.5 0.9,1.2 0.5,1.9 C 59,8.7 58.4,9 57.5,8.5 L 56.9,8.1 58.4,5.9" /><path
     id="path3995"
     class="st2"
     d="m 61,14.6 c 0.1,0.1 0.3,0.7 0.7,1.1 0.6,0.6 1.7,0.6 2.3,0 0.3,-0.3 0.5,-0.6 0.5,-1.2 0,-1.2 -0.8,-2.4 -0.1,-3.1 0.4,-0.4 0.9,-0.3 1.3,0.1 0.4,0.4 0.6,1.1 0.1,1.7 l 0.1,0.1 1,-0.9 -0.1,-0.1 c -0.1,0.1 -0.2,0.1 -0.2,0 -0.2,-0.2 -0.2,-0.5 -0.6,-1 -0.7,-0.7 -1.5,-0.7 -2.1,-0.1 -0.3,0.3 -0.5,0.7 -0.5,1.2 0,0.9 0.7,2.3 0,3 -0.4,0.4 -1.1,0.4 -1.5,-0.1 -0.4,-0.4 -0.7,-1.2 0,-2 l -0.1,-0.1 -1.1,1.1 0.1,0.1 c 0,0.1 0.1,0.1 0.2,0.2" /><path
     id="path3997"
     class="st2"
     d="m 64.9,19 -0.1,0.1 1.2,1.7 0.1,-0.1 C 65.8,20.3 65.9,20 66.5,19.6 l 2.9,-2 c 0.6,-0.4 0.8,-0.4 1.1,0 l 0.1,-0.1 -1.2,-1.7 -0.1,0.1 c 0.3,0.4 0.2,0.6 -0.4,1.1 L 66,19 c -0.6,0.4 -0.9,0.3 -1.1,0" /><path
     id="path3999"
     class="st2"
     d="m 72.6,21.5 0.3,0.8 -4,1.8 c -0.7,0.3 -0.9,0.2 -1.1,-0.2 l -0.1,0.1 0.8,1.8 0.2,-0.1 c -0.2,-0.4 -0.1,-0.6 0.5,-0.9 l 4,-1.8 0.4,0.8 c 0.4,0.8 0.2,1.1 -0.2,1.4 v 0.1 l 1.2,-0.5 -0.1,-0.2 c -0.2,-0.1 -0.4,-0.3 -0.6,-0.7 l -1.3,-2.7 c -0.1,-0.2 -0.2,-0.4 -0.2,-0.5 0,-0.1 0,-0.2 0,-0.4 l -0.1,-0.2 -1.2,0.5 0.1,0.2 c 0.7,-0.2 1.1,0 1.4,0.7" /><path
     id="path4001"
     class="st2"
     d="M 76.2,31.4 H 76 c 0.1,0.5 -0.3,0.5 -0.8,0.4 l -1.6,-0.6 1.5,-1.5 c 0.3,-0.3 0.5,-0.3 0.7,0.3 H 76 l -0.5,-2.2 h -0.2 c 0.1,0.4 0,0.6 -0.5,1.2 l -1.6,1.6 -1.8,0.4 c -0.8,0.2 -0.9,-0.1 -1,-0.5 h -0.2 l 0.4,2 h 0.2 c -0.1,-0.5 0.1,-0.7 0.8,-0.8 l 1.8,-0.4 2.3,0.8 c 0.6,0.2 0.7,0.3 0.8,0.8 h 0.2 l -0.5,-1.5" /><path
     id="path4003"
     class="st2"
     d="M 5,51.3 C 6.6,50.8 7.5,49.2 7,47.5 6.5,45.8 4.9,44.9 3.3,45.4 1.7,45.9 0.8,47.5 1.2,49.2 1.7,50.9 3.3,51.8 5,51.3 M 1.4,49.2 C 1,48 1.9,46.8 3.5,46.3 5.1,45.8 6.4,46.4 6.8,47.7 7.1,48.8 6.4,50 4.7,50.5 3.3,50.9 1.8,50.6 1.4,49.2" /><path
     id="path4005"
     class="st2"
     d="M 8.8,53.1 C 9,53.5 9,53.8 8.3,54.1 L 5.2,55.9 C 4.6,56.3 4.3,56.2 4.1,55.8 l -0.2,0.1 1,1.8 L 5,57.6 C 4.8,57.2 4.9,56.9 5.5,56.6 L 7,55.8 7.8,57.1 C 8,57.4 7.9,57.7 7.5,58 L 7.6,58.1 9,57.3 8.9,57.2 C 8.5,57.4 8.2,57.4 8,57 l -0.7,-1.3 2.1,-1.2 0.7,1.3 c 0.3,0.5 0.4,0.7 -0.2,1.2 H 10 L 10.9,56.5 9,53.1 H 8.8" /><path
     id="path4007"
     class="st2"
     d="m 15.8,62.6 c 0.4,0.3 0.4,0.6 -0.1,1.1 l -2.3,2.8 c -0.5,0.6 -0.7,0.6 -1.1,0.3 l -0.1,0.1 3.2,2.6 0.9,-0.7 -0.1,-0.1 c -0.7,0.4 -0.9,0.3 -1.6,-0.3 l -0.8,-0.6 c -0.2,-0.2 -0.3,-0.4 -0.1,-0.6 l 1.3,-1.6 1.1,0.9 c 0.5,0.4 0.5,0.5 0.3,0.9 l 0.1,0.1 0.9,-1.1 -0.1,-0.1 c -0.4,0.3 -0.5,0.3 -0.8,0 l -1.2,-1 1.6,-1.9 1.3,1 c 0.5,0.4 0.6,0.6 0.3,1.1 l 0.1,0.1 0.6,-0.7 -3.2,-2.6 -0.2,0.3" /><path
     id="path4009"
     class="st2"
     d="m 24.3,68.2 -2.4,-1.1 -0.1,0.2 c 0.4,0.2 0.5,0.5 0.2,1.1 l -1.5,3.2 c -0.3,0.6 -0.6,0.7 -1,0.6 l -0.1,0.2 2.5,1.1 c 2,0.9 3.4,0.1 4,-1.2 0.7,-1.4 0.4,-3.2 -1.6,-4.1 m 0.9,3.6 c -0.7,1.4 -1.8,2 -3.1,1.4 L 21.5,73 C 21,72.8 20.9,72.5 21.3,71.7 l 1.8,-3.8 1,0.5 c 1.6,0.7 1.7,2.2 1.1,3.4" /><path
     id="path4011"
     class="st2"
     d="m 30.2,70.5 c 0.5,0.1 0.6,0.3 0.4,1 L 29.9,75 c -0.2,0.7 -0.4,0.9 -0.8,0.7 v 0.2 l 2,0.4 v -0.2 c -0.5,-0.1 -0.6,-0.4 -0.4,-1 l 0.8,-3.5 c 0.1,-0.7 0.4,-0.8 0.8,-0.7 v -0.2 l -2,-0.4 -0.1,0.2" /><path
     id="path4013"
     class="st2"
     d="m 39.9,71.3 v 0.2 c 0.5,0 0.7,0.2 0.7,0.9 v 3.4 0 L 37,71.3 h -1.5 v 0.2 c 0.7,0.1 0.9,0.4 0.9,1.1 V 76 c 0,0.8 -0.2,1 -0.7,1 v 0.2 h 1.7 V 77 c -0.5,0 -0.8,-0.2 -0.8,-0.8 l -0.1,-4 v 0 l 4.1,4.9 H 41 v -4.7 c 0,-0.7 0.2,-0.9 0.7,-0.9 v -0.2 h -1.8" /><path
     id="path4015"
     class="st2"
     d="m 48.6,72.6 v 0 c 0.7,-0.5 0.9,-1 0.8,-1.6 -0.2,-0.7 -1,-1.2 -2.3,-0.8 L 45,70.8 V 71 c 0.5,-0.1 0.7,0 0.9,0.7 l 0.9,3.4 c 0.2,0.7 0.1,0.9 -0.4,1 v 0.2 l 2.5,-0.7 c 1,-0.3 1.6,-1 1.4,-1.8 -0.1,-0.8 -0.8,-1.3 -1.7,-1.2 m -2.2,-2 0.6,-0.2 c 0.9,-0.2 1.5,0.1 1.7,0.8 0.2,0.7 -0.2,1.3 -1,1.5 L 47,72.9 Z m 2.4,4.8 -0.5,0.1 c -0.4,0.1 -0.6,0 -0.8,-0.8 L 47.1,73.1 47.6,73 c 1,-0.3 1.7,0.1 2,0.9 0.2,0.8 -0.3,1.3 -0.8,1.5" /><path
     id="path4017"
     class="st2"
     d="M 59.2,69.7 57.4,66.6 C 57,66 57.1,65.7 57.5,65.5 l -0.1,-0.1 -1.7,1 0.1,0.1 c 0.4,-0.2 0.7,-0.1 1,0.5 l 1.7,3 c 0,0.7 -0.4,1.3 -0.9,1.6 -0.8,0.5 -1.6,0.2 -2,-0.6 L 54,68.6 C 53.6,68 53.7,67.7 54.1,67.5 l -0.1,-0.1 -1.8,1 0.1,0.1 c 0.4,-0.2 0.6,-0.2 1,0.5 l 1.4,2.4 c 0.5,0.9 1.5,1.4 2.7,0.7 0.7,-0.4 1,-0.9 1.2,-1.8 L 59,71 60.2,70.3 60.1,70.2 c -0.3,0.2 -0.5,0.2 -0.9,-0.5" /><path
     id="path4019"
     class="st2"
     d="m 64.1,63.3 c 0.4,-0.8 0.3,-1.4 -0.2,-1.8 -0.5,-0.5 -1.5,-0.6 -2.4,0.3 l -1.6,1.7 0.1,0.1 c 0.3,-0.3 0.6,-0.4 1.1,0.2 l 2.6,2.5 c 0.6,0.5 0.5,0.8 0.2,1.1 L 64,67.5 65.4,66 65.3,65.9 C 65,66.2 64.7,66.2 64.2,65.7 L 63,64.6 63.3,64.3 c 0.7,-0.7 1.9,0 3.6,0.1 l 0.8,-0.8 -0.1,-0.1 C 66.9,64.1 65.3,63 64.1,63.3 m -0.8,0.6 -0.5,0.5 -1.8,-1.8 0.4,-0.4 c 0.6,-0.6 1.4,-0.7 1.9,-0.1 0.5,0.4 0.7,1.1 0,1.8" /><path
     id="path4021"
     class="st2"
     d="m 70.8,54.8 -0.1,-0.1 -1.2,2 0.1,0.1 0.1,-0.2 c 0.2,-0.4 0.5,-0.4 1.1,0 l 0.5,0.3 c 0.4,0.3 0.2,0.8 0,1.1 -0.7,1.2 -2.3,1.4 -3.7,0.5 -1.3,-0.8 -1.8,-2.1 -1.1,-3.1 0.4,-0.7 1.3,-1.3 2.3,-0.8 l 0.1,-0.1 -1.4,-0.9 -0.1,0.2 c 0.1,0.1 0.1,0.2 0,0.4 -0.2,0.4 -0.6,0.5 -1,1.2 -0.7,1.2 -0.6,3.1 1.2,4.2 1.1,0.7 2.9,0.8 4.2,-1.4 0.1,-0.2 0.6,-1.1 0.7,-1.4 L 71.2,56 c -0.5,-0.5 -0.7,-0.7 -0.4,-1.2" /><path
     id="path4023"
     class="st2"
     d="m 74.9,46.7 -3.4,-1 c -0.7,-0.2 -0.8,-0.4 -0.7,-0.9 h -0.2 l -0.6,2 0.2,0.1 c 0.1,-0.5 0.4,-0.6 1.1,-0.4 L 72.9,47 72,50 70.4,49.5 C 69.7,49.3 69.6,49 69.7,48.6 h -0.2 l -0.6,2 h 0.2 c 0.1,-0.5 0.4,-0.6 1.1,-0.4 l 3.4,1 c 0.7,0.2 0.8,0.4 0.7,0.9 h 0.2 l 0.6,-2 h -0.2 c -0.1,0.5 -0.4,0.6 -1.1,0.4 l -1.5,-0.5 0.9,-3 1.6,0.5 c 0.7,0.2 0.8,0.4 0.7,0.9 h 0.2 l 0.6,-2 h -0.2 c -0.2,0.4 -0.5,0.5 -1.2,0.3" /><path
     id="path4025"
     class="st2"
     d="m 2,39.1 c 0,0.3 0.2,0.5 0.5,0.5 C 2.8,39.6 3,39.4 3,39.1 3,38.8 2.8,38.6 2.5,38.6 2.2,38.6 2,38.8 2,39.1" /><path
     id="path4027"
     class="st2"
     d="m 74.7,39.1 c 0,-0.3 -0.2,-0.5 -0.5,-0.5 -0.3,0 -0.5,0.2 -0.5,0.5 0,0.3 0.2,0.5 0.5,0.5 0.3,0 0.5,-0.3 0.5,-0.5" /></g></svg>
