<svg width="342.4" height="97.2" version="1.1" viewBox="0 0 342.4 97.2" xml:space="preserve" xmlns="http://www.w3.org/2000/svg">
<style type="text/css">
	.st0{clip-path:url(#SVGID_2_);}
	.st1{fill:none;stroke:#FFFFFF;stroke-width:3;stroke-miterlimit:1;}
	.st2{fill:#FFFFFF;}
	.st3{fill:none;stroke:#FFFFFF;stroke-miterlimit:1;}
</style>
<g transform="translate(10,10)"><path class="st2" d="m107.6 17.3h-2.8v14c0 1.1 0.1 1.8 0.4 2.2s0.8 0.6 1.6 0.6v0.5h-6.4v-0.5c0.8 0 1.3-0.2 1.6-0.7 0.3-0.4 0.4-1.2 0.4-2.2v-13.9h-2.6c-1.3 0-2.2 0.2-2.8 0.6s-0.9 1.1-1 2h-0.5v-4.2h0.5c0.5 0.5 1.4 0.7 2.7 0.7h9.5c1.4 0 2.3-0.2 2.9-0.7h0.6v4.2h-0.4c-0.2-1-0.6-1.7-1.2-2.1-0.5-0.3-1.3-0.5-2.5-0.5"/><path class="st2" d="m128.4 31.2v-5.3h-9.9v5.3c0 1.1 0.2 1.8 0.5 2.2s0.9 0.6 1.7 0.6v0.5h-6.7v-0.5c0.8 0 1.3-0.2 1.6-0.6s0.4-1.2 0.4-2.2v-11.4c0-1.1-0.1-1.9-0.4-2.3s-0.8-0.6-1.6-0.6v-0.5h6.6v0.5c-0.8 0-1.3 0.2-1.7 0.7-0.3 0.4-0.5 1.2-0.5 2.2v5.2h9.9v-5.2c0-1.1-0.1-1.9-0.4-2.3s-0.8-0.6-1.6-0.6v-0.5h6.5v0.5c-0.8 0-1.3 0.2-1.6 0.6s-0.4 1.2-0.4 2.3v11.3c0 1.1 0.1 1.8 0.4 2.3 0.3 0.4 0.8 0.6 1.6 0.6v0.5h-6.5v-0.5c0.8 0 1.3-0.2 1.6-0.6s0.5-1.1 0.5-2.2"/><path class="st2" d="m147 23.3h0.5v4.4h-0.5c-0.2-0.8-0.4-1.3-0.7-1.5s-0.9-0.3-1.8-0.3h-4.5v6.5c0 0.5 0.1 0.8 0.3 1s0.5 0.3 1 0.3h3.2c1.1 0 1.9-0.1 2.4-0.2 0.4-0.1 0.8-0.4 1.1-0.7s0.6-0.9 1-1.6h0.5l-0.8 3.4h-13.1v-0.5c0.8 0 1.4-0.2 1.6-0.6 0.3-0.4 0.4-1.2 0.4-2.2v-11.5c0-1.1-0.1-1.9-0.4-2.3s-0.8-0.6-1.6-0.6v-0.5h13.1v3h-0.3c-0.2-0.9-0.4-1.4-0.8-1.7s-1.1-0.4-2.3-0.4h-5.3v7.8h5.1c0.7 0 1.2-0.1 1.4-0.4 0.2-0.2 0.4-0.7 0.5-1.4"/><path class="st2" d="m172.9 30.8v-11c0-1.1-0.1-1.8-0.4-2.2s-0.8-0.6-1.5-0.7v-0.5h6.4v0.5c-0.8 0-1.3 0.2-1.6 0.6s-0.4 1.2-0.4 2.3v11.3c0 1.1 0.1 1.8 0.4 2.2s0.8 0.6 1.6 0.6v0.5h-4.5v-2.4c-1.7 2-3.7 3-6.1 3-1.9 0-3.4-0.6-4.5-1.7s-1.7-2.7-1.7-4.5v-8.9c0-1.1-0.1-1.8-0.4-2.3-0.3-0.4-0.8-0.6-1.6-0.6v-0.5h6.6v0.5c-0.8 0-1.4 0.2-1.7 0.6s-0.4 1.2-0.4 2.2v9.2c0 1.5 0.4 2.7 1.2 3.5 0.8 0.9 2 1.3 3.4 1.3 2.2 0 3.9-1 5.2-3"/><path class="st2" d="m193.7 16.9v-0.5h5.5v0.5c-0.9 0-1.5 0.2-1.8 0.6s-0.5 1.2-0.5 2.2v14.8h-0.6l-12.9-15.8v12.8c0 0.9 0.2 1.5 0.5 1.9 0.4 0.4 1 0.6 1.8 0.6v0.5h-5.5v-0.5c0.9 0 1.5-0.2 1.8-0.7s0.5-1.3 0.5-2.4v-10.6c0-1.1-0.2-2-0.6-2.5s-1.1-0.8-2.1-0.9v-0.5h4.7l11.4 14.1v-10.6c0-1.1-0.2-1.9-0.5-2.3s-0.8-0.7-1.7-0.7"/><path class="st2" d="m208.3 16.4v0.5c-0.8 0-1.3 0.2-1.6 0.6s-0.4 1.2-0.4 2.3v11.3c0 1.1 0.1 1.8 0.4 2.3 0.3 0.4 0.8 0.6 1.6 0.6v0.5h-6.5v-0.5c0.8 0 1.3-0.2 1.6-0.6s0.4-1.2 0.4-2.3v-11.3c0-1.1-0.1-1.9-0.4-2.3s-0.8-0.6-1.6-0.6v-0.5h6.5"/><path class="st2" d="m228.4 16.4v0.6c-1.3 0-2.4 1.2-3.3 3.5l-5.4 14.3h-0.5l-5.6-14.7c-0.5-1.4-1-2.2-1.4-2.6s-0.9-0.5-1.6-0.6v-0.5h6.6v0.5c-1.1 0-1.6 0.4-1.6 1.2 0 0.3 0.1 0.6 0.2 0.9l4.4 11.7 4.2-11.3c0.2-0.5 0.3-0.9 0.3-1.3 0-0.9-0.5-1.3-1.6-1.3v-0.5h5.3"/><path class="st2" d="m241.7 23.3h0.5v4.4h-0.5c-0.2-0.8-0.4-1.3-0.7-1.5s-0.9-0.3-1.8-0.3h-4.5v6.5c0 0.5 0.1 0.8 0.3 1s0.5 0.3 1 0.3h3.2c1.1 0 1.9-0.1 2.4-0.2 0.4-0.1 0.8-0.4 1.1-0.7s0.6-0.9 1-1.6h0.5l-0.8 3.4h-13.1v-0.5c0.8 0 1.4-0.2 1.6-0.6 0.3-0.4 0.4-1.2 0.4-2.2v-11.5c0-1.1-0.1-1.9-0.4-2.3s-0.8-0.6-1.6-0.6v-0.5h13.1v3h-0.3c-0.2-0.9-0.5-1.4-0.8-1.7s-1.1-0.4-2.3-0.4h-5.2v7.8h5.1c0.7 0 1.2-0.1 1.4-0.4 0.1-0.2 0.3-0.7 0.4-1.4"/><path class="st2" d="m252.8 17.1h-1.9v8.3h2.2c1.3 0 2.4-0.4 3.1-1.1 0.8-0.8 1.1-1.8 1.1-3s-0.4-2.2-1.3-3c-0.7-0.8-1.8-1.2-3.2-1.2zm-0.4 9.1h-1.5v5c0 1.1 0.2 1.8 0.5 2.2s0.8 0.6 1.6 0.6v0.5h-6.5v-0.5c0.8 0 1.4-0.2 1.6-0.6 0.3-0.4 0.4-1.2 0.4-2.2v-11.4c0-1.1-0.1-1.8-0.4-2.2s-0.8-0.6-1.6-0.6v-0.5h7.4c1.8 0 3.3 0.4 4.4 1.3s1.7 2 1.7 3.4c0 2.2-1.2 3.7-3.8 4.5 0.5 0.4 1.1 0.8 1.6 1.4s1.2 1.6 2.1 3.1c0.9 1.6 1.7 2.6 2.2 3.1s1.1 0.8 1.7 0.8v0.5h-3.7c-0.8-0.9-1.7-2.3-2.8-4.1-1.2-1.9-2.1-3.1-2.7-3.6-0.7-0.5-1.4-0.7-2.2-0.7"/><path class="st2" d="m274.5 16.1h0.5v4.3h-0.5c-0.1-1.2-0.6-2.1-1.3-2.8s-1.6-1-2.8-1c-1 0-1.8 0.2-2.4 0.7s-0.9 1.2-0.9 2 0.2 1.5 0.7 2.1 1.6 1.4 3.2 2.4c1.9 1.1 3.2 2.1 3.9 3s1 1.8 1 2.9c0 1.4-0.5 2.6-1.5 3.7-1 1-2.2 1.5-3.7 1.5-0.8 0-1.9-0.2-3.2-0.7-0.5-0.2-0.9-0.3-1-0.3-0.3 0-0.5 0.2-0.7 0.7h-0.5v-4.9h0.5c0 1.4 0.5 2.4 1.3 3.3s1.9 1.2 3.1 1.2c1.1 0 2-0.3 2.7-0.9s1-1.4 1-2.4c0-0.7-0.3-1.4-0.8-2.1s-1.7-1.5-3.4-2.6c-1.4-0.9-2.4-1.6-2.8-2.1-0.5-0.5-0.8-1.1-1.1-1.7s-0.3-1.3-0.3-2c0-1.4 0.5-2.5 1.4-3.4s2.1-1.3 3.6-1.3c0.8 0 1.7 0.2 2.6 0.5 0.4 0.1 0.8 0.2 0.9 0.2s0.2 0 0.3-0.1c0.1 0.2 0.2 0.1 0.2-0.2"/><path class="st2" d="m285.6 16.4v0.5c-0.8 0-1.3 0.2-1.6 0.6s-0.4 1.2-0.4 2.3v11.3c0 1.1 0.2 1.8 0.4 2.3 0.3 0.4 0.8 0.6 1.6 0.6v0.5h-6.5v-0.5c0.8 0 1.3-0.2 1.6-0.6s0.4-1.2 0.4-2.3v-11.3c0-1.1-0.1-1.9-0.4-2.3s-0.8-0.6-1.6-0.6v-0.5h6.5"/><path class="st2" d="m300.1 17.3h-2.8v14c0 1.1 0.1 1.8 0.4 2.2s0.8 0.6 1.6 0.6v0.5h-6.4v-0.5c0.8 0 1.3-0.2 1.6-0.7 0.3-0.4 0.4-1.2 0.4-2.2v-13.9h-2.6c-1.3 0-2.2 0.2-2.8 0.6s-0.9 1.1-1 2h-0.5v-4.2h0.5c0.5 0.5 1.4 0.7 2.7 0.7h9.5c1.4 0 2.3-0.2 2.9-0.7h0.6v4.2h-0.4c-0.2-1-0.6-1.7-1.2-2.1s-1.4-0.5-2.5-0.5"/><path class="st2" d="m319.6 19-4.1 6.4v5.7c0 1.1 0.1 1.9 0.4 2.3s0.8 0.6 1.6 0.6v0.5h-6.6v-0.5c0.9 0 1.5-0.2 1.8-0.7 0.3-0.4 0.4-1.2 0.4-2.2v-5.7l-3.9-6c-0.6-1-1.2-1.7-1.6-2s-1-0.5-1.7-0.5v-0.5h7.1v0.5c-1.2 0-1.9 0.3-1.9 0.9 0 0.3 0.1 0.6 0.4 1l3.6 5.5 2.9-4.6c0.4-0.7 0.6-1.3 0.6-1.8 0-0.7-0.4-1-1.2-1v-0.5h5v0.5c-0.7 0-1.2 0.2-1.6 0.4s-0.7 0.9-1.2 1.7"/><path class="st2" d="m99.5 58.8c1 0 1.9-0.6 2.7-1.9s1.2-2.8 1.2-4.6c0-0.8-0.2-1.5-0.6-2s-0.9-0.8-1.6-0.8c-1 0-1.9 0.6-2.7 1.9s-1.2 2.8-1.2 4.5c0 0.9 0.2 1.6 0.6 2.1 0.5 0.5 1 0.8 1.6 0.8zm2.6-10.2c0.8 0 1.6 0.4 2.2 1.1s1 1.6 1 2.5c0 1.7-0.6 3.4-1.9 5s-2.8 2.5-4.5 2.5c-1 0-1.8-0.3-2.4-1s-0.9-1.6-0.9-2.7c0-1.9 0.7-3.6 2-5.1 1.3-1.6 2.8-2.3 4.5-2.3"/><path class="st2" d="m113.1 48.9-0.1 0.9h-2.2l-1.8 9.2c-0.5 2.5-1 4.3-1.5 5.5s-1.4 2-2.4 2.6-2.1 0.9-3.3 0.9c-1.6 0-2.8-0.3-3.7-0.9l0.5-2.2h0.5c0.3 1.6 1.3 2.4 2.8 2.4 1.1 0 2.1-0.4 3-1.2s1.6-2.7 2.1-5.7l2-10.7h-2.2l0.1-0.9h2.2l0.8-3.8c0.4-2 1.1-3.5 2-4.2 0.9-0.8 2.1-1.2 3.3-1.2 0.6 0 1.3 0.1 2.2 0.4l0.1-0.4h0.6l-0.6 2.9h-0.5c-0.1-1.5-0.8-2.3-2-2.3-1.5 0-2.6 1.3-3.1 3.9l-1 4.7h2.2"/><path class="st2" d="m135 48.1h0.5v4.4h-0.5c-0.2-0.8-0.4-1.3-0.7-1.5s-0.9-0.3-1.8-0.3h-4.5v6.5c0 0.5 0.1 0.8 0.3 1s0.5 0.3 1 0.3h3.2c1.1 0 1.9-0.1 2.4-0.2 0.4-0.1 0.8-0.4 1.1-0.7s0.6-0.9 1-1.6h0.5l-0.8 3.4h-13.1v-0.5c0.8 0 1.4-0.2 1.6-0.6 0.3-0.4 0.4-1.2 0.4-2.2v-11.5c0-1.1-0.1-1.9-0.4-2.3s-0.8-0.6-1.6-0.6v-0.5h13.1v3h-0.3c-0.2-0.9-0.5-1.4-0.8-1.7s-1.1-0.4-2.3-0.4h-5.2v7.8h5.1c0.7 0 1.2-0.1 1.4-0.4 0.1-0.3 0.3-0.7 0.4-1.4"/><path class="st2" d="m147.8 41.9h-3.5v13.4c0 1.3 0.2 2.2 0.5 2.6s0.9 0.7 1.9 0.7h1.9c2.2 0 4-0.7 5.3-2.2s1.9-3.4 1.9-5.9c0-2.6-0.7-4.8-2.1-6.3s-3.4-2.3-5.9-2.3zm-7.9 17.5v-0.5c0.8 0 1.3-0.2 1.6-0.6s0.4-1.2 0.4-2.2v-11.5c0-1.1-0.1-1.8-0.4-2.3-0.3-0.4-0.8-0.6-1.6-0.6v-0.5h8.4c3.1 0 5.6 0.9 7.5 2.6 1.9 1.8 2.8 4 2.8 6.7s-0.9 4.8-2.6 6.4-4.2 2.4-7.4 2.4h-8.7"/><path class="st2" d="m167.5 41.2v0.5c-0.8 0-1.3 0.2-1.6 0.6s-0.4 1.2-0.4 2.3v11.3c0 1.1 0.1 1.8 0.4 2.3 0.3 0.4 0.8 0.6 1.6 0.6v0.5h-6.5v-0.5c0.8 0 1.3-0.2 1.6-0.6s0.4-1.2 0.4-2.3v-11.3c0-1.1-0.1-1.9-0.4-2.3s-0.8-0.6-1.6-0.6v-0.5h6.5"/><path class="st2" d="m183.7 41.7v-0.5h5.5v0.5c-0.9 0-1.5 0.2-1.8 0.6s-0.5 1.2-0.5 2.2v14.8h-0.6l-12.9-15.8v12.8c0 0.9 0.2 1.5 0.6 1.9s1 0.6 1.8 0.6v0.5h-5.5v-0.5c0.9 0 1.5-0.2 1.8-0.7s0.5-1.3 0.5-2.4v-10.6c0-1.1-0.2-2-0.6-2.5s-1.1-0.8-2.1-0.9v-0.5h4.7l11.4 14.1v-10.6c0-1.1-0.2-1.9-0.5-2.3-0.4-0.5-1-0.7-1.8-0.7"/><path class="st2" d="m197.3 50.3h-1.7v5.3c0 1.2 0.1 2 0.4 2.4s0.8 0.6 1.5 0.6h1.5c1.1 0 1.9-0.4 2.6-1.1s1-1.7 1-2.8c0-1.4-0.5-2.4-1.4-3.3-1-0.7-2.3-1.1-3.9-1.1zm-1.7-8.4v7.7h1.9c1.3 0 2.4-0.3 3.1-1s1.2-1.6 1.2-2.8-0.4-2.2-1.1-2.9c-0.8-0.7-1.8-1-3.2-1zm3.9 17.5h-8.4v-0.5c0.8 0 1.3-0.2 1.6-0.6s0.4-1.2 0.4-2.3v-11.4c0-1.1-0.1-1.9-0.4-2.3s-0.8-0.6-1.6-0.6v-0.5h6.9c2 0 3.5 0.4 4.6 1.2s1.7 1.9 1.7 3.2c0 2-1.2 3.3-3.7 4.1v0.1c1.4 0.3 2.5 0.9 3.4 1.8s1.3 2 1.3 3.3-0.5 2.4-1.6 3.2c-1 0.8-2.4 1.3-4.2 1.3"/><path class="st2" d="m221.6 55.5v-10.9c0-1.1-0.1-1.8-0.4-2.2s-0.8-0.6-1.5-0.7v-0.5h6.4v0.5c-0.8 0-1.3 0.2-1.6 0.6s-0.4 1.2-0.4 2.3v11.3c0 1.1 0.1 1.8 0.4 2.2s0.8 0.6 1.6 0.6v0.5h-4.5v-2.5c-1.7 2-3.7 3-6.1 3-1.9 0-3.4-0.6-4.5-1.7s-1.7-2.7-1.7-4.5v-8.9c0-1.1-0.1-1.8-0.4-2.3-0.3-0.4-0.8-0.6-1.6-0.6v-0.5h6.6v0.5c-0.8 0-1.4 0.2-1.7 0.6s-0.4 1.2-0.4 2.2v9.2c0 1.5 0.4 2.7 1.2 3.5 0.8 0.9 2 1.3 3.4 1.3 2.1 0.1 3.9-0.9 5.2-3"/><path class="st2" d="m235.1 41.9h-1.9v8.3h2.2c1.3 0 2.4-0.4 3.1-1.1 0.8-0.8 1.1-1.8 1.1-3s-0.4-2.2-1.3-3c-0.7-0.8-1.8-1.2-3.2-1.2zm-0.4 9h-1.5v5c0 1.1 0.2 1.8 0.5 2.2s0.8 0.6 1.6 0.6v0.5h-6.5v-0.5c0.8 0 1.3-0.2 1.6-0.6s0.4-1.2 0.4-2.2v-11.4c0-1.1-0.1-1.8-0.4-2.2s-0.8-0.6-1.6-0.6v-0.5h7.4c1.8 0 3.3 0.4 4.4 1.3s1.6 2 1.6 3.4c0 2.2-1.2 3.7-3.8 4.5 0.6 0.4 1.1 0.8 1.6 1.4s1.2 1.6 2.1 3.1c1 1.6 1.7 2.6 2.2 3.1s1.1 0.8 1.7 0.8v0.5h-3.7c-0.8-0.9-1.7-2.3-2.8-4.1-1.2-1.9-2.1-3.1-2.7-3.6-0.6-0.4-1.3-0.7-2.1-0.7"/><path class="st2" d="m264.1 51.5v0.5c-0.8 0-1.4 0.2-1.7 0.6s-0.5 1-0.5 1.9v4.9c-0.4 0.1-1.2 0.2-2.4 0.3s-2.1 0.1-2.7 0.1c-3.4 0-6-0.8-7.8-2.5-1.9-1.7-2.8-3.8-2.8-6.5 0-1.9 0.4-3.6 1.2-5.1s2-2.7 3.4-3.6 3-1.3 4.7-1.3c1 0 2.1 0.2 3.2 0.5 0.7 0.2 1.3 0.3 1.7 0.3 0.5 0 0.9-0.2 1-0.6h0.6v5.4h-0.5c-0.2-1.5-0.9-2.7-2-3.6s-2.5-1.3-4-1.3c-1.9 0-3.5 0.8-4.7 2.3s-1.8 3.5-1.8 5.9c0 2.7 0.7 4.9 2.1 6.6 1.4 1.8 3.2 2.6 5.4 2.6 2 0 3.1-0.6 3.1-1.9v-2c0-1.1-0.1-1.9-0.4-2.3s-0.8-0.7-1.6-0.7h-0.7v-0.5h7.2"/><path class="st2" d="m280 55.9v-5.3h-9.9v5.3c0 1.1 0.2 1.8 0.5 2.2s0.9 0.6 1.6 0.6v0.5h-6.6v-0.5c0.8 0 1.3-0.2 1.6-0.6s0.4-1.2 0.4-2.2v-11.3c0-1.1-0.1-1.9-0.4-2.3s-0.8-0.6-1.6-0.6v-0.5h6.6v0.5c-0.8 0-1.3 0.2-1.6 0.7-0.3 0.4-0.5 1.2-0.5 2.2v5.2h9.9v-5.2c0-1.1-0.1-1.9-0.4-2.3s-0.8-0.6-1.6-0.6v-0.5h6.5v0.5c-0.8 0-1.3 0.2-1.6 0.6s-0.4 1.2-0.4 2.3v11.3c0 1.1 0.1 1.8 0.4 2.3 0.3 0.4 0.8 0.6 1.6 0.6v0.5h-6.5v-0.5c0.8 0 1.3-0.2 1.6-0.6 0.2-0.4 0.4-1.2 0.4-2.3"/><path class="st2" d="m68.6 36c0-0.6-0.2-1.2-0.2-1.8-0.1-0.6-0.1-1.3-0.2-1.9-0.4-1.7-0.8-3.3-1.4-4.9-0.1-0.2-0.2-0.4-0.3-0.7-0.2-0.5-0.4-0.9-0.6-1.3-0.1-0.1-0.1-0.3-0.2-0.4-0.2-0.4-0.3-0.8-0.5-1.2-0.1-0.2-0.3-0.4-0.4-0.7-0.1-0.2-0.2-0.5-0.3-0.7-0.4-0.7-0.9-1.3-1.3-1.9-0.2-0.2-0.3-0.4-0.5-0.6s-0.4-0.5-0.6-0.7-0.4-0.3-0.5-0.5c-0.1-0.1-0.1-0.2-0.2-0.4s-0.3-0.3-0.4-0.4l-0.2-0.2c-0.2-0.2-0.4-0.5-0.6-0.7s-0.4-0.4-0.6-0.5l-0.6-0.6c-0.3-0.2-0.5-0.4-0.8-0.6s-0.5-0.5-0.8-0.7c-0.2-0.1-0.4-0.2-0.5-0.3-0.2-0.2-0.4-0.3-0.7-0.5-0.2-0.1-0.3-0.3-0.5-0.4-0.1-0.1-0.2-0.1-0.4-0.2s-0.3-0.2-0.5-0.3c-0.5-0.3-1.1-0.6-1.7-0.9-0.2-0.1-0.4-0.3-0.6-0.4-0.4-0.2-0.7-0.4-1.1-0.5-0.3-0.1-0.6-0.2-0.9-0.4-0.1-0.1-0.3-0.2-0.4-0.2s-0.2-0.1-0.3-0.1c-0.2-0.1-0.4-0.2-0.5-0.2-0.6-0.2-1.1-0.3-1.7-0.5-0.3-0.1-0.6-0.2-0.8-0.3-0.6-0.2-1.2-0.3-1.8-0.4l-1.2-0.3c-0.3 0-0.5-0.1-0.8-0.1-0.4-0.1-0.9-0.2-1.4-0.2h-0.5c-0.1 0-0.2 0-0.4-0.1h-0.7c-0.5 0-1.1-0.1-1.7-0.1-0.2 0.1-0.5 0-0.8 0h-0.9-0.2-0.6c-0.1 0-0.2 0.1-0.3 0.1h-0.3-0.3-0.2c-0.1 0-0.3 0-0.4 0.1-0.3 0-0.7 0-0.9 0.2h-0.2c-0.2 0-0.4 0-0.6 0.1-0.5 0-0.9 0.2-1.3 0.3-0.4 0-0.7 0-0.9 0.2-0.2 0-0.4 0-0.5 0.1-0.3 0-0.6 0.2-0.8 0.3s-0.3 0.1-0.5 0.1c-0.3 0-0.6 0.2-0.8 0.3s-0.3 0.1-0.5 0.2c-0.9 0.4-1.8 0.8-2.7 1.3-0.2 0.1-0.3 0.2-0.4 0.3-1.1 0.5-2.1 1.1-3 1.9-0.3 0.2-0.5 0.4-0.8 0.6l-0.4 0.4c-0.3 0.2-0.5 0.4-0.8 0.6-0.5 0.4-1 0.9-1.5 1.4-0.3 0.3-0.6 0.5-0.9 0.8-0.1 0.1-0.2 0.2-0.3 0.4l-0.4 0.4c-0.2 0.2-0.4 0.5-0.6 0.7s-0.4 0.4-0.5 0.6c-0.1 0.1-0.2 0.2-0.2 0.3-0.3 0.4-0.6 0.7-0.9 1.1l-0.6 0.9c-0.3 0.3-0.6 0.8-0.8 1.2-0.1 0.1-0.1 0.2-0.2 0.4-0.2 0.3-0.4 0.6-0.5 0.9-0.2 0.3-0.3 0.7-0.4 1-0.1 0.1-0.1 0.2-0.2 0.4-0.2 0.3-0.3 0.6-0.4 0.9-0.1 0.2-0.1 0.4-0.2 0.6l-0.3 0.6c-0.1 0.2-0.1 0.4-0.2 0.7-0.1 0.2-0.2 0.5-0.3 0.7-0.4 1.4-0.8 2.9-1.1 4.4 0 0.3-0.1 0.6-0.1 0.9s-0.2 0.7-0.2 1 0 0.6-0.1 0.8c0 0.2 0 0.4-0.1 0.6v3.6c0 0.6 0.1 1.2 0.2 1.7v0.7c0.1 0.8 0.2 1.6 0.3 2.3 0.1 0.2 0.1 0.4 0.2 0.6 0.1 0.6 0.3 1.2 0.4 1.8 0.1 0.1 0.1 0.3 0.2 0.4 0 0.1 0.1 0.3 0.1 0.4 0.2 0.6 0.5 1.3 0.7 1.9 0.1 0.2 0.2 0.5 0.3 0.7s0.1 0.3 0.2 0.5l0.6 1.2c0.2 0.3 0.4 0.6 0.5 1 0.1 0.1 0.1 0.2 0.1 0.4l0.2 0.2c0.1 0.1 0.1 0.3 0.2 0.4 0.2 0.3 0.3 0.5 0.5 0.8 0.1 0.2 0.2 0.3 0.3 0.5 0.2 0.2 0.3 0.4 0.5 0.6 0.1 0.2 0.2 0.3 0.3 0.5 0.2 0.3 0.4 0.5 0.6 0.8 0.2 0.2 0.4 0.4 0.5 0.7 0.2 0.2 0.4 0.5 0.7 0.7 0.2 0.2 0.3 0.5 0.6 0.7 0.3 0.3 0.6 0.6 0.9 0.8l0.4 0.4c0.2 0.2 0.5 0.4 0.8 0.6 0.2 0.2 0.5 0.4 0.7 0.7 0.2 0.1 0.3 0.3 0.5 0.4 0.2 0.2 0.4 0.4 0.6 0.5 0.3 0.2 0.5 0.4 0.8 0.6l0.6 0.3c0.2 0.1 0.4 0.3 0.6 0.4s0.4 0.2 0.6 0.4c0.8 0.5 1.6 0.9 2.4 1.3 0.4 0.2 0.7 0.4 1.1 0.5s0.7 0.3 1.1 0.4c0.1 0 0.3 0.1 0.4 0.1 0.3 0.1 0.7 0.3 1 0.4 0.1 0 0.2 0.1 0.3 0.1 0.3 0.1 0.6 0.3 0.9 0.3 0.4 0.1 0.8 0.1 1.1 0.2 0.6 0.1 1.1 0.3 1.7 0.4h0.6c0.3 0 0.6 0.1 0.8 0.1h0.7c0.1 0 0.3 0 0.4 0.1h0.4c0.3 0.1 0.7 0.1 1 0.2h0.5 0.3c0.3 0 0.7 0 1 0.1h0.6c0.4 0 0.8-0.1 1.1-0.1h0.5c0.2 0 0.5-0.1 0.7-0.1l2.4-0.3c0.3-0.1 0.5-0.1 0.8-0.2s0.7-0.1 1-0.2c0.2 0 0.3-0.1 0.5-0.2 0.3-0.1 0.5-0.2 0.8-0.2 0.1 0 0.2-0.1 0.4-0.1 0.2-0.1 0.4-0.1 0.6-0.1 0.4-0.1 0.8-0.3 1.2-0.4 0.2-0.1 0.5-0.2 0.7-0.3s0.5-0.2 0.7-0.3c0.1 0 0.1-0.1 0.2-0.1 0.2-0.1 0.5-0.2 0.7-0.3 0.3-0.2 0.5-0.3 0.8-0.5 0.1-0.1 0.3-0.1 0.4-0.2 0.4-0.2 0.8-0.5 1.2-0.7 0.3-0.2 0.7-0.4 1-0.6s0.6-0.5 0.9-0.7 0.6-0.5 1-0.7l0.2-0.2c0.1 0 0.2-0.1 0.2-0.1 0.3-0.2 0.5-0.5 0.8-0.7l0.6-0.6c0.2-0.2 0.4-0.4 0.7-0.6 0.1-0.1 0.1-0.2 0.2-0.3 0.2-0.2 0.4-0.3 0.5-0.5 0.1-0.1 0.2-0.3 0.3-0.4 0.4-0.4 0.8-0.8 1.1-1.2 0.3-0.3 0.5-0.6 0.8-1 0.2-0.2 0.4-0.5 0.5-0.8l0.3-0.3c0.3-0.4 0.6-0.8 0.9-1.2 0.1-0.1 0.1-0.3 0.2-0.4s0.1-0.2 0.2-0.3 0.1-0.2 0.2-0.4c0.2-0.3 0.4-0.7 0.6-1s0.3-0.5 0.5-0.8c0.1-0.3 0.2-0.5 0.3-0.8s0.3-0.6 0.4-0.8c0.4-1.2 0.9-2.4 1.2-3.6 0-0.1 0.1-0.3 0.1-0.4 0.1-0.5 0.2-0.9 0.3-1.4 0-0.2 0.1-0.5 0.1-0.7 0.1-0.4 0.1-0.8 0.2-1.2 0-0.3 0-0.6 0.1-1 0-0.1 0-0.2 0.1-0.4v-0.8c0-0.1 0.1-0.3 0.1-0.4v-0.6c0.1-1.7 0.2-3 0.1-4.2m-36.3-25.8c0.3 0 0.5-0.1 0.7-0.2 0.4-0.1 0.8-0.2 1.2-0.2h0.9c0.4 0 0.8-0.1 1.2-0.2h0.5c0.2 0 0.4 0 0.6-0.1h1.2c0.2 0 0.5 0 0.7 0.1 0.2 0 0.4 0.1 0.5 0.1h0.8 0.4 0.5c0.2 0 0.4 0.1 0.7 0.1h0.3c0.1 0 0.2 0.1 0.3 0.1s0.2 0.1 0.4 0.1c0.5 0.1 1 0.1 1.5 0.2h0.1c0 0.1-0.8 0-1 0h-0.3-0.7-0.3-0.4-0.3c-0.3 0-0.8-0.1-1.1 0-0.3 0-0.6 0-0.9-0.1-0.1 0-0.4-0.1-0.5 0h-0.4c-0.2 0-0.3-0.1-0.5 0-0.1 0-0.2 0-0.3 0.1h-2.1c-0.1 0-0.3 0-0.4-0.1h-1c-0.2 0-0.7-0.1-0.8 0-0.5 0.1-1 0.1-1.5 0.1zm-3.8 1.1c0.1 0 0.3-0.2 0.4-0.2s0.2-0.1 0.3-0.1c0.1-0.1 0.2-0.1 0.3-0.1 0.3-0.1 0.7-0.2 1-0.3h0.7 0.9 0.5 0.8 1.1c1.3 0 2.6 0.1 3.9 0.1h0.6 0.9c1.5 0 3-0.1 4.5 0h1.5 0.6c0.4 0.1 0.8 0.4 1.2 0.5 0.2 0 0.8 0.1 1 0.3h-0.1-0.2-0.6c-0.2 0-0.4-0.1-0.6-0.1h-0.6-0.3-0.6-0.4-0.6c-0.3 0-1-0.1-1.2 0-0.1 0-0.3-0.1-0.4 0-0.2 0-0.3 0-0.5-0.1h-0.6-0.4-0.5-0.5-1.4-0.5-0.3-0.3c-0.4 0-0.8-0.1-1.2-0.1h-1.4c-0.2 0-0.6-0.1-0.7 0h-1.1-0.4-0.2-1.5-0.2-0.6-0.3c-0.6 0.2-1.3 0.2-2 0.1zm-2.1 0.9c0.1-0.1 0.2-0.1 0.2-0.2 0.7-0.4 1.6-0.2 2.4-0.2h1.4 0.4 0.8 2.9 0.6 0.8 0.3 0.3 0.4c0.5 0 0.9 0.1 1.4 0.1 0.2 0 0.5-0.1 0.7-0.1 0.6 0 1.2 0.1 1.8 0.1 0.3 0 0.6-0.1 0.9-0.1h1.5 0.8 3.3c0.2 0 0.3 0.1 0.5 0.1s0.5 0 0.7-0.1c0.3 0 0.8 0.1 1.1 0 0.4 0 0.7 0.2 1 0.4 0.3 0.1 0.7 0.2 0.9 0.4v0.1h-0.1-0.5-0.6-0.2c-0.2 0-0.9-0.1-1 0h-0.4-0.7c-0.2 0-0.4-0.1-0.6 0h-0.6-0.9c-0.3 0-0.8-0.1-1.1 0h-0.2-0.7-0.3c-0.2 0-0.5-0.1-0.7 0h-0.6-0.4-1-0.4-1.1-0.4-0.9-1.1-0.3-0.9-0.4-0.2-0.3c-1.2 0-2.3-0.1-3.5-0.1h-0.5c-0.1 0-0.3-0.1-0.4 0h-0.7-1.5c-0.2 0-0.8-0.1-0.9 0h-0.7-0.2c-0.3 0-0.5-0.1-0.8-0.1 0-0.1 0.6-0.3 0.7-0.3m-2.7 1.5c0-0.1 0.2-0.1 0.2-0.2 0.1-0.1 0.3-0.2 0.4-0.2 0.1-0.1 0.3-0.2 0.4-0.2 0.4-0.1 1.1-0.1 1.5-0.1h1.3 1.1 0.4c0.7-0.1 1.5 0 2.2 0h1.1c0.5 0 0.9 0.1 1.4 0.1h0.8c0.4 0 0.7-0.1 1.1-0.1 0.8 0 1.6 0.1 2.3 0.1h0.3 0.4 0.6 0.7 0.8c0.5 0 1 0.1 1.6 0.1 0.2 0 0.4-0.1 0.7-0.1h0.5 0.2c0.1 0 0.3 0.1 0.4 0.1h0.6 0.8c0.2 0 0.4-0.1 0.6 0h0.9 0.5 1.8 0.8 1.7 0.8c0.1 0 0.2 0.1 0.3 0.2 0.2 0.2 0.5 0.3 0.7 0.5 0 0.1-0.4 0.1-0.5 0.2h-0.4-0.4-0.5-0.3-1.1-0.4-0.4-0.2-2.7c-0.2 0-0.6-0.1-0.8 0h-0.5c-0.2 0-0.6-0.1-0.8 0h-0.4c-0.2 0-0.5-0.1-0.7 0h-0.5c-0.2 0-0.4-0.1-0.5 0h-0.2-1.2-0.5c-0.2 0-0.7-0.1-0.9 0h-0.3c-0.2 0-0.4-0.1-0.6 0h-0.4-1.8c-0.3 0-0.8-0.1-1.1 0h-0.2c-0.2 0-0.5 0-0.7-0.1h-1.7c-0.2 0-0.3-0.1-0.5-0.1h-1.1-0.3-1.7-0.9c-0.2 0-0.6-0.1-0.8 0h-0.3-0.3-0.8-0.4-0.3c-0.3 0-0.6 0-1-0.1-0.3 0-0.6 0-0.8-0.1v0m-1.7 1.2s0.2-0.1 0.2-0.2c0.3-0.2 0.5-0.3 0.8-0.5 0.2-0.1 0.4-0.1 0.6-0.1s0.5 0 0.7 0.1h1.4 0.7 0.7 0.6c0.3 0 0.6 0.1 1 0.1 0.5 0 1-0.1 1.4 0h0.4 1.1 2.1 1.6 1.1 0.4c0.3 0 0.6 0.1 0.9 0.1 0.4 0 0.8-0.1 1.2-0.1 0.3 0 0.6 0 1 0.1h1 0.4 0.4 0.9 1.5c0.3 0 0.6 0 0.9-0.1h2.1 0.4 2.2c0.3 0 0.7-0.1 1 0 0.4 0 0.7 0.1 1.1 0.1 0.3 0 0.7-0.1 1-0.1 0.2 0 0.4 0 0.6-0.1 0.3 0 0.6 0 0.8 0.1 0.1 0 0.2 0.2 0.3 0.2s0.1 0.1 0.2 0.1c0.2 0.1 0.3 0.3 0.5 0.4l-0.1 0.1h-0.6c-0.2 0-0.4-0.1-0.6 0h-0.2-1.3-1.2-0.4-0.3-0.6-0.7-0.6c-0.2 0-0.3-0.1-0.5 0h-1.5-0.5-0.3-1.1-0.4c-0.4 0-1-0.1-1.3 0h-0.7-1.8c-0.2 0-0.6-0.1-0.8 0h-0.3-0.9-2.5-1.3-0.4-0.4-0.8-0.2-0.8-0.4-1.2c-0.1 0-0.3-0.1-0.4 0h-1.7c-0.1 0-0.3-0.1-0.4 0h-0.3-2.1c-0.3 0-1-0.1-1.2 0h-0.2-1.1c-0.3-0.1-0.7-0.1-1.1-0.2zm-1.7 1.2c0.1 0 0.1-0.1 0.2-0.1 0.2-0.1 0.7-0.6 0.9-0.6h1.2 0.7 0.7 1.2c0.8 0 1.5 0.1 2.2 0.1h0.5 1.2c0.2 0 0.4 0 0.6 0.1h0.7 0.7c0.6 0 1.1-0.1 1.7-0.1h0.8 0.4 0.8c0.4 0 0.9 0.1 1.3 0.1h0.7 0.8 0.4 0.3 0.4 1 0.3c0.2 0 0.4 0 0.6 0.1h0.8 0.5 1.1 0.6 1.1 0.5 0.4 0.7c0.5 0 1 0.1 1.5 0.1 0.9 0 1.7-0.1 2.6-0.1h0.8 0.5 1.3c0.3 0 0.6 0 0.9 0.1 0.2 0 0.4 0 0.5-0.1h0.5c0.3 0 0.6 0 1 0.1 0.1 0 0.8 0.5 0.8 0.7h-0.1-0.6c-0.4 0-0.9-0.1-1.2 0.1h-0.2-0.4c-0.3 0-0.8-0.1-1 0-0.2 0-0.4 0-0.6-0.1h-1.2c-0.2 0-0.6-0.1-0.8 0h-2.4-1.1-0.4-0.9c-0.2 0-0.4-0.1-0.5 0h-0.8-0.3-0.2-1-0.4c-0.2 0-0.9-0.1-1 0-0.2 0-0.7-0.1-0.8 0h-0.2c-0.3 0-0.6-0.1-1-0.1h-0.3c-0.3 0-0.7-0.1-1 0h-0.2c-0.2 0-0.6-0.2-0.8-0.1h-1-0.3c-0.2 0-0.6-0.1-0.8 0h-0.2-1.2-0.4-0.7-0.4-0.3c-0.1 0-0.3 0-0.4 0.1h-0.4c-0.2 0-0.6-0.2-0.8-0.1h-1-0.3-0.3-0.2c-0.5 0-0.9 0-1.3-0.1h-0.3-1.3c-0.2 0-0.6-0.1-0.8 0h-0.4c-0.1 0-0.4-0.1-0.5 0h-0.2-1.2-0.4c-0.8-0.1-1.3-0.1-1.9-0.1zm47 22c0 0.1-0.1 0.1-0.2 0.1h-0.4c-0.2 0-0.5-0.1-0.6 0h-2.4c-0.2 0-0.6-0.1-0.7 0-0.2 0-0.7-0.1-0.8 0-0.2 0-0.4-0.1-0.6 0h-0.9-1.3v0.4h0.2 0.7 0.5 0.8 2.8 1.3 0.7 0.5 0.3c0.1 0 0 0.7 0 0.8h-0.4c-0.2 0-0.7-0.1-0.8 0h-0.5-0.7-1.3-0.3-1.5c-0.2 0-0.5-0.1-0.7 0h-0.7c-0.1 0-0.3-0.1-0.5 0h-0.3v-0.1 0.5h0.1 0.6 0.6 1.1 0.5 0.8 0.3 0.5 0.3 0.3 0.6 0.8c0.2 0 1.1-0.1 1.3 0.1 0.1 0.1 0 0.7 0 0.8 0 0-0.2 0-0.3 0.1h-0.2-1.2-0.4-1.2-0.3-0.3-0.4-0.8c-0.1 0-0.3-0.1-0.5 0h-2-0.2v0.4h0.2 1.4 0.5c0.8 0 1.5 0.1 2.3 0.1h0.9 1.9 0.4c0 0.2 0 0.6-0.1 0.7-0.1 0-0.2 0-0.2 0.1-0.2 0-0.6-0.1-0.7 0h-0.3-0.2c-0.7 0-1.5-0.1-2.2-0.1-0.2 0-0.5-0.1-0.7 0-0.2 0-0.6-0.1-0.7 0h-1.8-0.6v0.4c0.1-0.1 0.5 0 0.7 0h1.6c0.3 0 0.8 0 1.1-0.1 0.4 0 0.7 0 1.1 0.1h1 1c0.3 0 0.7-0.1 1 0 0.2 0 0.1 0.6 0 0.7s-0.2 0.1-0.2 0.1h-0.2-1.5c-0.2 0-0.5-0.1-0.7 0h-0.7-1.7-0.5-0.4c-0.5 0-1 0-1.5-0.1v0.4h0.1 1.1 0.5 0.4 0.6c0.3 0 1 0.1 1.2 0h0.4 0.7 1.4c0.2 0 0.7 0 0.8 0.1 0.1 0 0 0.6 0 0.7 0 0-0.1 0-0.1 0.1-0.2 0-1-0.1-1.1 0h-0.6-0.8-0.4c-0.1 0-0.3 0-0.4 0.1-0.2 0-0.3 0-0.5-0.1h-0.8-0.4c-0.1 0-0.3 0-0.4-0.1h-1.3-0.3v0.4h0.8 0.5 1.6c0.4 0 1 0.1 1.4 0h0.8 0.4 0.4 1.4c0 0.2 0 0.4-0.1 0.5 0 0.1-0.1 0.2-0.1 0.3h-0.7-0.6-0.8-0.6c-0.2 0-0.5-0.1-0.7 0h-0.3c-0.3 0-0.6 0-0.8-0.1-0.8 0-1.6-0.1-2.4-0.1v0.4h0.2 0.3 1 0.9 0.8c0.5 0 1 0.1 1.4 0.1 0.3 0 0.6-0.1 0.9-0.1 0.2 0 1.2-0.1 1.3 0.1 0.1 0.1 0 0.2 0 0.3 0 0.2-0.1 0.4-0.2 0.5-0.5 0-1.1-0.1-1.6 0h-0.3c-0.2 0-1-0.1-1.1 0h-0.7c-0.2 0-0.4-0.1-0.6 0-0.2 0-0.5-0.1-0.7 0-0.6 0-1.1-0.1-1.7-0.1v0.4h1.1c0.3 0 0.7 0.1 1.1 0.1h1.8 0.5 0.3 0.3c0.3 0 1.3 0 1.4 0.1s0 0.2 0 0.3-0.1 0.2-0.2 0.3h-0.4-0.3-0.2c-0.2 0-0.7-0.1-0.8 0h-0.3-1.1-0.4c-0.2 0-0.4-0.1-0.6 0-0.2 0-1.8 0-2.2-0.1v0.5c0.2 0 0.3-0.1 0.5-0.1h2 0.5 1 0.5 0.8 0.3c0.2 0 0.4 0 0.6 0.1 0 0.1-0.2 0.6-0.3 0.7-0.1 0-0.2 0.1-0.3 0.1h-0.8-0.4-0.3-0.2-0.8c-0.1 0-0.3-0.1-0.4 0h-0.2-0.8c-0.2 0-0.5-0.1-0.7 0h-0.3c-0.1 0-0.6 0-0.7-0.1v0.5c0.1-0.1 0.9-0.1 1.1-0.1h0.4 1 0.6 0.5 0.9c0.2 0 0.8-0.1 1.1 0 0.1 0.1-0.1 0.4-0.1 0.4-0.1 0.1-0.1 0.3-0.3 0.3h-0.2c-0.2 0-0.3 0-0.5-0.1h-1-0.3c-0.2 0-0.6-0.1-0.8 0h-0.2-0.5-0.4-1.3v0.5c0.2 0 0.3-0.1 0.4-0.1h0.9 0.4 1.8 0.8 0.5c0.1 0 0.2 0 0.3 0.1s-0.1 0.6-0.2 0.6l-0.2 0.2h-0.6c-0.2 0-0.6-0.1-0.8 0h-0.7-0.6c-0.2 0-0.4-0.1-0.6 0h-1.4v0.4h0.4 0.6c0.2 0 0.4 0 0.6-0.1 0.3 0 0.6 0 0.9 0.1h0.7c0.3 0 0.6 0.1 0.9 0 0.2 0 0.4 0.1 0.6 0.1 0 0.2-0.3 0.7-0.5 0.8h-0.6c-0.3 0-1-0.1-1.2 0h-1.5c-0.2 0-0.5 0-0.7-0.1v0.4h0.7 0.4c0.4 0 0.7 0.1 1.1 0.1h1.1c0.2 0 0.4 0 0.5 0.1 0 0-0.4 0.8-0.7 0.8s-0.9 0-1.2-0.1c-0.5 0-0.9 0-1.4-0.1h-0.7v0.4c0.8 0 1.7 0 2.4 0.1 0.2 0 0.4 0 0.7 0.1v0.1c-0.1 0-0.1 0.1-0.1 0.1-0.5 0.3-0.7 0.7-0.9 0.7-0.1 0-0.2 0-0.2 0.1-0.2 0-0.6-0.1-0.7-0.1-0.2 0-0.6-0.1-0.8 0h-0.8v0.4h1.2 0.5 0.7c0 0.2-0.4 0.7-0.6 0.7h-0.4-1.4v0.4h0.3c0.2 0 1.1 0 1.1 0.1 0.1 0.2-0.4 0.6-0.5 0.7h-0.9c0 0.2-0.1 0.3-0.1 0.4h0.7c0 0.2-0.8 0.9-1 1h-0.1c-0.4 0.6-0.9 1.1-1.7 1.7-0.6 0.5-1.3 0.9-2 1.2h0.1c0.4 0-0.5 0.6-0.6 0.6h-0.9-0.1c-0.6 0.2-1.3 0.4-2 0.5h0.5 0.6 0.3 0.4 0.4v0.1c-0.2 0.2-0.4 0.3-0.6 0.4-0.1 0.1-0.2 0.2-0.4 0.3-0.1 0-0.2 0.1-0.4 0.1h-0.3-2c-0.2 0-0.7-0.1-0.9 0-0.3 0-0.6-0.1-0.8 0h-0.6c-0.4 0-0.7-0.1-1.1-0.1h-0.2-1.7c-0.2 0-0.5 0.1-0.7 0.1-0.7 0.1-1.2 0.2-1.7 0.4h1.7 1.2 2.9 1c0.2 0 0.3 0 0.5-0.1h2.2c-0.1 0-0.3 0.2-0.4 0.2-0.3 0.1-0.6 0.3-0.9 0.4-0.2 0.1-0.4 0.2-0.6 0.2-0.4 0.1-0.8 0-1.2 0h-0.4-0.5-0.6c-0.2 0-0.5-0.1-0.7 0h-1.2-0.6-0.4-0.7c-0.2 0-0.8-0.1-1 0-0.5 0-1.3-0.1-1.9-0.1-0.2 0.2-0.4 0.3-0.5 0.5h0.8c0.7-0.1 1.5 0 2.3 0h1.2 0.7 0.4c0.2 0.1 0.7 0 0.9 0 0.4 0 0.8 0.1 1.1 0.1 0.2 0 0.4 0 0.5-0.1h0.7-0.1c-0.3 0.1-0.5 0.2-0.8 0.3-0.1 0.1-0.3 0.1-0.4 0.2-0.2 0.1-0.4 0.1-0.6 0.2h-0.8-0.5-0.4-0.4-0.2-0.7c-0.1 0-0.4-0.1-0.5 0h-0.4-0.6-0.3-0.4-0.2c-0.2 0-0.8-0.1-1 0h-0.4-0.8c-0.1 0.1-0.1 0.3-0.2 0.4 0.6-0.1 1.4 0 1.9 0s1 0 1.5-0.1c0.2 0 0.4 0 0.6-0.1h1.1 1.1c-0.3 0-0.6 0.2-0.9 0.2-0.2 0-0.4 0-0.6 0.1-0.3 0-0.6 0.1-0.9 0.2h-0.2c-0.2 0-0.3 0-0.5 0.1-0.1 0-0.5 0.1-0.6 0.1h-0.5-0.7-0.2-1.2c-0.6 0-1.2 0.1-2 0h-0.2c-0.3-0.1-0.7-0.1-1-0.2h-0.5c-0.2 0-0.4-0.1-0.7-0.1h-0.6c-1.1-0.2-2.3-0.3-3.3-0.6-0.2 0-0.6-0.1-0.7-0.2 0.5 0.1 1.1 0.1 1.6 0.1s0.9 0.1 1.4 0.1h0.4 0.4 0.6 0.4c0.2 0 0.3 0.1 0.5 0.1h1.4c-0.1-0.2-0.2-0.3-0.3-0.5h-0.7c-0.2 0-0.4-0.1-0.6 0h-1.3c-0.2 0-0.3-0.1-0.5 0-0.4 0-0.8-0.1-1.3-0.1h-1.8c-0.2 0-0.4-0.1-0.6-0.1h-0.4c-0.2 0-0.4-0.1-0.5-0.1-0.1-0.1-0.2-0.1-0.4-0.1s-0.4-0.1-0.6-0.1-0.4-0.1-0.6-0.2c-0.1 0-0.2-0.1-0.3-0.1h0.3 1.2c0.3 0 0.6 0 0.9-0.1h1.2c0.2 0 0.3 0 0.5 0.1 0.3 0 0.6-0.1 0.9-0.1 0.4 0 0.9 0.1 1.3 0.1h1.5 0.9c-0.1-0.1-0.3-0.2-0.5-0.4h-0.4-0.3c-0.3 0-0.6 0-0.9-0.1h-0.3c-0.1 0-0.3-0.1-0.5 0h-1-0.4-1c-0.2 0-0.5-0.1-0.7-0.1s-0.4 0-0.5 0.1h-0.7c-0.7 0-1.5 0-2.1-0.1-0.3 0-0.6 0-0.8-0.1-0.4-0.1-0.8-0.5-1.2-0.7v-0.1h1.3c0.2 0 0.5 0.1 0.7 0.1h0.9 0.7 0.4 0.7 2.1 1.6 0.2 0.4c-0.4-0.2-0.9-0.3-1.4-0.4h-0.2-1.1-0.4-0.3-1.1-0.7-0.6-1.4-0.5-0.7c-0.2 0-0.3-0.1-0.5-0.1-0.3 0-0.7 0-1-0.1s-0.5-0.3-0.7-0.4c-0.1-0.1-0.3-0.1-0.3-0.3 0.6 0 1.3 0 1.9 0.1h1.3 0.6c-1.1-0.1-2-0.3-2.8-0.4h-0.4-0.5-0.2c-0.4 0-0.7-0.1-0.9-0.3l-0.2-0.2h0.3c-1.2-0.4-2.1-1-2.9-1.7-0.5-0.5-0.9-1.1-1.2-1.8h-0.2c-0.2 0-0.7-0.6-0.8-0.8 0 0 0.2 0 0.2-0.1h0.5c0-0.1 0-0.2-0.1-0.3h-1c-0.1 0-0.7-0.6-0.7-0.7v-0.1h0.5 1v-0.4h-0.2-0.3c-0.1 0-0.5-0.1-0.6 0h-0.2-0.7c-0.2-0.1-0.6-0.6-0.6-0.8h0.2 0.5c0.2 0 0.5 0 0.7-0.1h1v-0.4h-0.3-0.4-0.4-0.5-0.3c-0.1 0-0.2 0-0.3 0.1-0.2 0-0.4 0-0.5-0.1-0.1 0-0.5-0.6-0.4-0.7s0.7-0.1 0.8-0.1h2.3v-0.4h-0.9-0.3c-0.2 0-0.5-0.1-0.6 0-0.2 0-0.7-0.1-0.9 0h-0.4c-0.1 0-0.2 0-0.3-0.1s-0.1-0.2-0.2-0.3c-0.1-0.2-0.3-0.4-0.3-0.7 0.2 0 0.4 0.1 0.7 0.1h0.6 1 0.5c0.3 0 0.7 0.1 1 0h0.3v-0.4h-0.8-0.3-1.2-0.4-0.6-0.3-0.4c-0.1 0-0.2 0-0.3-0.1-0.2-0.1-0.4-0.6-0.5-0.8 0 0 0.1 0 0.1-0.1 0.4 0 0.7 0.1 1.1 0.1h0.3 0.3 0.6c0.2 0 0.4-0.1 0.7 0 0.2 0 0.3 0.1 0.5 0.1s0.7-0.1 1 0v-0.4h-0.2-3-0.4-0.6-0.3c-0.1 0-0.3 0-0.4-0.1-0.2-0.1-0.3-0.5-0.3-0.7h0.6 0.5 0.9 0.4 0.4c0.3 0 0.7 0 1 0.1h0.5c0.3 0 0.6 0.1 1 0.1v-0.5h-0.1-1-1c-0.2 0-0.3 0-0.5-0.1h-0.9c-0.2 0-0.5-0.1-0.6 0h-1.2c0-0.1-0.1-0.1-0.1-0.2-0.1-0.1-0.2-0.4-0.1-0.5l0.1-0.1h0.9 0.6 0.4 0.3 0.8 1.3c0.3 0 0.8 0.1 1.1 0.1v-0.4c-0.5 0-1.7-0.1-1.9 0h-0.9-1.1c-0.2 0-0.4 0-0.6-0.1h-0.4c-0.1 0-0.3-0.1-0.4 0h-0.2c-0.1 0-0.2 0-0.3-0.1s-0.3-0.6-0.2-0.7c0.3-0.2 0.9 0 1.3-0.1 0.4 0 0.7 0 1.1 0.1h0.8c0.1 0 0.3 0 0.4 0.1h1.9 0.7v-0.5h-0.3-1-0.5-1.2c-0.1 0-0.4-0.1-0.5 0h-0.8c-0.2 0-0.8-0.1-1 0-0.2 0-0.4 0-0.5-0.1-0.2 0-0.6 0-0.8-0.1-0.1-0.1-0.1-0.2-0.1-0.4 0-0.1-0.1-0.2-0.1-0.2 0.1-0.1 0.7-0.1 0.9-0.1h0.7 1.3 0.3 0.8 0.6 0.5 1.1 0.5v-0.4h-0.5-0.3-0.5-1.1-0.6-0.6c-0.2 0-0.6-0.1-0.8 0-0.3 0-0.5 0-0.8-0.1-0.3 0-1.3 0.1-1.5-0.1-0.1-0.1-0.2-0.6-0.2-0.7h0.5c0.4 0 0.8 0 1.2 0.1 0.1 0 0.2 0 0.3 0.1h1c0.3 0 0.5-0.1 0.8-0.1h0.6 0.5 1c0.2 0 0.9-0.1 1.2 0v-0.4h-0.3-0.8-0.6-0.2c-0.3 0-0.8-0.1-1 0h-0.5c-0.3 0-0.8-0.1-1 0-0.3 0-0.7-0.1-0.9 0-0.2 0-0.8-0.1-1 0-0.2 0-0.8 0-0.9-0.1s-0.1-0.2-0.1-0.3-0.1-0.2 0-0.3h0.1 0.6 1.5 0.6c1.1 0.1 2.2 0 3.4 0h1.1v-0.4h-0.5-1c-0.2 0-0.4 0-0.5 0.1h-0.3c-0.3 0-1.1-0.1-1.3 0-0.2 0-0.4-0.1-0.7-0.1-0.8 0-1.7 0-2.5-0.1-0.1 0-0.4 0-0.5-0.1s-0.1-0.5-0.1-0.7h1.6c0.3 0 0.7 0.1 0.9 0 0.4 0 0.9 0.1 1.3 0.1h0.6c0.3 0 0.5 0 0.8 0.1 0.1 0 0.2-0.1 0.4-0.1h0.7 0.2 0.8v-0.4h-0.4-0.5-0.9-0.5c-0.1 0-0.7-0.1-0.8 0h-0.5c-0.1 0-0.3-0.1-0.4 0-0.5 0-0.9-0.1-1.4-0.1h-0.4-0.7c-0.2 0-0.8 0-0.9-0.2-0.1-0.1-0.1-0.2-0.1-0.3s0-0.3 0.1-0.3c0.2-0.1 0.5 0 0.8 0h2.1 0.6 0.7 0.3 1 0.4 1.2 0.5v-0.4h-1c-0.2 0-0.7-0.1-0.9 0-0.2 0-0.7-0.1-0.8 0h-0.5-1.1-0.6c-0.2 0-0.7-0.1-0.9 0-0.3 0-0.6-0.1-0.9-0.1h-0.2-0.3c-0.6 0-0.6-0.1-0.6-0.7h0.1 0.4c0.3 0 0.9 0.1 1.2 0h0.7 0.7 0.5 0.3 1.6 0.4 0.5 0.4 1v-0.4h-0.5-0.7-0.4-0.6c-0.2 0-0.4-0.1-0.5 0h-0.7-3.2-0.6c-0.1 0-0.2 0-0.3-0.1-0.1 0-0.2 0-0.3-0.1s-0.1-0.6-0.1-0.8c0.2 0 0.4 0 0.5-0.1 0.3 0 0.8 0.1 1.1 0h0.4 0.3 0.7 0.5 0.5 0.4 3.5v-0.4h-0.6-1.2-0.5c-0.2 0-0.4-0.1-0.5 0h-1.7-0.3-1.6c-0.2 0-0.4-0.1-0.5 0h-0.2c-0.2 0-0.5 0-0.7-0.1-0.1-0.1-0.1-0.6 0-0.7s0.1-0.1 0.2-0.1c0.8 0 1.6 0 2.4 0.1h0.6 2 0.4 0.3 1.4 0.5v-0.4c-0.2 0-0.4-0.1-0.6 0h-2.6c-0.2 0-0.7-0.1-0.8 0h-3.1c-0.2 0-0.5 0-0.8-0.1 0-0.1 0-0.2-0.1-0.3 0-0.2 0-0.4 0.1-0.5 1.1 0 2.2 0.1 3.3 0.1h0.4c0.3 0 0.6 0.1 1 0.1h0.4 0.9c0.2 0 1.5 0 2 0.1v-0.5h-0.3-0.5-0.4-1.2-0.4-1.1-1.6c-0.2 0-0.6-0.1-0.7 0h-0.6c-0.4 0-0.7-0.1-1.1-0.1 0-0.2 0-0.7 0.1-0.7h0.4 0.3 0.4 1 0.8 1 1.8 2v-0.4h-0.2-0.4c-0.1 0-0.3-0.1-0.4 0-0.2 0-0.5-0.1-0.7 0-0.4 0-0.7 0-1-0.1h-0.4-0.5c-0.2 0-0.5-0.1-0.6 0h-0.8-0.4-0.9c-0.1 0-0.3-0.1-0.4 0h-0.9v-0.1c0-0.2 0-0.7 0.2-0.7h1.2 0.6 1.5 0.8 0.3c0.2 0 0.4 0 0.6 0.1h2.4v-0.4h-0.6-2.3c-0.3 0-0.9-0.1-1.1 0-0.1 0-0.3-0.1-0.4 0h-0.2-1c-0.4 0-0.7-0.1-1.1-0.1h-0.3c-0.2 0-0.5 0-0.7-0.1-0.1 0 0-0.1 0-0.1 0.1-0.5 0.1-0.6 0.7-0.6h0.4 0.5c0.3 0 0.7 0 1.1 0.1h0.5c1.5 0 3.1 0 4.6 0.1v-0.4h-0.3-1.2-0.6-0.5c-0.2 0-0.5-0.1-0.7 0-0.4 0-0.9 0-1.3-0.1h-0.4c-0.2 0-0.7-0.1-0.8 0h-1.6v-0.1c0-0.2 0-0.6 0.2-0.6 0.2-0.1 0.5-0.1 0.7-0.1h1 0.3c0.8 0.1 1.6 0.1 2.4 0.1h0.7 1 0.5 0.8v-0.4h-0.3-0.5-1.4c-0.1 0-0.4-0.1-0.5 0h-2.9-1.2c-0.2 0-0.3 0-0.4-0.1 0-0.1 0.1-0.5 0.2-0.6 0.1 0 0.1-0.1 0.2-0.1 0.6 0 1.2 0 1.8 0.1h0.7c0.1 0 0.3-0.1 0.4 0 0.8 0 1.6 0.1 2.4 0.1h0.7 0.9v-0.4h-0.6-0.4-1.5c-0.2 0-0.5-0.1-0.6 0-0.6 0-1.2 0-1.8-0.1-0.2 0-0.6-0.1-0.7 0h-0.2c-0.4 0-0.7-0.1-1.1-0.1 0-0.2 0.1-0.6 0.3-0.7 0.1-0.1 0.2 0 0.2-0.1 0.1 0 0.2 0 0.4 0.1h0.4 0.6 0.7c0.5 0 1 0.1 1.5 0.1h1.8 1.1v-0.4c-0.3 0-0.7 0-0.9 0.1h-0.5-0.5-0.3-0.6-0.3-1.9c-0.2 0-0.6-0.1-0.8 0-0.2 0-0.8 0-0.9-0.1s0.1-0.6 0.1-0.6c0.1-0.1 0.2-0.1 0.3-0.1 0.3 0 0.6 0.1 1 0.1h1 0.3 0.6 0.7 0.9 1.6v-0.4h-0.5c-0.2 0-0.7-0.1-0.9 0-0.1 0-0.3-0.1-0.4 0h-0.3c-0.4 0-0.7-0.1-1.1-0.1h-0.4-0.6-0.3-0.3c-0.3 0-1 0.1-1.2-0.1 0-0.2 0.2-0.6 0.3-0.7 0.5 0 1 0.1 1.5 0.1h1.4c0.1 0 0.3 0 0.4 0.1h0.6 0.4 1.1 0.5v-0.4h-0.3-1.3-1.1c-0.2 0-0.6-0.1-0.8 0-0.1 0-0.2 0-0.3 0.1-0.2 0-0.5-0.1-0.7-0.1h-1.1c0-0.2 0.1-0.3 0.2-0.5 0-0.1 0-0.2 0.1-0.3 0-0.1 0.1-0.1 0.2-0.1h1 0.6c0.5 0 1 0.1 1.4 0.1h0.9c0.5 0 1 0 1.4 0.1v-0.4c-0.2 0.1-1.1 0.1-1.3 0-0.2 0-0.5-0.1-0.6 0h-0.6-0.4-1.6c-0.2 0-0.4-0.1-0.6-0.1 0-0.3 0.2-0.6 0.3-0.8 0.2 0 0.4 0.1 0.6 0h1.5 0.4 1.7c0.3 0 0.5 0.1 0.8 0.1v-0.4h-0.2c-0.2 0-0.5-0.1-0.7 0h-1.2c-0.2 0-0.6-0.1-0.7 0h-0.2c-0.3 0-0.7 0-1-0.1-0.2 0-0.4 0-0.6-0.1v-0.1c0-0.1 0.2-0.5 0.3-0.6 0 0 0.1-0.1 0.2-0.1h1.3 1.7 1.2v-0.4h-0.3-0.5c-0.2 0-0.6-0.1-0.8 0-0.2 0-0.5-0.1-0.7 0-0.3 0-0.7-0.1-0.9 0h-0.4-0.4c0-0.1 0.3-0.7 0.4-0.8 0.2-0.1 0.6 0 0.8 0h1.2 0.7 0.3 0.5 0.1v-0.4h-0.1c-0.2 0-0.4 0-0.5 0.1h-0.4c-0.2 0-0.4-0.1-0.6 0h-0.2-0.2-0.4-0.9c-0.1 0 0-0.2 0-0.2 0.1-0.1 0.3-0.5 0.4-0.6s0.3-0.1 0.4-0.1h0.6 1 0.4 0.4v-0.4h-0.2-0.8-0.3c-0.2 0-0.6-0.1-0.8 0h-0.3c0-0.2 0.1-0.3 0.2-0.4s0.1-0.3 0.3-0.3h0.3 1 0.5 0.3v-0.4c-0.2 0-0.5-0.1-0.7 0h-0.2c-0.2 0-0.5 0-0.6-0.1 0-0.2 0.3-0.3 0.4-0.4s0.2-0.3 0.3-0.4h0.9v-0.3h-0.5v-0.1s0.5-0.6 0.6-0.7c0.2-0.4 1.5-1.4 1.7-1.6 0.2-0.1 0.4-0.3 0.6-0.4 0.3-0.1 0.7 0 1.1 0h1.4 1.3 0.8 2.9 0.3 0.6c0.6 0 1.2-0.1 1.8 0 0.7 0 1.4 0.1 2.1 0.1 0.4 0 0.8-0.1 1.2 0 0.3 0 0.5 0.1 0.8 0.1h2.1 1.4 0.4 0.7 0.4 0.3 0.5c0.2 0 0.4 0.1 0.6 0.1h0.6 2.3 0.8c0.5 0 0.9-0.1 1.4-0.1s0.9 0.1 1.4 0h0.7 0.5 2.1 1.9 0.4c0.5 0 1 0.1 1.6 0 0.2 0 0.4-0.1 0.7-0.1 0.2 0 0.4 0 0.6-0.1h1.3c0.2 0 0.5-0.1 0.7 0 0.1 0 0.2 0.1 0.2 0.2 0.4 0.3 1.3 1.1 2 1.8v0.1h0.1c0.2 0.1 0.5 0.4 0.4 0.5 0 0.1-0.2 0.1-0.3 0.1h-0.3v0.4c0.3 0 0.6 0 0.9 0.1 0.2 0.1 0.6 0.6 0.6 0.8h-0.2c-0.1 0-1 0-1.3-0.1v0.4h1.7 0.3c0.1 0.1 0.2 0.3 0.3 0.4 0 0.1 0.2 0.2 0.1 0.3 0 0.1-0.1 0.1-0.1 0.1h-1.3-0.4-0.6v1.7h1.8c0.3 0 0.7 0 0.9 0.1 0.1 0.1 0.4 0.6 0.5 0.8 0 0-0.1 0-0.1 0.1-0.2 0-0.7-0.1-0.8 0h-0.5c-0.2 0-0.5-0.1-0.7 0h-0.2c-0.3 0-0.6 0-0.9-0.1v0.4c0.8 0 1.8 0.1 2.6 0.1 0.2 0 0.9-0.1 1 0s0.1 0.2 0.2 0.3c0 0.1 0.1 0.1 0.1 0.2s0.1 0.2 0.1 0.3c-0.1 0-0.1 0-0.2 0.1-0.3 0-0.8-0.1-1-0.1h-0.2-0.5-1.3-0.5-0.4v0.4h0.4 0.8 0.5 1.9 0.7c0.2 0.1 0.2 0.3 0.3 0.4s0.1 0.2 0 0.3h-0.3c-0.2 0-0.5-0.1-0.6 0h-0.3c-0.2 0-0.6-0.1-0.7 0h-0.8-0.3-0.7-0.3-0.4v0.4c0.3-0.1 0.7-0.1 0.9-0.1h0.1c0.4 0.1 0.8 0 1.1 0h2.1c0.2 0 0.4-0.1 0.5 0s0.3 0.5 0.3 0.7c0.1 0-0.2 0.1-0.2 0.1h-0.7c-0.2 0-0.5-0.1-0.7 0h-0.9-0.2c-0.2 0-0.8-0.1-0.9 0h-1.4v0.4h0.5 1c0.3 0 0.5 0.1 0.8 0.1h0.7 1.4 0.5 0.4c0.1 0 0.3 0.7 0.3 0.8-0.2 0.1-0.7 0-0.9 0h-0.4-0.2-0.5c-0.2 0-0.6-0.1-0.8-0.1-0.1 0-0.2 0-0.3 0.1h-1-0.4c-0.2 0-0.4-0.1-0.6 0h-0.6v0.3h0.7 0.4 0.5 1.9c0.4 0 1 0.1 1.4 0 0.2 0.1 0.9-0.1 1 0.1 0.1 0.1 0.1 0.3 0.2 0.5s0.1 0.2-0.1 0.3h-1.2c-0.2 0-0.5-0.1-0.6 0h-0.7-0.3-0.5-0.6-0.3c-0.3 0-0.7-0.1-0.9 0h-0.7v0.4c0.3-0.1 1 0 1.2 0h1.2 0.8 0.6 0.5c0.4 0 0.8 0 1.2-0.1h0.3c0.2 0 0.4 0 0.5 0.1s0.3 0.6 0.1 0.7-0.5 0-0.7 0h-1.6-0.6-0.4c-0.2 0-0.8-0.1-1 0h-0.5c-0.2 0-0.4-0.1-0.6 0-0.4 0-0.7-0.1-1.1-0.1v0.4h0.5 0.9 1.7 0.3 0.3 0.9 0.4 0.5 0.6c0.1 0 0.3 0 0.4 0.1 0.2 0.1 0.2 0.5 0.3 0.7h-0.3-0.1-0.3-1.2-0.4-0.3-1.1c-0.2 0-0.4-0.1-0.6 0h-0.7-1-1v0.4h0.2 0.6 1.1 0.8 0.6 0.8 0.8 0.6c0.2 0 0.6 0.1 0.8 0 0.2 0 0.4 0 0.6 0.1 0.1 0.1 0.2 0.5 0.2 0.7 0 0-0.1 0-0.1 0.1h-0.5-0.6-2-0.8c-0.2 0-0.8-0.1-1 0h-1.5-0.5-0.3v0.4h0.4c0.5-0.1 0.9 0 1.4 0h2c0.4 0 0.9 0.1 1.2 0 0.3 0 2.1 0 2.3 0.1 0.1 0.2 0.1 0.5 0.1 0.7 0 0-0.1 0-0.2 0.1h-1.3c-0.1 0-0.3-0.1-0.4 0h-0.5c-0.2 0-0.7-0.1-0.9 0h-0.6-2.2c-0.2 0-0.4-0.1-0.5 0-0.1 0-0.7 0-0.9-0.1v0.4h0.6 0.5 0.6 0.5 1.8 0.4c0.5 0 1 0.1 1.5 0h0.5c0.2 0 1 0 1.1 0.1s0.2 0.5 0.2 0.7h-0.1-0.6c-0.2 0-0.5-0.1-0.7 0h-0.6-0.3c-0.4 0-0.7-0.1-1-0.1h-1.2-0.3-0.4-0.8c-0.1 0-0.3-0.1-0.4 0h-1.2v0.5c-0.8-0.2-0.6-0.2-0.4-0.2 0.3 0 0.5 0.1 0.8 0.1h0.8c0.3 0 0.6 0 0.9-0.1h3.3c0.2 0 1.3 0 1.4 0.1s0 0.2 0 0.3 0.1 0.3 0 0.4c-0.1 0.2-0.8 0-1 0.1h-0.3-0.9c-0.2 0-0.5-0.1-0.6 0-0.2 0-0.8-0.1-0.9 0-0.2 0-0.5-0.1-0.7 0h-1.4-0.4-0.5-0.4-0.4v0.4c0.3-0.1 0.8 0 1.1 0h0.6 1.2 0.7 1.3 2.2c0.3 0 0.5 0 0.8 0.1 0 0.2 0.2 0.6 0 0.7-0.1 0-0.2 0-0.2 0.1-0.2 0-0.4 0-0.6 0.1h-0.9-0.3-0.4c-0.3 0-0.7-0.1-1 0-0.3 0-0.6-0.1-0.9 0h-0.7c-0.2 0-0.6-0.1-0.7 0h-0.7-0.4-1v0.4h0.1c0.5 0 1-0.1 1.6-0.1h1.1c0.2 0 0.3 0.1 0.5 0h0.4 1.8 1.3 0.4c0.1 0 0.6 0 0.7 0.1v0.3c-0.3-0.1-0.3 0-0.4 0.1"/><path class="st2" d="m57.9 23.8v-0.8-0.8-0.4-1.2-1.8c0-0.2 0-0.4-0.1-0.6h-0.4-0.4-0.6c-0.4 0-0.9-0.1-1.3 0h-0.8-0.4-0.4-0.4c-0.2 0-0.3-0.1-0.5-0.1h-0.7-0.5-0.7c-0.3 0-0.7 0-1-0.1h-0.6c-0.2 0-0.3-0.1-0.5-0.1h-1.4-0.3-1.5-0.7-3.3-0.6-1.2-0.6c-0.3 0-0.5 0-0.8-0.1h-0.7-0.8c-0.4 0-0.7 0.1-1.1 0.1h-1.2-1.9-0.6-1.4-0.8c-0.2 0-0.4-0.1-0.7-0.1h-0.8-0.6-1.9-1.5-0.9-1.4c-0.5 0-1 0.1-1.5 0-0.4-0.1-0.9 0-1.3 0h-0.1c-0.1 0.2 0 0.5 0 0.7v0.8 1.2 1 2.8 0.5 0.8 1.1 3.3c0 0.2 0 0.5-0.1 0.7v0.8 0.4 1.9 0.8c0 0.3-0.1 0.6-0.1 0.9v0.7 0.6 1.1 0.5 0.6 0.7 0.9c0 0.4-0.1 0.8-0.1 1.2v0.4 0.8 0.7c0 1.8-0.1 3.5-0.1 5.2v1.2 1.9 0.4c0 0.6-0.1 1.3-0.1 1.9v0.5c0 0.9 0 1.7 0.2 2.5 0.1 0.2 0.1 0.3 0.2 0.5 0.1 0.3 0.2 0.7 0.4 1 0.3 0.4 0.6 0.8 1 1.1 0.1 0 0.1 0.1 0.2 0.1 0.1 0.1 0.2 0.1 0.3 0.2 0.2 0.1 0.3 0.1 0.5 0.2s0.5 0.2 0.7 0.3 0.5 0.1 0.7 0.2c0.4 0.1 0.9 0.3 1.4 0.4s0.9 0.1 1.4 0.2c1.4 0.2 2.8 0.4 4.2 0.5h0.9c0.4 0 0.8 0.1 1.2 0.1l1.2 0.3c0.2 0 0.4 0.1 0.6 0.1s0.4 0.1 0.6 0.1c0.2 0.1 0.4 0.2 0.5 0.2 0.2 0.1 0.3 0.1 0.5 0.2 0.8 0.3 1.5 0.9 2.2 1.5 0.2 0.3 0.4 0.5 0.6 0.8 0.1 0.2 0.2 0.3 0.3 0.5 0 0 0 0.1 0.1 0.1 0.3-0.8 0.7-1.5 1.3-2.1 0.2-0.2 0.5-0.3 0.8-0.5s0.6-0.5 1-0.5c0.2-0.1 0.4-0.1 0.5-0.2 0.2-0.1 0.5-0.2 0.8-0.2 0.1 0 0.2-0.1 0.2-0.1 0.1-0.1 0.3-0.1 0.4-0.1h0.2c0.1 0 0.1-0.1 0.2 0 0.1 0 0.2-0.1 0.3-0.1 0.1-0.1 0.2-0.1 0.3-0.1 0.1-0.1 0.2-0.1 0.3-0.1h0.2c0.1-0.1 0.2-0.1 0.3-0.1h0.2 0.2 0.2 0.2c0.1-0.1 0.4 0 0.5 0h0.2 0.3c0.2-0.1 0.4 0 0.6 0h0.2c0.2-0.1 0.4-0.1 0.6-0.1 0.1 0 0.2-0.1 0.3-0.1s0.2-0.1 0.3-0.1h0.2c0.1-0.1 0.3 0 0.4 0s0.2-0.1 0.3-0.1c0.1-0.1 0.3 0 0.5 0 0.1-0.1 0.5-0.2 0.7-0.2 0.1 0 0.2-0.1 0.3-0.1h0.2c0.2-0.1 0.3-0.1 0.6-0.1 0.1-0.1 0.3-0.1 0.4-0.1 0.1-0.1 0.4-0.2 0.5-0.2s0.2-0.1 0.2-0.1c0.3-0.1 0.6-0.2 0.9-0.3s0.7-0.3 1-0.4c0.2-0.1 0.3-0.1 0.5-0.2 0.3-0.1 0.5-0.3 0.7-0.5 0.1-0.1 0.3-0.2 0.4-0.3 0.2-0.2 0.4-0.3 0.6-0.6s0.4-0.8 0.5-1.1c0-0.2 0.1-0.4 0.1-0.6s0.1-0.4 0.1-0.5v-0.9-1-0.3-0.5-1.7-1.4-0.6-0.3-0.8-1.6-2.2c0-0.2 0-0.4 0.1-0.6v-1.1c0-0.2 0-0.3 0.1-0.5 0-0.3-0.1-0.6-0.1-0.9 0-0.8 0.1-1.5 0.1-2.3 0-0.3-0.1-0.6-0.1-0.8v-0.6-0.3-0.5-0.3-0.8c0-0.5 0-1.1 0.1-1.6v-0.4-0.3-0.6-0.8-0.7-0.3c0-0.5-0.1-1-0.1-1.5v-0.8-0.4c0-0.3 0-0.7-0.1-1v-0.6-0.8-0.7-0.7-0.4c-0.2 0-0.2-0.3-0.2-0.7m-0.7 9.7v0.2 0.4 0.4 2.2 0.3 0.4 0.3 0.3 0.3 0.6c0 0.3 0.1 0.6 0.1 0.9v0.4 0.3 0.4 0.2 0.5c0 1.7 0 3.4-0.1 5.1v1.8 0.5 2.1c0 0.2-0.1 0.4-0.1 0.6s0.1 0.3 0.1 0.5 0 0.3-0.1 0.5v0.2 0.2 0.3 0.7 0.3 0.6c0 0.6 0 1.2-0.1 1.8v0.4c0 0.3-0.2 0.6-0.3 0.9-0.3 0.5-0.9 0.9-1.4 1.2-0.3 0.2-0.5 0.4-0.8 0.5-0.3 0.2-0.7 0.3-1.1 0.4s-0.9 0.3-1.3 0.4c-0.2 0-0.3 0.1-0.5 0.1-0.5 0.1-0.9 0.2-1.4 0.3h-0.3c-0.3 0.1-0.6 0.1-1 0.2-0.4 0-0.7 0.1-1.1 0.1s-0.8 0.1-1.2 0.1h-1c-0.3 0-0.5 0.1-0.8 0.1h-0.5c-0.6 0.1-1.2 0.3-1.9 0.4-0.3 0.1-0.7 0.1-1 0.2-0.2 0.1-0.3 0.1-0.5 0.2-0.1 0-0.3 0.1-0.4 0.1-0.9 0.5-1.7 1.1-2.3 1.9-0.1 0.1-0.1 0.2-0.2 0.3 0 0-0.2 0.1-0.2 0.2h-0.1c-0.1-0.1-0.2-0.2-0.2-0.3-0.3-0.3-0.5-0.6-0.8-0.8-0.2-0.2-0.5-0.3-0.8-0.5-0.1-0.1-0.3-0.2-0.4-0.3-0.2-0.1-0.5-0.2-0.7-0.4-0.3-0.1-0.7-0.2-1-0.4-0.2-0.1-0.4-0.1-0.7-0.2-0.1 0-0.2-0.1-0.3-0.1-0.4-0.1-0.7-0.1-1-0.2-0.1 0-0.2-0.1-0.4-0.1h-0.4c-0.3 0-0.5-0.1-0.8-0.1h-0.8c-0.1 0-0.3-0.1-0.4-0.1h-1c-0.7-0.1-1.4-0.2-2-0.3-0.3 0-0.6 0-1-0.1-0.3 0-0.7-0.1-1-0.2-0.4-0.1-0.8-0.1-1.2-0.2-0.5-0.1-1-0.4-1.5-0.6-0.7-0.3-1.5-0.8-1.9-1.5-0.6-1-0.6-2.4-0.6-3.7 0-0.2-0.1-0.3 0-0.5 0-0.1 0-0.3 0.1-0.4v-0.4-1-0.8-0.3-0.3-0.7c0-0.5 0.1-1 0.1-1.5 0-1.2 0-2.3 0.1-3.4v-0.5-1c0-0.3 0.1-0.6 0.1-0.9v-3.8c0-0.3 0-0.6 0.1-0.9v-0.7-2.1-1c0-0.2 0-0.5 0.1-0.7v-1.4-3.2c0-0.1 0-0.3 0.1-0.4v-0.2-0.7-1.9-1.1c0-0.2 0-0.3 0.1-0.5v-0.5c0-0.2 0.1-0.3 0.1-0.5v-2-0.7-0.5-0.5c0-0.2-0.1-0.9 0.1-1.1 0.1-0.1 0.3 0 0.5 0 0.2-0.1 0.7 0 1 0 0.2-0.1 0.4 0 0.6 0h2c0.1-0.1 0.4 0 0.6 0 0.2-0.1 0.4 0 0.6 0h0.3c0.2-0.1 0.4 0 0.6 0 0.5 0 1 0.1 1.5 0.1 0.2-0.1 0.6 0 0.9 0 0.2-0.1 0.7 0 0.9 0h1.1c0.1-0.1 0.3 0 0.4 0h0.9c0.2-0.1 0.4 0 0.6 0h0.3c0.3 0 0.6 0.1 0.9 0.1 0.1-0.1 0.3 0 0.5 0h0.4 0.5c0.2-0.1 0.8 0 1.1 0h0.6 0.3 0.6 2.3 0.3 0.2c0.3-0.1 0.8 0.1 1.1 0.1h0.2 0.2c0.2-0.1 0.5 0 0.7 0h1.6c0.2 0 0.4 0.1 0.6 0.1h0.3c0.1-0.1 0.3 0 0.4 0h0.8 0.2c0.3-0.1 0.6 0 0.9-0.1 0.4 0 0.7 0.1 1 0.1h0.7 0.2c0.2-0.1 0.6 0 0.8 0h1c0.1-0.1 0.6 0 0.7 0h1.9c0.2 0 0.4 0 0.5 0.1h0.4 0.3 1 1.5s0.3-0.1 0.3 0v1.5 1.5 2.8c-0.1 1.7 0 3.3 0 5v0.7c0 0.3-0.1 0.6 0 0.9v0.4 1.1c-0.4 0-0.4 0.2-0.4 0.5"/><path class="st2" d="m41.5 56.8c-0.1-0.3-0.2-0.5-0.2-0.7 0-0.1 0-0.2-0.1-0.3 0-0.1-0.1-0.1-0.2-0.1-0.1 0.1-0.2 0.1-0.2 0.2 0 0.2 0.1 0.4 0.2 0.6s0.2 0.5 0.3 0.8c0.1 0.2 0.1 0.3 0.2 0.5 0.1 0.1 0.3 0.3 0.5 0.2 0.1 0 0-0.2-0.1-0.3-0.2-0.3-0.3-0.6-0.4-0.9"/><path class="st2" d="m30.7 43.8c0.1-0.2 0.2-0.4 0.3-0.5s0.2-0.2 0.3-0.2c0.1-0.1 0.2-0.2 0.3-0.4 0.1-0.1 0.2-0.1 0.2-0.2 0.1-0.3 0.1-1 0.1-1.3v-0.9-0.6-1.2-0.6c0-0.5 0.1-1.1 0-1.6v-1.5-0.5-0.4-1-0.5-0.8c0-0.2 0.1-0.5 0-0.7-0.2 0.1-1 0.9-1 1.2-0.1 0.2 0 0.6 0 0.9 0 0.4-0.1 0.8-0.1 1.2v0.3 0.6c0 0.3-0.1 0.6-0.1 1v0.6 0.6 0.8c0 0.4-0.1 0.9-0.1 1.3 0 0.3 0 0.6 0.1 0.8 0 0.2-0.1 0.5-0.1 0.7s0.1 0.4 0 0.6c0 0.3-0.1 0.6-0.1 0.9 0.2 0.4 0.2 0.9 0.2 1.4"/><path class="st2" d="m44.8 44.1c0-0.3-0.2-0.5-0.4-0.7-0.1-0.1-0.2-0.3-0.4-0.4-0.3-0.2-0.6-0.4-1-0.4h-0.6c-0.1 0.1-0.3 0-0.4 0.1-0.2 0.1-0.5 0.1-0.7 0.2-0.7 0.2-1.3 0.5-1.9 0.8-0.2 0.1-0.4 0.3-0.6 0.4s-0.3 0.4-0.6 0.5c-0.2 0-0.3-0.2-0.4-0.3-0.1 0-0.1-0.1-0.2-0.1-0.3-0.2-0.5-0.5-0.8-0.6-0.5-0.3-0.9-0.3-1.5-0.4-0.2 0-0.3-0.1-0.5-0.1-0.8-0.2-1.9-0.2-2.6 0.3-0.2 0.1-0.3 0.2-0.4 0.4-0.3 0.2-0.4 0.3-0.5 0.6 0 0.1-0.1 0.2-0.1 0.3 0.1 0.1 0.3 0.1 0.4 0.1 0.1-0.1 0.4 0 0.5 0h1.4c0.1-0.1 0.3-0.1 0.5-0.1h1 0.4c0.4 0 0.8 0.1 1.3 0.1h0.1 0.6c0.1 0 0.1 0 0.2 0.1s0 0.3 0.1 0.4c0.1 0.4 0.4 0.6 0.8 0.6 0.5 0 0.8-0.4 0.8-0.9v-0.2c0.1-0.1 0.2-0.1 0.4-0.1h0.2 0.2c0.1-0.1 0.5 0 0.7 0 0.1 0 0.2-0.1 0.3-0.1 0.2-0.1 0.4-0.1 0.6-0.1h0.2c0.2-0.1 0.4 0 0.6 0 0.2-0.1 0.4-0.1 0.6-0.1h1.7c-0.2-0.3 0-0.2 0-0.3"/><path class="st2" d="m32.3 41.6v0.7h0.3c0.1 0 0.2-0.1 0.3-0.1s0.2-0.1 0.3 0h0.2c0.3-0.1 0.9 0 1.2 0.1s0.6 0 0.9 0.1c0.4 0.1 0.9 0.3 1.3 0.5 0.1 0.1 0.8 0.6 0.8 0.6 0.2-0.3 0.2-0.6 0.2-0.9 0.1-0.4 0.1-0.8 0.1-1.2 0-0.6 0.1-1.2 0.1-1.9v-0.8-2.3c0-1.2 0.1-2.4 0-3.6 0-0.4 0-0.8-0.2-1.1-0.4-0.6-1-0.8-1.6-1-0.2-0.1-0.3-0.1-0.5-0.2-0.2 0-0.4-0.1-0.6-0.1-0.3-0.1-0.6-0.1-0.9-0.1h-1.3c-0.1 0.1-0.3 0-0.4 0.2s0 0.6 0 0.8v2.2 1.3c0 0.4-0.1 0.7-0.1 1.1 0 0.3 0.1 0.5 0.1 0.8v1.7c0 0.2 0 0.5-0.1 0.7v1.4c0 0.2 0 0.5-0.1 0.7-0.1 0 0 0.2 0 0.4m4.6-0.7c-0.4-0.2-0.9-0.4-1.4-0.5-0.2-0.1-0.3-0.1-0.5-0.1-0.3-0.1-0.5-0.1-0.8-0.2-0.3 0-0.6-0.1-0.9-0.1h-0.1c-0.2-0.1-0.2-0.6 0.1-0.6 0.2 0 0.4 0.1 0.6 0.1s0.4 0.1 0.6 0.1c0.2 0.1 0.3 0.1 0.5 0.2 0.5 0.2 0.9 0.3 1.3 0.5 0.1 0 0.2 0.1 0.3 0.1 0.3 0.1 0.6 0.4 0.8 0.6 0.1 0.1 0.2 0.1 0.2 0.2-0.3 0-0.5-0.2-0.7-0.3m0.6-2.9c-0.1 0-0.1 0 0 0-0.3 0.1-1-0.6-1.2-0.7-0.3-0.1-0.5-0.2-0.8-0.3-0.4-0.1-0.7-0.3-1.1-0.4-0.2 0-0.3 0-0.5-0.1-0.2 0-0.6 0-0.7-0.1-0.2-0.2-0.1-0.6 0.2-0.6 1.2 0.1 2.2 0.6 3.1 1.2 0.3 0.1 0.9 0.5 1.1 0.8-0.1 0.1 0 0.2-0.1 0.2m-4.4-5.4c0.4 0 0.7 0.1 1 0.2 0.1 0 0.2 0 0.3 0.1 0.2 0.1 0.4 0.2 0.6 0.2 0.2 0.1 0.4 0.1 0.6 0.2 0.1 0 0.2 0.1 0.3 0.1 0.3 0.1 0.5 0.2 0.8 0.4 0.2 0.1 1.1 0.6 0.9 0.8 0 0.1-0.1 0.1-0.2 0-0.2 0-0.3-0.2-0.4-0.2-0.2-0.1-0.3-0.2-0.5-0.3-0.8-0.4-1.8-0.7-2.7-0.9-0.3-0.1-0.6-0.1-0.8-0.2-0.1 0-0.1-0.3 0.1-0.4"/><path class="st2" d="m39.3 26c0.1 0 0.2-0.1 0.3-0.1 0.1-0.1 0.3-0.2 0.3-0.3 0.1-0.2-0.1-0.6-0.3-0.7h-0.2c0 0.2 0.1 0.2 0.1 0.4 0 0.1-0.1 0.2-0.2 0.3s-0.1 0.4 0 0.4"/><path class="st2" d="m39.9 23.4c-0.2-0.1-0.4-0.1-0.6-0.2s-0.3-0.2-0.5-0.2c-0.1 0-0.2 0.1-0.2 0.2 0 0.2 0.2 0.3 0.3 0.4s0.2 0.3 0.3 0.3 0.2-0.1 0.3-0.2 0.2-0.1 0.3-0.2c0.2 0 0.2-0.1 0.1-0.1"/><path class="st2" d="m38.7 27.2c0.2 0.1 0.6 0 0.6-0.2s-0.2-0.3-0.3-0.3c-0.1 0.1-0.5 0.4-0.3 0.5"/><path class="st2" d="m43.8 30.6c-0.1-0.1-0.3 0-0.4 0h-0.5c-0.2 0.1-0.4 0-0.7 0.1-1 0.2-1.9 0.3-2.7 0.8-0.2 0.1-0.4 0.2-0.6 0.4-0.1 0.1-0.1 0.3-0.1 0.5-0.1 0.5-0.1 0.9-0.1 1.4 0 0.2 0 0.5-0.1 0.7v1.1c0 0.1 0 0.3-0.1 0.4v1 1.5 1.5 0.4 0.2 0.7c0 0.7 0 1.5 0.2 2l0.1 0.1c0.3-0.1 0.6-0.3 0.8-0.5 0.2-0.1 0.5-0.2 0.8-0.3 0.3-0.2 0.4-0.3 0.8-0.3 0.1-0.1 0.4-0.1 0.6-0.1h0.2 0.2c0.3-0.1 0.9 0 1.2 0.1 0.1 0 0.3 0.1 0.4 0.1 0.1-0.4 0-0.9 0-1.3v-0.7-0.8-0.4-1-0.6-1.1-0.5-2-0.6-1.5c0-0.2-0.1-0.3-0.1-0.5v-0.6c0.1-0.1 0.1-0.2 0.1-0.2m-4.8 6.8c0.6-0.6 1.5-0.9 2.2-1.2 0.2-0.1 0.5-0.3 0.8-0.3 0.1-0.1 0.3-0.2 0.4-0.2 0.2 0 0.3 0.1 0.3 0.3s-0.1 0.3-0.2 0.4c-0.2 0.2-0.5 0.2-0.8 0.3s-0.6 0.2-0.9 0.3c-0.2 0.1-0.4 0.1-0.6 0.2-0.4 0.1-0.7 0.3-1 0.5-0.1 0.1-0.2 0.2-0.4 0.2h-0.1c0-0.3 0.2-0.5 0.3-0.5m3.7 2.1c-0.2 0.1-0.5 0.1-0.8 0.2-0.2 0-0.5 0.1-0.7 0.2-0.8 0.2-1.4 0.5-2.1 0.9-0.1 0-0.3 0.3-0.4 0.1-0.1-0.1 0.1-0.2 0.2-0.3 0.3-0.2 0.5-0.4 0.8-0.6s0.6-0.4 1-0.5c0.1-0.1 0.2-0.1 0.3-0.2 0.4-0.2 0.9-0.3 1.3-0.4 0.1 0 0.3 0 0.4 0.1 0.3 0.1 0.2 0.4 0 0.5m0.1-6.5c-0.1 0.1-0.3 0.1-0.4 0.1-0.3 0.1-0.6 0.2-0.9 0.3-0.4 0.1-0.8 0.3-1.2 0.5-0.3 0.2-0.5 0.3-0.8 0.5 0 0-0.4 0.2-0.4 0.1 0-0.3 0.4-0.5 0.6-0.6 0.1-0.1 0.2-0.1 0.3-0.2 0.3-0.2 0.6-0.3 0.8-0.5 0.3-0.1 0.6-0.2 0.9-0.3 0.1-0.1 0.2-0.1 0.3-0.1 0.1-0.1 0.3-0.1 0.4-0.1h0.3c0.3 0 0.2 0.2 0.1 0.3"/><path class="st2" d="m38.2 25.7c-0.1 0-0.1 0-0.2-0.1-0.1 0-0.2 0.1-0.2 0.2v0.3c0 0.2 0 0.4 0.1 0.5s0.1 0.1 0.2 0.1 0.1 0.1 0.2 0.1c0.2 0 0.6-0.3 0.6-0.5-0.1 0-0.6-0.5-0.7-0.6"/><path class="st2" d="m45.6 33.5c0-0.2-0.1-0.5-0.1-0.7v-0.4-0.3h-0.1c-0.1 0.5 0 1.1 0 1.6 0 0.2-0.1 0.4-0.1 0.6v0.3 0.3c-0.1 0-0.2 0-0.2-0.1v-0.5-0.3c0-0.6 0.1-1.3 0.1-1.9v-0.3-0.2h-0.1c0 0.5-0.1 0.9-0.1 1.3 0 0.1 0 0.2-0.1 0.2h-0.1c-0.1-0.4-0.1-0.8-0.1-1.2 0-0.2 0-0.4-0.1-0.6-0.1 0.1-0.1 0.3-0.1 0.5v0.7c0 0.2 0.1 0.5 0 0.7-0.1 1.5-0.1 3-0.1 4.6v0.9c0 0.3-0.1 0.5-0.1 0.8v1.2c0 0.4-0.1 0.8 0 1.2 0 0.1 0 0.2 0.1 0.2 0.1-0.2 0.1-0.5 0.1-0.7 0-0.4 0.1-0.8 0.1-1.3 0-0.3-0.1-0.6 0-0.9 0 0 0-0.1 0.1 0 0.1 0 0.1 0.2 0.1 0.3 0.1 0.3 0 0.6 0 1v0.8 0.9 0.4c0 0.1 0 0.3 0.2 0.3v-1.4-0.6c0-0.2 0-0.4 0.1-0.6 0-0.1 0-0.3 0.1-0.4 0-0.2-0.1-0.4-0.1-0.6v-0.9-0.5c0-0.1 0.1-0.1 0.1-0.1 0.1 0.1 0.2 0.2 0.2 0.3v1.1 0.3c0 0.3 0.1 0.6 0.1 0.9v0.4 1.6c0 0.4 0 0.8 0.1 1.2v0.2h0.1c0.1-0.2 0.1-0.5 0.1-0.8s0.1-0.6 0-1c0-0.2-0.1-0.4-0.1-0.6s0.1-0.4 0.1-0.6c0-0.3-0.1-0.6-0.1-1 0-0.3 0-0.7 0.1-1v-0.8-0.3c0-0.2 0-0.3 0.1-0.5v-0.8-1.3c-0.3-0.7-0.3-1.1-0.3-1.6m-0.9 4.1s-0.2 0.2-0.2 0.1v-0.3-0.8-1c0-0.3 0-0.6 0.1-0.8 0.1 0 0.1 0.1 0.2 0.2 0.1 0.3 0 0.6 0 0.9-0.1 0.6 0 1.3-0.1 1.7m0-3.8c-0.2 0-0.2-0.2-0.1-0.3 0.1 0 0.2 0.3 0.1 0.3m0.4 3.2c-0.1-0.2-0.1-0.4-0.1-0.7s-0.1-0.6 0.1-0.9c0.1 0 0.1 0 0.2 0.1 0.1 0.2 0.1 1.5-0.2 1.5"/><path class="st2" d="m41.7 51.2h0.3 0.7 0.2c-0.2-0.3-0.6-0.6-0.9-0.9l-2.1-2.1c-0.1-0.1-0.3-0.3-0.5-0.4l-0.7-0.7c-0.1-0.1-0.3-0.3-0.5-0.4v0.1c-0.1 0-0.2 0.1-0.3 0.2-0.3 0.3-0.5 0.6-0.8 0.8l-2.4 2.4c-0.1 0.1-1 1-1 1.1 0.6 0.1 1.3 0 1.9 0h0.7c0.1 0 0.3 0 0.4 0.1v0.1c-0.1 0.1-1.2 1.4-1.2 1.4v0.1h2.2 0.1c-0.1-0.2-0.2-0.3-0.3-0.5-0.2-0.2-0.4-0.5-0.5-0.8 0-0.1-0.1-0.2 0-0.2 0.1-0.3 1.4-0.1 1.7-0.1 0.2-0.1 0.6 0 0.8 0 0.3 0 0.7-0.1 1.1 0 0.1 0 0.1 0.1 0.1 0.2 0 0.2-0.5 0.9-0.6 1.2 0 0.1-0.1 0.1-0.1 0.2h1.2 0.7 0.1c0-0.2-0.7-1-0.8-1.2-0.1-0.1-0.2-0.2-0.2-0.3 0-0.4 0.4-0.3 0.7-0.3"/><path class="st2" d="m39.1 52.8c0.2-0.1 0.8-1 0.8-1.2h-0.4c-0.1 0-0.1 0.1-0.2 0.1-0.1 0.1-0.7 0.9-0.7 1 0.2 0.1 0.4 0.1 0.5 0.1"/><path class="st2" d="m35.3 51.6c-0.2 0.2-1.2 0.9-1.2 1.1h0.5c0.2-0.1 1-0.9 1-1.1h-0.3"/><path class="st2" d="m43.7 52.7c0-0.5 0-1-0.4-1.2-0.1 0.3-0.1 0.7-0.1 1.1v1.6 0.3h-2.5-1.1c-0.7 0-1.4-0.1-2.1-0.1-0.5 0-1 0.1-1.5 0.1-0.3 0-2.4-0.2-2.5 0v0.1c0.2 0.3 0.5 0.2 0.9 0.2h0.2 0.2 0.6 1 0.3c0.1-0.1 0.6 0 0.8 0h0.2 1.1c0.2-0.1 0.5 0 0.7 0h1.4c0.1-0.1 0.3 0 0.5 0 0.2-0.1 0.4 0 0.6 0h1.2 0.2v-0.1c0.1-0.2 0-0.5 0-0.8 0-0.2 0-0.3 0.1-0.5 0.3-0.1 0.3-0.4 0.2-0.7"/><path class="st2" d="m43.7 59.4v-0.4-0.3c-0.1-0.1-0.2-0.1-0.4-0.1l-0.1 0.1v0.6 2c0.1 0 0.4 0 0.4-0.2 0.1-0.2 0.1-0.8 0-1.1 0-0.1 0-0.3 0.1-0.6"/><path class="st2" d="m51.4 59.8c-0.5-0.5-1-1-1.5-1.4-0.6-0.6-1.2-1.3-1.9-1.9-0.2-0.2-0.5-0.4-0.7-0.7l-0.3-0.3c-0.9-1-2-1.9-2.9-2.8-0.1 0.4 0 0.8 0 1.2v0.8 0.7c-0.1 0.2-1.5 0.2-1.8 0.2-0.1 0-0.5 0-0.6 0.1v0.1c0.1 0.4 0.3 0.8 0.4 1.1 0.1 0.2 0.2 0.9 0.4 1.1 0.1 0.1 0.6 0.1 0.7 0.1 0.1-0.1 0.5 0 0.6 0 0.3-0.1 0.2 0.5 0.2 0.6v0.5c0 0.3-0.1 2 0.1 2.1 0.1 0.1 0.5 0 0.7 0 0.1 0 0.2-0.1 0.3-0.1 0.1-0.1 0.4 0 0.5 0h0.2c0.1-0.1 0.4 0 0.6 0 0.1 0 0.4-0.1 0.4-0.1 0.1 0 0.2 0.1 0.3 0.1h0.3c0.2-0.1 0.5-0.1 0.8-0.1h0.2c0.1-0.1 0.3 0 0.5 0h0.2 0.2c0.1-0.1 0.2 0 0.3-0.1 0.1 0 0.3-0.1 0.4-0.1 0.2 0 0.4-0.1 0.7-0.1 0.1-0.1 0.4-0.1 0.5-0.1s0.2-0.1 0.3-0.1c0 0 0.2-0.1 0.2-0.2 0-0.4-0.2-0.5-0.3-0.6"/><path class="st2" d="m56.8 33.9v-0.3-0.3-0.6-1-0.9-1.8c0-0.2 0.1-0.7-0.1-0.9-0.1 0.2-0.4 0.4-0.6 0.6-0.7 0.8-1.5 1.5-2.3 2.3-0.5 0.5-1 1.1-1.5 1.6-0.3 0.2-0.5 0.5-0.8 0.8l-0.7 0.7c-0.2 0.2-0.4 0.3-0.5 0.5s-0.3 0.3-0.4 0.5l-1.8 1.8c-0.2 0.2-0.4 0.5-0.6 0.7s-0.6 0.5-0.7 0.7v0.1c0 0.1 1.3 1.4 1.5 1.6 1 1 2.1 2 3.1 3 0.1 0.1 0.2 0.2 0.2 0.3 0.2 0.1 0.3 0.3 0.4 0.4 0.2 0.2 0.3 0.4 0.5 0.5 1 1.1 2.1 2.1 3.2 3.2 0.1 0.1 1 1.1 1.1 1.1 0.2 0 0.1-0.9 0.1-1.1v-0.5-0.4c0-0.1 0-0.2 0.1-0.4 0-0.2-0.1-0.4 0-0.6v-0.3-1.2-0.7-0.4-0.5-0.7-0.2c0-0.2 0-0.4 0.1-0.7 0-0.4 0-0.7-0.1-1.1 0-0.3 0.1-0.6 0.1-0.9 0-0.2 0-0.4-0.1-0.6v-0.3-1-0.4c0-0.3 0-0.5-0.1-0.8v-1.5c-0.1-0.1-0.1-0.2-0.1-0.3"/><path class="st2" d="m43.2 20.8c-0.1 0.1-0.1 0.2-0.2 0.3s-0.1 0.2-0.2 0.3c-0.1 0.2-0.3 0.2-0.4 0.4-0.1 0.1-0.1 0.3-0.3 0.4-0.3 0.2-0.5 0.5-0.6 0.8 0 0.1-0.1 0.1-0.1 0.2 0 0-0.1 0.1 0 0.1 0 0.1 0.1 0.2 0.2 0.3 0.2 0.2 0.3 0.4 0.3 0.7 0 0.2 0.1 0.4 0.1 0.6s-0.1 0.4-0.2 0.6c0 0.1 0 0.3-0.1 0.4s-0.1 0.2-0.2 0.3-0.1 0.2-0.2 0.3c-0.2 0.3-0.5 0.4-0.8 0.6-0.1 0.1-0.2 0.2-0.4 0.3s-0.4 0.1-0.6 0.3c-0.2 0.1-0.3 0.3-0.4 0.5-0.1 0.1-0.2 0.1-0.3 0.2-0.1 0.2 0 0.3 0 0.5 0 0.1 0 0.2-0.1 0.3v0.6 0.2c0.2-0.1 0.4-0.4 0.6-0.6l2.8-2.8c0.2-0.2 0.3-0.4 0.5-0.6 0.3-0.3 0.7-0.6 1-1 0.1-0.1 0.2-0.3 0.3-0.4l0.3-0.3c0.2-0.2 0.4-0.4 0.6-0.5 0.5-0.5 1-1.1 1.5-1.6 0.1-0.1 0.3-0.2 0.4-0.4l1.7-1.7c0.3-0.3 0.7-0.6 0.9-0.9-0.2 0.1-0.5 0.1-0.8 0h-0.2c-0.2 0-0.4 0.1-0.6 0.1s-0.5-0.1-0.7-0.1h-0.6c-0.1 0.1-0.2 0-0.4 0.1h-0.9-0.5l-0.2 0.2c-0.2 0.2-0.3 0.4-0.5 0.6-0.1 0.1-0.1 0.2-0.2 0.2-0.1 0.1-0.2 0.1-0.3 0.2l-0.2 0.2c0.2 0 0.1 0 0 0.1"/><path class="st2" d="m41.4 21.4c-0.1 0.2-0.4 0.3-0.4 0.6v0.3h0.1c0.2-0.3 0.6-0.7 0.3-0.9"/><path class="st2" d="m40.9 25.6s0.1 0.1 0.1 0c0.2-0.1 0.3-0.3 0.3-0.5-0.1 0.2-0.4 0.3-0.4 0.5"/><path class="st2" d="m40.7 23.6-0.2 0.2v1c0 0.1 0.1 0.1 0.2 0.1s0.1-0.1 0.2-0.1c0.3-0.3 0.2-0.6 0.1-0.9-0.1-0.2-0.1-0.3-0.3-0.3"/><path class="st2" d="m40 26.6c0.1 0.1 0.5-0.1 0.5-0.2-0.1-0.1-0.2-0.1-0.3-0.1s-0.3 0.2-0.2 0.3"/><path class="st2" d="m41.9 20.6c-0.1 0.1-0.2 0.3 0 0.4 0.1 0 0.2 0.1 0.2 0 0.1-0.1 0.2-0.3 0.3-0.4 0.2-0.2 0.9-1.2 1.2-1.2v-0.1c-0.2 0-0.4 0-0.6-0.1l-0.2 0.2c-0.1 0.1-0.2 0.3-0.3 0.4s-0.2 0.2-0.3 0.2-0.1 0.1-0.2 0.1c-0.1 0.3-0.1 0.4-0.1 0.5"/><path class="st2" d="m40.2 21.3c-0.1 0.1-0.4 0.6-0.4 0.7h0.1c0.2 0.1 0.4 0 0.5-0.1s0.1-0.3 0.3-0.4l0.6-0.6c0.1-0.1 0.1-0.2 0.2-0.3s0.2-0.3 0.3-0.4 0.2-0.3 0.3-0.4 0.2-0.2 0.2-0.4h-0.3c-0.1 0.1-0.3 0.1-0.3 0.2-0.1 0.1-0.1 0.3-0.2 0.4s-0.3 0.2-0.4 0.3-0.1 0.3-0.1 0.4-0.1 0.1-0.2 0.2c0 0.1 0 0.2-0.1 0.2-0.3 0.1-0.4 0.1-0.5 0.2"/><path class="st2" d="m38.7 21.6v0.3c0.3-0.1 0.6-0.5 0.8-0.8 0.1-0.1 0.1-0.3 0.2-0.4s0.1-0.2 0.2-0.3c0.1-0.3 0.3-0.7 0.5-1h0.1v-0.1h-0.4c-0.2 0.1-0.9 0-1 0.1s-0.1 0.3-0.1 0.4-0.2 0.2-0.2 0.3c-0.1 0.2 0.1 0.4 0.1 0.6s-0.1 0.3-0.1 0.4c-0.1 0.3-0.1 0.4-0.1 0.5"/><path class="st2" d="m38.1 23.6c-0.1 0-0.4 0.4-0.4 0.4 0 0.2 0.2 1 0.4 1s0.4-0.2 0.5-0.3 0.3-0.2 0.4-0.4-0.5-0.6-0.6-0.7h-0.3"/><path class="st2" d="m37.7 25.4c0.1-0.3-0.6-0.8-0.8-0.9-0.2 0.2-0.1 0.2-0.2 0.4 0 0.1-0.1 0.2-0.1 0.2-0.1 0.2 0.1 0.6 0.2 0.7s0.1 0.1 0.2 0.1 0.3-0.2 0.4-0.3c0.2 0 0.3-0.1 0.3-0.2"/><path class="st2" d="m37.3 26.8c-0.1-0.1-0.1-0.2-0.2-0.3 0 0-0.1 0-0.2-0.1-0.3 0.5 0.1 0.6 0.5 0.7h0.1c0-0.1-0.1-0.2-0.2-0.3"/><path class="st2" d="m36 24.6c0.1 0 0.2-0.1 0.3-0.2 0.3-0.4 0.1-0.7-0.3-1-0.1 0-0.3 0.3-0.3 0.3 0 0.1 0.1 0.2 0.1 0.3 0 0.3-0.1 0.7 0.2 0.6"/><path class="st2" d="m36.9 23.7c0.2 0 0.9-0.5 0.8-0.7-0.1-0.1-0.2-0.1-0.3-0.1-0.3 0.1-0.5 0.2-0.8 0.2h-0.2v0.1c0.1 0.2 0.2 0.5 0.5 0.5"/><path class="st2" d="m36.2 26.6c0.1 0 0.5-0.3 0.5-0.4s-0.5-0.6-0.6-0.7h-0.2c-0.1 0.3 0 0.7 0.1 1 0.1 0.1 0.1 0.2 0.2 0.1"/><path class="st2" d="m37.1 21c0.1 0.2 0.5 1.3 0.9 1.3v-0.8c0-0.4 0.1-0.8 0.1-1.2 0-0.1 0-0.2 0.1-0.3 0-0.1 0-0.2-0.1-0.3v-0.3c-0.2 0-0.6 0-0.8-0.1-0.2 0-0.5 0-0.6 0.1-0.3 0.3 0.1 1 0.2 1.3 0 0.1 0.1 0.1 0.2 0.3"/><path class="st2" d="m36.5 22.2h0.3c0.1 0 0.1-0.2 0.1-0.3s0-0.3-0.1-0.4-0.1-0.2-0.2-0.4-0.2-0.4-0.3-0.7-0.3-0.9-0.6-1.1c-0.1-0.1-0.3 0-0.5 0-0.1 0.1-0.6 0.1-0.6 0.2-0.1 0.2 1.8 2.6 1.9 2.7"/><path class="st2" d="m33.1 19.6c0.1 0.2 0.3 0.3 0.5 0.5 0.1 0.2 0.2 0.4 0.3 0.5s0.3 0.1 0.4 0.3c0.2 0.2 0.4 0.5 0.5 0.8l0.3 0.3c0.2 0.2 0.3 0.4 0.5 0.5 0.1 0.1 0.3 0.1 0.4 0.1 0 0 0-0.1 0.1-0.1-0.1-0.2-0.3-0.4-0.4-0.6-0.1-0.1-0.2-0.1-0.3-0.2 0-0.1-0.1-0.1-0.1-0.2-0.1-0.1-0.2-0.3-0.3-0.4l-0.4-0.4c-0.1-0.1-0.1-0.3-0.2-0.4-0.2-0.2-0.3-0.5-0.6-0.7-0.1-0.1-0.3-0.2-0.5-0.2 0 0-0.2 0-0.2 0.2"/><path class="st2" d="m28.1 20.2 2.2 2.2c0.9 0.8 1.7 1.7 2.6 2.5 0.1 0.1 0.2 0.2 0.3 0.4l0.8 0.8c0.5 0.5 1 0.9 1.5 1.4 0.2 0.3 0.5 0.5 0.7 0.8 0.3 0.3 0.7 0.6 1 0.9 0.2 0.2 0.6 0.7 0.8 0.7 0-0.2-0.1-0.6-0.1-0.8v-0.3c0-0.1 0-0.2-0.1-0.3l-0.3-0.3c-0.1-0.1-0.2-0.3-0.3-0.4-0.2-0.2-0.4-0.2-0.6-0.3-0.1-0.1-0.3-0.2-0.4-0.3-0.1 0-0.2-0.1-0.3-0.1-0.1-0.1-0.1-0.2-0.2-0.3s-0.2-0.1-0.3-0.2-0.1-0.3-0.2-0.5c-0.1-0.1-0.1-0.3-0.2-0.4 0-0.1-0.1-0.3-0.1-0.4 0-0.2 0-0.4 0.1-0.6 0-0.1 0-0.2 0.1-0.4 0.1-0.3 0.2-0.5 0.5-0.8 0.1-0.1 0.2-0.2 0.3-0.2-0.1-0.2-0.2-0.3-0.4-0.5-0.1-0.1-0.2-0.1-0.2-0.2-0.1-0.1-0.2-0.3-0.4-0.5s-0.5-0.4-0.7-0.7l-1.4-1.4c-0.2-0.2-0.4-0.4-0.6-0.5s-0.4 0.1-0.6 0.1c-0.1 0-0.2 0-0.3-0.1h-0.7-0.5-0.6c-0.2 0.1-0.6 0-0.8 0h-1.1c-0.3 0.1 0.3 0.4 0.5 0.7"/><path class="st2" d="m35.2 24.6c0 0.2-0.1 0.7 0.2 0.6 0.4-0.1 0-0.5-0.2-0.6"/><path class="st2" d="m25 43.2c0.3-0.3 0.5-0.6 0.8-0.8 0.4-0.4 0.8-0.8 1.3-1.2l0.9-0.9c0.1-0.1 0.2-0.3 0.3-0.4 0.4-0.3 0.9-0.8 1.2-1.2 0-0.1 0.1-0.1 0.1-0.2 0.1-0.3-1.9-2.2-2.2-2.5-0.5-0.5-1-1-1.5-1.6-0.5-0.5-1.1-1-1.6-1.5-0.1-0.1-0.2-0.2-0.2-0.3-0.2-0.2-0.5-0.4-0.7-0.6-0.1-0.1-0.2-0.2-0.3-0.4-0.3-0.4-0.7-0.7-1-1l-0.5-0.5c-0.5-0.4-0.9-0.9-1.4-1.3-0.2-0.2-0.4-0.5-0.7-0.6v1 0.3 0.6 0.5 0.4 2 0.5c0 0.3 0 0.6-0.1 1v2 0.9 1.2 0.6 0.4 1.5 0.5 0.9 0.6 1.4 0.5 1.4 1.7 0.6s0.1 0.2 0.1 0.1c0.1-0.2 0.4-0.4 0.6-0.6 0.6-0.5 1.1-1.1 1.7-1.6 0.4-0.4 0.7-0.8 1.1-1.1 0.7-0.6 1.4-1.3 2.1-1.9-0.1-0.3 0-0.4 0-0.4"/><path class="st2" d="m34.7 57.4c0.1-0.4 0.3-0.8 0.5-1.2 0.1-0.2 0.2-0.5 0.2-0.8h-1.2c-0.2 0-0.7 0-0.9-0.1-0.1-0.1-0.1-0.2-0.2-0.3-0.1-0.2-0.2-0.3-0.3-0.5s0-0.4 0-0.7v-1c0-0.2 0.1-0.8 0-1-0.2 0.2-0.3 0.4-0.5 0.5l-1.8 1.8c-0.4 0.4-0.9 0.9-1.3 1.4-0.7 0.7-1.5 1.4-2.2 2.1-0.1 0.1-0.2 0.3-0.3 0.4l-0.4 0.4c-0.3 0.3-0.6 0.5-0.9 0.8l-0.6 0.6c-0.2 0.2-0.5 0.4-0.6 0.6v0.1c0.2 0.1 0.5 0.1 0.8 0.1 0.3 0.1 0.6 0.1 1 0.2h0.4c0.1 0 0.2 0 0.3 0.1 0.2 0 0.4 0.1 0.7 0.1s0.5 0 0.8 0.1c0.6 0.1 1.2 0.2 1.8 0.2h0.4c0.3 0 0.6 0.1 0.8 0.1 0.1 0 0.3 0 0.4 0.1h0.6c0.2 0 0.4 0.1 0.6 0.1 0.1 0 0.1-0.1 0.1-0.2 0.1-0.3 0-0.8 0-1.1v-2.1c0-0.1 0-0.1 0.1-0.2s0.9 0 1.1 0h0.2c0.1 0 0.2 0 0.3-0.1 0-0.1 0-0.3 0.1-0.5"/><path class="st2" d="m37.2 62.7h0.3v-1.2c0-0.4 0-1 0.2-1.3 0.2-0.4 0.3-0.7 0.8-0.7 0.1 0 0.1 0 0.1-0.1 0-0.3-0.5-0.4-0.7-0.4-0.1 0-0.2 0.1-0.4 0.1-0.8 0.4-0.7 1.6-0.7 2.4 0 0.1 0 0.5-0.1 0.6-0.2 0.2-2 0.1-2.4 0.1 0.2 0.1 0.4 0.1 0.6 0.2s0.5 0.3 0.8 0.3h1 0.5"/><path class="st2" d="m39.1 62.3c0-0.1-0.1-0.2-0.1-0.3v-1.4-0.6c0-0.1-0.1-0.1-0.1-0.1-0.2 0.1-0.3 0.1-0.5 0.2-0.1 0.1-0.2 0.4-0.2 0.5s-0.1 0.3-0.1 0.5v0.8 0.4 0.4 0.4 0.2h-0.9c-0.1 0-0.2 0-0.3 0.1h-0.1c0.2 0.1 0.5 0.3 0.7 0.4 0.2 0.2 0.3 0.4 0.5 0.5 0.1-0.3 0.4-0.5 0.6-0.7l0.3-0.3c0.2-0.2 0.4-0.3 0.5-0.5-0.2-0.2-0.2-0.4-0.3-0.5"/><path class="st2" d="m39.6 62c0 0.2 0.1 0.4 0.2 0.5 0.2-0.1 0.5-0.2 0.7-0.3 0.1 0 0.2-0.1 0.3-0.1v-0.1h-0.9-0.3"/><path class="st2" d="m1.3 32.7c-0.6-0.2-0.7-0.6-0.5-1.3l0.2-0.9 4.3 1c0.7 0.2 0.8 0.4 0.7 0.8h0.2l0.4-2h-0.2c-0.1 0.5-0.3 0.6-1 0.4l-4.3-1 0.2-0.9c0.2-0.9 0.6-1 1.1-1v-0.1l-1.3-0.3v0.2c0.1 0.2 0.1 0.4 0 0.9l-0.7 2.9c-0.1 0.2-0.1 0.4-0.2 0.5s-0.1 0.2-0.2 0.3v0.2l1.3 0.3"/><path class="st2" d="m3.7 24.2 3.2 1.6c0.7 0.3 0.7 0.6 0.5 1l0.2 0.1 0.9-1.9-0.2-0.1c-0.2 0.4-0.5 0.5-1.1 0.2l-1.5-0.7 1.4-2.8 1.5 0.7c0.7 0.3 0.7 0.6 0.5 1l0.2 0.1 0.9-1.8-0.2-0.2c-0.2 0.4-0.5 0.5-1.1 0.2l-3.2-1.6c-0.6-0.3-0.8-0.5-0.5-1h-0.2l-0.9 1.8 0.2 0.1c0.2-0.4 0.5-0.5 1.1-0.2l1.5 0.7-1.4 2.8-1.5-0.6c-0.7-0.3-0.7-0.6-0.5-1l-0.2-0.1-0.9 1.9 0.2 0.1c0.2-0.5 0.5-0.6 1.1-0.3"/><path class="st2" d="m13.7 15.2-0.1 0.1c0.4 0.7 0.3 0.9-0.3 1.6l-0.6 0.8c-0.2 0.2-0.4 0.3-0.6 0.1l-1.6-1.3 0.9-1.1c0.4-0.5 0.5-0.5 0.9-0.3l0.1-0.1-1.1-0.9-0.1 0.1c0.3 0.4 0.3 0.5 0 0.8l-1 1.2-1.9-1.6 1.1-1.3c0.4-0.5 0.6-0.6 1.1-0.3l0.1-0.1-0.6-0.5-2.6 3.2 0.1 0.1c0.3-0.4 0.6-0.4 1.1 0.1l2.8 2.3c0.6 0.5 0.6 0.7 0.3 1.1l0.1 0.1 2.6-3.2-0.7-0.9"/><path class="st2" d="m22 10.3c0.7-0.4 1-0.9 1.2-1.8l0.4 0.7 1.2-0.7-0.1-0.1c-0.4 0.2-0.6 0.2-1-0.5l-1.7-3.1c-0.3-0.6-0.3-0.9 0.1-1.1l-0.1-0.1-1.8 1 0.1 0.1c0.4-0.2 0.7-0.1 1 0.5l1.7 3c0 0.7-0.4 1.3-1 1.6-0.8 0.5-1.6 0.2-2-0.6l-1.4-2.5c-0.4-0.6-0.3-0.9 0.1-1.1l-0.1-0.1-1.8 1 0.2 0.1c0.4-0.2 0.6-0.2 1 0.5l1.4 2.5c0.5 0.8 1.4 1.3 2.6 0.7"/><path class="st2" d="m31.7 0.7v-0.2l-1.7 0.4v0.2c0.5-0.1 0.7 0 0.9 0.7l0.8 3.2-4.6-3.4-1.4 0.4v0.2c0.7-0.1 0.9 0.2 1.1 0.8l0.8 3.2c0.2 0.8 0 1-0.4 1.1v0.2l1.8-0.4v-0.2c-0.5 0.1-0.8 0-0.9-0.6l-1-3.9 5.2 3.8h0.2l-1.2-4.5c-0.3-0.6-0.2-0.9 0.4-1"/><path class="st2" d="m36.1 1.2 0.2 3.6c0 0.7-0.1 0.9-0.6 0.9v0.2l2.1-0.1v-0.2c-0.5 0-0.7-0.2-0.7-0.9l-0.2-3.6c0-0.7 0.1-0.9 0.6-0.9v-0.2l-2.1 0.1v0.2c0.5 0 0.6 0.2 0.7 0.9"/><path class="st2" d="m46.3 0.9v-0.2l-1.7-0.2v0.2c0.5 0.1 0.6 0.4 0.3 0.9l-1.8 3.4-0.9-3.9c-0.1-0.5 0.1-0.7 0.5-0.6v-0.2l-2-0.3v0.2c0.5 0.1 0.6 0.4 0.8 1.1l1.1 4.8h0.2l2.3-4.3c0.4-0.6 0.7-0.9 1.2-0.9"/><path class="st2" d="m50.3 7.7-0.9-0.3c-0.4-0.2-0.4-0.3-0.3-0.6l0.7-1.9 1.3 0.5c0.6 0.2 0.6 0.3 0.6 0.8l0.2 0.1 0.4-1.3-0.2-0.1c-0.2 0.4-0.4 0.4-0.8 0.3l-1.5-0.6 0.8-2.3 1.6 0.6c0.6 0.2 0.8 0.3 0.7 1h0.1l0.4-0.9-3.9-1.4-0.1 0.2c0.5 0.2 0.5 0.4 0.3 1.1l-1.2 3.4c-0.3 0.6-0.5 0.7-0.9 0.5l-0.1 0.2 3.9 1.4 0.6-0.9-0.2-0.1c-0.5 0.6-0.7 0.6-1.5 0.3"/><path class="st2" d="m56 10.7c-0.4-0.3-0.4-0.5 0-1.1l0.9-1.3 0.4 0.3c0.9 0.6 0.4 1.9 0.6 3.5l1 0.6 0.1-0.1c-0.8-0.6 0-2.4-0.5-3.5 0.8 0.2 1.4 0 1.8-0.5 0.4-0.6 0.3-1.6-0.8-2.3l-2-1.3-0.1 0.1c0.4 0.3 0.5 0.5 0.1 1.1l-2 3c-0.4 0.6-0.7 0.6-1 0.4l-0.1 0.1 1.7 1.1zm2.4-4.8 0.5 0.3c0.7 0.5 0.9 1.2 0.5 1.9-0.4 0.6-1 0.9-1.9 0.4l-0.6-0.4 1.5-2.2"/><path class="st2" d="m61 14.6c0.1 0.1 0.3 0.7 0.7 1.1 0.6 0.6 1.7 0.6 2.3 0 0.3-0.3 0.5-0.6 0.5-1.2 0-1.2-0.8-2.4-0.1-3.1 0.4-0.4 0.9-0.3 1.3 0.1s0.6 1.1 0.1 1.7l0.1 0.1 1-0.9-0.1-0.1c-0.1 0.1-0.2 0.1-0.2 0-0.2-0.2-0.2-0.5-0.6-1-0.7-0.7-1.5-0.7-2.1-0.1-0.3 0.3-0.5 0.7-0.5 1.2 0 0.9 0.7 2.3 0 3-0.4 0.4-1.1 0.4-1.5-0.1-0.4-0.4-0.7-1.2 0-2l-0.1-0.1-1.1 1.1 0.1 0.1c0 0.1 0.1 0.1 0.2 0.2"/><path class="st2" d="m64.9 19-0.1 0.1 1.2 1.7 0.1-0.1c-0.3-0.4-0.2-0.7 0.4-1.1l2.9-2c0.6-0.4 0.8-0.4 1.1 0l0.1-0.1-1.2-1.7-0.1 0.1c0.3 0.4 0.2 0.6-0.4 1.1l-2.9 2c-0.6 0.4-0.9 0.3-1.1 0"/><path class="st2" d="m72.6 21.5 0.3 0.8-4 1.8c-0.7 0.3-0.9 0.2-1.1-0.2l-0.1 0.1 0.8 1.8 0.2-0.1c-0.2-0.4-0.1-0.6 0.5-0.9l4-1.8 0.4 0.8c0.4 0.8 0.2 1.1-0.2 1.4v0.1l1.2-0.5-0.1-0.2c-0.2-0.1-0.4-0.3-0.6-0.7l-1.3-2.7c-0.1-0.2-0.2-0.4-0.2-0.5v-0.4l-0.1-0.2-1.2 0.5 0.1 0.2c0.7-0.2 1.1 0 1.4 0.7"/><path class="st2" d="m76.2 31.4h-0.2c0.1 0.5-0.3 0.5-0.8 0.4l-1.6-0.6 1.5-1.5c0.3-0.3 0.5-0.3 0.7 0.3h0.2l-0.5-2.2h-0.2c0.1 0.4 0 0.6-0.5 1.2l-1.6 1.6-1.8 0.4c-0.8 0.2-0.9-0.1-1-0.5h-0.2l0.4 2h0.2c-0.1-0.5 0.1-0.7 0.8-0.8l1.8-0.4 2.3 0.8c0.6 0.2 0.7 0.3 0.8 0.8h0.2l-0.5-1.5"/><path class="st2" d="m5 51.3c1.6-0.5 2.5-2.1 2-3.8s-2.1-2.6-3.7-2.1-2.5 2.1-2.1 3.8c0.5 1.7 2.1 2.6 3.8 2.1m-3.6-2.1c-0.4-1.2 0.5-2.4 2.1-2.9s2.9 0.1 3.3 1.4c0.3 1.1-0.4 2.3-2.1 2.8-1.4 0.4-2.9 0.1-3.3-1.3"/><path class="st2" d="m8.8 53.1c0.2 0.4 0.2 0.7-0.5 1l-3.1 1.8c-0.6 0.4-0.9 0.3-1.1-0.1l-0.2 0.1 1 1.8 0.1-0.1c-0.2-0.4-0.1-0.7 0.5-1l1.5-0.8 0.8 1.3c0.2 0.3 0.1 0.6-0.3 0.9l0.1 0.1 1.4-0.8-0.1-0.1c-0.4 0.2-0.7 0.2-0.9-0.2l-0.7-1.3 2.1-1.2 0.7 1.3c0.3 0.5 0.4 0.7-0.2 1.2h0.1l0.9-0.5-1.9-3.4h-0.2"/><path class="st2" d="m15.8 62.6c0.4 0.3 0.4 0.6-0.1 1.1l-2.3 2.8c-0.5 0.6-0.7 0.6-1.1 0.3l-0.1 0.1 3.2 2.6 0.9-0.7-0.1-0.1c-0.7 0.4-0.9 0.3-1.6-0.3l-0.8-0.6c-0.2-0.2-0.3-0.4-0.1-0.6l1.3-1.6 1.1 0.9c0.5 0.4 0.5 0.5 0.3 0.9l0.1 0.1 0.9-1.1-0.1-0.1c-0.4 0.3-0.5 0.3-0.8 0l-1.2-1 1.6-1.9 1.3 1c0.5 0.4 0.6 0.6 0.3 1.1l0.1 0.1 0.6-0.7-3.2-2.6-0.2 0.3"/><path class="st2" d="m24.3 68.2-2.4-1.1-0.1 0.2c0.4 0.2 0.5 0.5 0.2 1.1l-1.5 3.2c-0.3 0.6-0.6 0.7-1 0.6l-0.1 0.2 2.5 1.1c2 0.9 3.4 0.1 4-1.2 0.7-1.4 0.4-3.2-1.6-4.1m0.9 3.6c-0.7 1.4-1.8 2-3.1 1.4l-0.6-0.2c-0.5-0.2-0.6-0.5-0.2-1.3l1.8-3.8 1 0.5c1.6 0.7 1.7 2.2 1.1 3.4"/><path class="st2" d="m30.2 70.5c0.5 0.1 0.6 0.3 0.4 1l-0.7 3.5c-0.2 0.7-0.4 0.9-0.8 0.7v0.2l2 0.4v-0.2c-0.5-0.1-0.6-0.4-0.4-1l0.8-3.5c0.1-0.7 0.4-0.8 0.8-0.7v-0.2l-2-0.4-0.1 0.2"/><path class="st2" d="m39.9 71.3v0.2c0.5 0 0.7 0.2 0.7 0.9v3.4l-3.6-4.5h-1.5v0.2c0.7 0.1 0.9 0.4 0.9 1.1v3.4c0 0.8-0.2 1-0.7 1v0.2h1.7v-0.2c-0.5 0-0.8-0.2-0.8-0.8l-0.1-4 4.1 4.9h0.4v-4.7c0-0.7 0.2-0.9 0.7-0.9v-0.2h-1.8"/><path class="st2" d="m48.6 72.6c0.7-0.5 0.9-1 0.8-1.6-0.2-0.7-1-1.2-2.3-0.8l-2.1 0.6v0.2c0.5-0.1 0.7 0 0.9 0.7l0.9 3.4c0.2 0.7 0.1 0.9-0.4 1v0.2l2.5-0.7c1-0.3 1.6-1 1.4-1.8-0.1-0.8-0.8-1.3-1.7-1.2m-2.2-2 0.6-0.2c0.9-0.2 1.5 0.1 1.7 0.8s-0.2 1.3-1 1.5l-0.7 0.2zm2.4 4.8-0.5 0.1c-0.4 0.1-0.6 0-0.8-0.8l-0.4-1.6 0.5-0.1c1-0.3 1.7 0.1 2 0.9 0.2 0.8-0.3 1.3-0.8 1.5"/><path class="st2" d="m59.2 69.7-1.8-3.1c-0.4-0.6-0.3-0.9 0.1-1.1l-0.1-0.1-1.7 1 0.1 0.1c0.4-0.2 0.7-0.1 1 0.5l1.7 3c0 0.7-0.4 1.3-0.9 1.6-0.8 0.5-1.6 0.2-2-0.6l-1.6-2.4c-0.4-0.6-0.3-0.9 0.1-1.1l-0.1-0.1-1.8 1 0.1 0.1c0.4-0.2 0.6-0.2 1 0.5l1.4 2.4c0.5 0.9 1.5 1.4 2.7 0.7 0.7-0.4 1-0.9 1.2-1.8l0.4 0.7 1.2-0.7-0.1-0.1c-0.3 0.2-0.5 0.2-0.9-0.5"/><path class="st2" d="m64.1 63.3c0.4-0.8 0.3-1.4-0.2-1.8-0.5-0.5-1.5-0.6-2.4 0.3l-1.6 1.7 0.1 0.1c0.3-0.3 0.6-0.4 1.1 0.2l2.6 2.5c0.6 0.5 0.5 0.8 0.2 1.1l0.1 0.1 1.4-1.5-0.1-0.1c-0.3 0.3-0.6 0.3-1.1-0.2l-1.2-1.1 0.3-0.3c0.7-0.7 1.9 0 3.6 0.1l0.8-0.8-0.1-0.1c-0.7 0.6-2.3-0.5-3.5-0.2m-0.8 0.6-0.5 0.5-1.8-1.8 0.4-0.4c0.6-0.6 1.4-0.7 1.9-0.1 0.5 0.4 0.7 1.1 0 1.8"/><path class="st2" d="m70.8 54.8-0.1-0.1-1.2 2 0.1 0.1 0.1-0.2c0.2-0.4 0.5-0.4 1.1 0l0.5 0.3c0.4 0.3 0.2 0.8 0 1.1-0.7 1.2-2.3 1.4-3.7 0.5-1.3-0.8-1.8-2.1-1.1-3.1 0.4-0.7 1.3-1.3 2.3-0.8l0.1-0.1-1.4-0.9-0.1 0.2c0.1 0.1 0.1 0.2 0 0.4-0.2 0.4-0.6 0.5-1 1.2-0.7 1.2-0.6 3.1 1.2 4.2 1.1 0.7 2.9 0.8 4.2-1.4 0.1-0.2 0.6-1.1 0.7-1.4l-1.3-0.8c-0.5-0.5-0.7-0.7-0.4-1.2"/><path class="st2" d="m74.9 46.7-3.4-1c-0.7-0.2-0.8-0.4-0.7-0.9h-0.2l-0.6 2 0.2 0.1c0.1-0.5 0.4-0.6 1.1-0.4l1.6 0.5-0.9 3-1.6-0.5c-0.7-0.2-0.8-0.5-0.7-0.9h-0.2l-0.6 2h0.2c0.1-0.5 0.4-0.6 1.1-0.4l3.4 1c0.7 0.2 0.8 0.4 0.7 0.9h0.2l0.6-2h-0.2c-0.1 0.5-0.4 0.6-1.1 0.4l-1.5-0.5 0.9-3 1.6 0.5c0.7 0.2 0.8 0.4 0.7 0.9h0.2l0.6-2h-0.2c-0.2 0.4-0.5 0.5-1.2 0.3"/><path class="st2" d="m2 39.1c0 0.3 0.2 0.5 0.5 0.5s0.5-0.2 0.5-0.5-0.2-0.5-0.5-0.5-0.5 0.2-0.5 0.5"/><path class="st2" d="m74.7 39.1c0-0.3-0.2-0.5-0.5-0.5s-0.5 0.2-0.5 0.5 0.2 0.5 0.5 0.5 0.5-0.3 0.5-0.5"/></g></svg>
